<svg width="239" height="171" viewBox="0 0 239 171" fill="none" xmlns="http://www.w3.org/2000/svg">
<path d="M2.58008 85.3192C6.358 100.043 14.3567 112.77 26.998 118.938C53.2797 131.76 112.515 125.147 156.732 117.557C179.609 113.631 199.703 102.803 214.309 87.544L2.58008 85.3192Z" fill="#E1EBFF"/>
<path d="M234.454 16.0176H210.193C209.039 16.0176 208.095 15.157 208.095 14.1055C208.095 13.054 209.037 12.1935 210.193 12.1935H214.391C213.237 12.1935 212.292 11.3329 212.292 10.2814C212.292 9.2299 213.235 8.37147 214.391 8.37147H211.396C210.242 8.37147 209.297 7.51095 209.297 6.45943C209.297 5.4079 210.24 4.54738 211.396 4.54738H224.058C221.248 3.35524 217.972 2.5094 214.181 2.06655C179.653 -1.97792 167.325 0.696003 162.969 3.44759C157.556 6.91261 151.534 9.31916 145.224 10.5396C123.921 14.5463 84.0803 19.3673 47.9697 8.99483C30.0225 3.84217 16.6843 12.5629 8.68774 27.1099H238.666C238.366 22.8787 237.468 18.9706 235.818 15.5516C235.429 15.8558 234.948 16.0199 234.454 16.0176V16.0176Z" fill="#E1EBFF"/>
<path d="M0.521135 54.588C-0.409739 63.151 -0.0923008 71.8039 1.46351 80.2757L214.471 87.3782C220.34 81.2464 225.321 74.323 229.27 66.8095L0.521135 54.588ZM84.7624 72.9129H80.5647C81.717 72.9129 82.6636 73.7735 82.6636 74.825C82.6636 75.8765 81.7191 76.7349 80.5647 76.7349H56.3147C55.1624 76.7349 54.2158 75.8765 54.2158 74.825C54.2158 73.7735 55.1603 72.9129 56.3147 72.9129H60.5124C59.3601 72.9129 58.4135 72.0524 58.4135 71.0009C58.4135 69.9494 59.358 69.0889 60.5124 69.0889H57.5131C56.3609 69.0889 55.4143 68.2304 55.4143 67.1789C55.4143 66.1274 56.3588 65.2669 57.5131 65.2669H81.7736C82.928 65.2669 83.8725 66.1274 83.8725 67.1789C83.8725 68.2304 82.9301 69.0889 81.7736 69.0889H84.7624C85.9168 69.0889 86.8612 69.9494 86.8612 71.0009C86.8612 72.0524 85.9231 72.9129 84.7624 72.9129Z" fill="#E1EBFF"/>
<path d="M238.677 27.2421L6.12504 32.399C3.2916 39.0292 1.41734 46.5242 0.552612 54.2941H234.601C236.125 49.7477 237.255 45.0788 237.98 40.3389C238.677 35.7718 238.956 31.3559 238.677 27.2421ZM47.7703 44.1399H43.5726C44.7249 44.1399 45.6714 45.0004 45.6714 46.052C45.6714 47.1035 44.727 47.964 43.5726 47.964H19.3142C18.1619 47.964 17.2153 47.1035 17.2153 46.052C17.2153 45.0004 18.1598 44.1399 19.3142 44.1399H23.5119C22.3596 44.1399 21.413 43.2815 21.413 42.23C21.413 41.1784 22.3575 40.3179 23.5119 40.3179H20.5126C19.3603 40.3179 18.4138 39.4574 18.4138 38.4059C18.4138 37.3544 19.3582 36.4938 20.5126 36.4938H44.7731C45.9275 36.4938 46.872 37.3544 46.872 38.4059C46.872 39.4574 45.9296 40.3179 44.7731 40.3179H47.7703C48.9225 40.3179 49.8691 41.1784 49.8691 42.23C49.8691 43.2815 48.9225 44.1399 47.7703 44.1399Z" fill="#E1EBFF"/>
<path opacity="0.1" d="M139.437 160.945C148.158 160.945 155.227 159.358 155.227 157.4C155.227 155.442 148.158 153.855 139.437 153.855C130.717 153.855 123.648 155.442 123.648 157.4C123.648 159.358 130.717 160.945 139.437 160.945Z" fill="#6C63FF"/>
<path opacity="0.1" d="M176.127 170.996C191.859 170.996 204.613 169.949 204.613 168.658C204.613 167.367 191.859 166.32 176.127 166.32C160.395 166.32 147.642 167.367 147.642 168.658C147.642 169.949 160.395 170.996 176.127 170.996Z" fill="#6C63FF"/>
<path opacity="0.1" d="M61.7549 168.658C77.487 168.658 90.2404 167.071 90.2404 165.113C90.2404 163.155 77.487 161.568 61.7549 161.568C46.0228 161.568 33.2694 163.155 33.2694 165.113C33.2694 167.071 46.0228 168.658 61.7549 168.658Z" fill="#6C63FF"/>
<path opacity="0.1" d="M105.186 150.912C117.024 150.912 126.62 149.325 126.62 147.367C126.62 145.41 117.024 143.822 105.186 143.822C93.3489 143.822 83.7528 145.41 83.7528 147.367C83.7528 149.325 93.3489 150.912 105.186 150.912Z" fill="#6C63FF"/>
<path d="M121.202 63.0338C120.749 59.982 117.977 52.8607 117.977 52.8607C117.928 52.6508 117.874 52.4409 117.813 52.231C115.846 45.4727 113.124 44.8851 113.124 44.8851L103.373 42.7862C103.455 42.8373 103.526 42.9035 103.583 42.9814C103.531 42.9862 103.48 42.9939 103.429 43.0045C102.983 42.4774 102.688 41.8391 102.575 41.1575C102.556 41.0568 102.54 40.9476 102.527 40.8448C103.227 40.1621 103.774 39.3376 104.129 38.4265C104.485 37.5154 104.641 36.5388 104.588 35.5623C104.535 34.5857 104.274 33.6317 103.823 32.7643C103.371 31.8969 102.739 31.1362 101.969 30.5332C101.866 30.4534 101.759 30.3758 101.656 30.3023C102.116 29.8133 102.13 29.1332 101.786 28.4532C101.018 26.8581 99.3472 25.8486 97.6304 25.3553C96.3186 24.9796 94.9019 24.8579 93.5964 25.2693C92.8555 25.5043 92.1797 25.8989 91.485 26.2494C90.19 26.8959 88.7565 27.408 87.7889 28.4721C87.5622 28.7198 87.3523 29.0367 87.4195 29.3641C87.4699 29.6076 87.663 29.7965 87.7868 30.0127C88.066 30.4975 87.9967 31.1083 87.8057 31.6372C87.6147 32.1661 87.3356 32.6572 87.2033 33.1987C87.0711 33.7402 87.1215 34.3783 87.5286 34.7665C87.7239 34.9172 87.9271 35.0573 88.1373 35.1863C88.3601 35.3762 88.5557 35.5958 88.7187 35.839C89.1049 36.3568 89.4897 36.8766 89.8731 37.3985C90.4144 38.0902 90.898 38.8252 91.3192 39.596C91.6067 40.1627 91.8292 40.7671 92.2133 41.2751C92.3258 41.4233 92.4547 41.5585 92.5974 41.678L92.484 41.634C92.6509 41.8038 92.8507 41.9378 93.0713 42.0276C93.2918 42.1175 93.5283 42.1614 93.7664 42.1566C93.7874 42.1566 93.8063 42.1566 93.8252 42.1566C93.9128 42.1547 93.9966 42.1203 94.0602 42.06C94.0602 42.1314 94.0602 42.2027 94.0602 42.2699C94.0833 43.0192 94.0791 43.8167 94.0267 44.566L93.9364 44.5199C93.8026 44.4533 93.6525 44.4263 93.5038 44.4419C93.3552 44.4575 93.214 44.5151 93.0969 44.608L84.1201 51.8112C84.1201 51.8112 82.1682 54.481 82.4411 59.09L80.8669 66.0015C80.8669 66.0015 78.9003 71.8657 80.4136 76.0529C81.9268 80.2401 82.8042 82.6348 82.8042 82.6348C82.8042 82.6348 83.4086 87.3929 84.3174 87.7812C85.2262 88.1695 85.6187 88.3794 85.6187 88.3794L85.7992 89.517C85.7992 89.517 85.8601 89.6282 85.9671 89.815C86.6282 90.9652 89.0776 95.0243 90.5006 94.5899C90.6798 95.6921 90.757 96.8085 90.7315 97.9249L92.1398 107.38C92.1398 107.38 93.1221 109.951 93.0612 111.299C93.0003 112.646 94.2072 114.567 94.2072 114.567C93.474 115.909 93.2589 117.473 93.6027 118.964C94.1778 121.482 94.904 133.085 94.904 133.085L95.9534 135.897L95.924 139.194C95.8379 139.732 95.6137 140.238 95.2734 140.664C94.5934 141.402 94.6437 142.257 93.0045 143.266C91.3653 144.276 90.3264 144.658 90.3264 145.995C90.3244 146.181 90.3076 146.367 90.276 146.551C90.1249 147.533 89.8311 148.066 92.845 148.352C96.3858 148.688 98.747 146.379 98.747 146.379C98.747 146.379 99.2675 145.434 101.719 145.052C101.719 145.052 102.558 145.008 102.603 144.267C102.619 144.011 102.615 143.522 102.603 142.983C102.563 141.957 102.464 140.758 102.334 140.699C102.17 140.626 101.885 139.593 101.786 139.22H102.468C102.468 139.22 103.098 134.462 102.468 131.38C101.839 128.299 102.407 126.114 102.407 126.114L102.286 117.977C102.286 117.977 101.446 117.079 102.105 115.492C102.764 113.906 102.105 106.068 102.105 106.068C102.105 106.068 102.349 103.256 103.043 102.597C103.738 101.938 103.077 98.4769 103.043 98.2964L104.282 102.45C104.282 102.45 104.825 110.707 105.977 112.201L106.309 115.941C106.309 115.941 108.668 119.383 108.215 121.237C107.761 123.09 108.7 129.794 108.7 129.794V136.646C108.7 136.646 107.64 139.398 109.119 140.387L109.749 140.361C109.539 140.557 109.378 140.85 109.132 141.104C108.849 141.396 108.687 142.506 108.597 143.461C108.521 144.269 108.496 144.964 108.496 144.964C108.496 144.964 109.126 145.972 110.312 146.041C111.497 146.11 115.405 149.082 115.405 149.082C115.405 149.082 119.265 149.082 120.264 148.872L120.323 148.858C120.644 148.757 120.913 148.537 121.077 148.243C121.277 147.902 121.341 147.498 121.257 147.111C121.133 146.522 120.665 145.875 119.628 145.325C117.049 143.965 116.665 142.691 116.665 142.691L114.971 140.149H115.212C115.212 140.149 115.063 137.457 116.906 134.434L116.787 121.121C116.787 121.121 117.542 116.544 116.243 114.059C116.243 114.059 116.136 111.427 117.005 110.619C117.874 109.811 115.848 101.644 115.848 101.644C115.848 101.644 115.429 97.2596 114.935 93.2592C116.978 95.1964 119.095 88.222 119.452 86.9816H119.505L119.481 86.8913C119.496 86.8325 119.505 86.8032 119.505 86.8032C119.505 86.8032 119.051 85.1912 119.383 85.5187C119.714 85.8461 120.533 84.6204 120.533 84.6204C120.533 84.6204 120.411 77.9481 121.834 74.5858C123.257 71.2234 121.202 63.0338 121.202 63.0338ZM115.116 67.2797L115.126 67.2608C115.336 71.3347 115.086 80.0281 115.086 80.0281C115.086 80.0281 114.805 81.1426 114.505 82.4543L114.295 74.1954L114.085 66.415L115.116 67.2797ZM89.0671 64.4715C89.0671 64.4715 90.0955 77.3353 89.0671 79.1907C88.7754 79.7196 88.5298 80.6598 88.3262 81.7323C87.9862 80.8403 87.2663 78.7457 87.5245 77.6354C87.8582 76.1998 86.8591 72.4282 86.8591 72.34C86.8591 72.2519 86.7689 70.2412 87.4888 68.7048C88.2087 67.1685 87.7364 66.5031 87.7364 66.5031C87.7364 66.5031 88.3409 63.9845 89.0671 64.4715Z" fill="url(#paint0_linear_1_524)"/>
<path d="M91.5731 93.4438C90.6769 97.3833 87.113 91.4268 86.3008 89.9975C86.1959 89.8107 86.1371 89.7016 86.1371 89.7016L86.5233 87.8903L88.5654 87.0507C88.8888 87.2197 89.1953 87.4193 89.4805 87.6468C90.5992 88.5262 92.2636 90.3921 91.5731 93.4438Z" fill="#D38884"/>
<path d="M119.221 86.9984C119.221 86.9984 119.221 87.0278 119.198 87.0865C119.198 87.1117 119.181 87.1453 119.171 87.181C118.82 88.4109 116.742 95.335 114.736 93.4124C112.541 91.3136 113.607 86.4611 113.607 86.4611H113.621L118.239 85.9888L119.154 86.9291L119.221 86.9984Z" fill="#D38884"/>
<path d="M116.549 121.073L116.667 134.296C114.856 137.297 115.005 139.963 115.005 139.963L109.035 140.198C107.579 139.218 108.616 136.487 108.616 136.487V129.678C108.616 129.678 107.694 123.027 108.139 121.184C108.584 119.342 106.269 115.937 106.269 115.937L105.942 112.224C104.813 110.74 104.277 102.544 104.277 102.544L103.066 98.4056C103.1 98.584 103.73 102.039 103.066 102.675C102.403 103.311 102.145 106.119 102.145 106.119C102.145 106.119 102.798 113.901 102.145 115.473C101.492 117.045 102.321 117.939 102.321 117.939L102.441 126.018C102.441 126.018 101.876 128.186 102.5 131.244C103.123 134.302 102.5 139.027 102.5 139.027H96.0961L96.1255 135.729L95.0886 132.938C95.0886 132.938 94.375 121.415 93.8104 118.92C93.4725 117.441 93.6828 115.89 94.4023 114.554C94.4023 114.554 93.2165 112.655 93.2752 111.318C93.334 109.981 92.3601 107.431 92.3601 107.431L90.9791 98.0467C91.0171 96.2407 90.7865 94.4391 90.2949 92.7009C89.4931 90.027 88.3052 86.5219 88.3052 86.5219L89.6463 86.6415L96.413 87.2439C96.413 87.2439 112.866 86.1378 113.603 87.0571C113.758 87.3577 113.863 87.6817 113.913 88.0163C114.652 91.3346 115.628 101.73 115.628 101.73C115.628 101.73 117.618 109.838 116.763 110.64C115.909 111.441 116.014 114.052 116.014 114.052C117.294 116.519 116.549 121.073 116.549 121.073Z" fill="#444053"/>
<path d="M102.64 144.041C102.594 144.777 101.774 144.821 101.774 144.821C99.3683 145.199 98.8561 146.135 98.8561 146.135C98.8561 146.135 96.5474 148.429 93.0654 148.096C90.1061 147.81 90.3936 147.283 90.5468 146.307C90.5766 146.126 90.5927 145.942 90.5951 145.758C90.5951 144.421 91.6193 144.041 93.2228 143.029C94.8264 142.017 94.7823 141.18 95.4497 140.445C96.1172 139.711 96.1864 138.286 96.1864 138.286C96.942 136.97 98.8582 138.496 98.8582 138.496C98.9485 138.961 101.797 138.896 101.797 138.896C101.797 138.896 102.174 140.412 102.37 140.5C102.498 140.559 102.594 141.747 102.632 142.767C102.653 143.302 102.657 143.787 102.64 144.041Z" fill="#B07473"/>
<path opacity="0.1" d="M102.64 144.041C102.594 144.777 101.774 144.822 101.774 144.822C99.3683 145.199 98.8561 146.135 98.8561 146.135C98.8561 146.135 96.5474 148.429 93.0654 148.096C90.1061 147.81 90.3936 147.283 90.5468 146.307C91.8691 146.635 94.3961 147.092 95.8716 146.291C97.9222 145.178 99.3934 144.402 99.3934 144.402L102.634 142.771C102.653 143.302 102.657 143.787 102.64 144.041Z" fill="black"/>
<path d="M120.768 148.005C120.61 148.297 120.345 148.516 120.029 148.616L119.973 148.631C118.992 148.841 115.204 148.841 115.204 148.841C115.204 148.841 111.374 145.879 110.215 145.812C109.056 145.745 108.433 144.742 108.433 144.742C108.433 144.742 108.456 144.053 108.53 143.252C108.62 142.303 108.777 141.201 109.056 140.911C109.569 140.376 109.686 139.652 110.838 140.11C110.838 140.11 112.484 137.209 114.423 139.451L116.43 142.494C116.43 142.494 116.807 143.753 119.349 145.119C120.365 145.665 120.818 146.307 120.946 146.893C121.027 147.273 120.964 147.67 120.768 148.005Z" fill="#B07473"/>
<path opacity="0.1" d="M120.768 148.005C120.541 148.196 120.292 148.402 120.029 148.616L119.973 148.631C118.992 148.841 115.204 148.841 115.204 148.841C115.204 148.841 111.374 145.879 110.215 145.812C109.056 145.745 108.433 144.742 108.433 144.742C108.433 144.742 108.456 144.053 108.53 143.251C109.709 143.604 111.495 144.227 111.974 144.899C112.708 145.921 114.94 147.348 114.94 147.348C114.94 147.348 119.099 146.948 120.946 146.893C121.027 147.273 120.964 147.67 120.768 148.005Z" fill="black"/>
<path d="M104.58 44.3666L99.1017 50.1573C99.1017 50.1573 92.463 49.6683 93.6216 47.708C94.2114 46.7089 94.3037 44.6185 94.2512 42.8009C94.203 41.0483 94.0225 39.5561 94.0225 39.5561C94.0225 39.5561 103.333 34.9218 102.628 39.2433C102.476 40.0576 102.467 40.8922 102.603 41.7095C102.999 43.8923 104.58 44.3666 104.58 44.3666Z" fill="#D38884"/>
<path opacity="0.1" d="M102.619 39.2433C102.467 40.0576 102.459 40.8922 102.594 41.7095C101.957 42.3548 101.198 42.867 100.362 43.2161C99.5251 43.5653 98.6273 43.7445 97.7206 43.7433C96.4613 43.7433 95.0992 42.7085 94.0812 42.1104C94.033 40.3557 94.0225 39.5561 94.0225 39.5561C94.0225 39.5561 103.333 34.9218 102.619 39.2433Z" fill="black"/>
<path d="M104.58 36.5253C104.58 38.0798 104.053 39.5885 103.084 40.8041C102.115 42.0198 100.762 42.8704 99.2465 43.2166C97.731 43.5628 96.1429 43.384 94.7423 42.7097C93.3416 42.0354 92.2115 40.9054 91.5369 39.5048C90.8624 38.1042 90.6835 36.5161 91.0296 35.0006C91.3756 33.485 92.226 32.1319 93.4415 31.1629C94.657 30.1938 96.1656 29.6663 97.7202 29.6666C99.2747 29.667 100.783 30.1952 101.998 31.1649C102.803 31.8073 103.453 32.6227 103.9 33.5507C104.347 34.4787 104.579 35.4953 104.58 36.5253V36.5253Z" fill="#D38884"/>
<path opacity="0.1" d="M113.913 88.0163C112.205 92.0817 101.215 92.1657 101.215 92.1657V87.7329L100.55 87.6889C100.837 88.9587 100.147 92.0544 100.147 92.0544C91.4618 93.2802 89.3441 88.3311 89.3441 88.3311L89.6464 86.6373L96.413 87.2397C96.413 87.2397 112.866 86.1336 113.603 87.0529C113.758 87.3547 113.863 87.6802 113.913 88.0163V88.0163Z" fill="black"/>
<path d="M101.215 91.6305V87.1977L100.55 87.1558C100.837 88.4151 100.147 91.5213 100.147 91.5213C93.6111 92.4427 90.7944 89.8696 89.8017 88.5389C89.6232 88.3097 89.4698 88.062 89.3441 87.8001L91.9971 72.8773L92.6267 50.915L93.5775 47.0616L93.7979 45.2125V45.1915H93.821L94.4968 45.4811L98.5412 47.2295L103.136 43.7601L103.203 43.7118L103.432 43.5376L103.811 43.8419L104.756 44.5996L107.785 64.1587C107.785 64.1587 113.032 79.2179 114.014 85.2962C114.054 85.5396 114.085 85.7663 114.11 85.9783C114.759 91.5276 101.215 91.6305 101.215 91.6305Z" fill="#345494"/>
<path d="M99.0325 48.0522C99.2481 48.0522 99.4229 47.8774 99.4229 47.6618C99.4229 47.4462 99.2481 47.2714 99.0325 47.2714C98.8169 47.2714 98.6421 47.4462 98.6421 47.6618C98.6421 47.8774 98.8169 48.0522 99.0325 48.0522Z" fill="#67647E"/>
<path d="M99.2129 51.616C99.4285 51.616 99.6033 51.4413 99.6033 51.2257C99.6033 51.01 99.4285 50.8353 99.2129 50.8353C98.9973 50.8353 98.8225 51.01 98.8225 51.2257C98.8225 51.4413 98.9973 51.616 99.2129 51.616Z" fill="#67647E"/>
<path d="M99.6033 57.3858C99.8189 57.3858 99.9937 57.211 99.9937 56.9954C99.9937 56.7798 99.8189 56.605 99.6033 56.605C99.3877 56.605 99.2129 56.7798 99.2129 56.9954C99.2129 57.211 99.3877 57.3858 99.6033 57.3858Z" fill="#67647E"/>
<path d="M100.248 63.6004C100.463 63.6004 100.638 63.4256 100.638 63.21C100.638 62.9944 100.463 62.8196 100.248 62.8196C100.032 62.8196 99.8573 62.9944 99.8573 63.21C99.8573 63.4256 100.032 63.6004 100.248 63.6004Z" fill="#67647E"/>
<path d="M100.638 69.4352C100.854 69.4352 101.028 69.2604 101.028 69.0448C101.028 68.8292 100.854 68.6544 100.638 68.6544C100.422 68.6544 100.248 68.8292 100.248 69.0448C100.248 69.2604 100.422 69.4352 100.638 69.4352Z" fill="#67647E"/>
<path d="M101.028 75.6499C101.244 75.6499 101.419 75.4751 101.419 75.2595C101.419 75.0439 101.244 74.8691 101.028 74.8691C100.813 74.8691 100.638 75.0439 100.638 75.2595C100.638 75.4751 100.813 75.6499 101.028 75.6499Z" fill="#67647E"/>
<path d="M100.873 81.7974C101.089 81.7974 101.263 81.6226 101.263 81.407C101.263 81.1914 101.089 81.0166 100.873 81.0166C100.657 81.0166 100.483 81.1914 100.483 81.407C100.483 81.6226 100.657 81.7974 100.873 81.7974Z" fill="#67647E"/>
<path opacity="0.1" d="M94.0581 75.0475C94.0581 75.0475 93.6216 80.7626 92.8198 82.4249C92.0181 84.0872 91.6613 88.7508 91.6613 88.7508L89.7996 88.5409C89.6211 88.3118 89.4677 88.0641 89.342 87.8022L91.995 72.8794L92.6246 50.9171L93.5775 47.0615L93.7979 45.2124L93.8231 45.2019C93.9271 45.1528 94.0409 45.1282 94.1559 45.13C94.2709 45.1319 94.3839 45.16 94.4863 45.2124L94.5745 45.2586C94.5479 45.3342 94.5227 45.4118 94.4989 45.4916C93.7727 47.7646 93.5019 51.9539 93.5019 51.9539C93.5019 51.9539 94.5514 59.6168 94.6605 63.1806C94.7696 66.7445 94.0581 75.0475 94.0581 75.0475Z" fill="black"/>
<path opacity="0.1" d="M89.4805 87.6531C89.4601 87.7009 89.4363 87.7472 89.4092 87.7916C88.6872 89.011 86.857 89.7855 86.3008 89.9975C86.1959 89.8107 86.1371 89.7016 86.1371 89.7016L86.5233 87.8903L88.5654 87.0507C88.8891 87.2217 89.1955 87.4234 89.4805 87.6531V87.6531Z" fill="black"/>
<path d="M84.5336 58.4876L82.8398 59.4972L81.2972 66.3583C81.2972 66.3583 79.3662 72.1784 80.8501 76.3362C82.334 80.494 83.1966 82.8741 83.1966 82.8741C83.1966 82.8741 83.7906 87.5965 84.6826 87.9826C85.5746 88.3688 85.9587 88.5766 85.9587 88.5766L86.1371 89.7058C86.1371 89.7058 88.555 88.8852 89.4092 87.439C90.2634 85.9929 88.7795 82.4018 88.7795 82.4018C88.7795 82.4018 87.5034 79.3417 87.8309 77.9166C88.1583 76.4915 87.176 72.7492 87.176 72.6695C87.176 72.5897 87.0879 70.5895 87.8057 69.0595C88.5235 67.5294 88.0449 66.8767 88.0449 66.8767L87.5979 62.5111L84.5336 58.4876Z" fill="#67647E"/>
<path opacity="0.1" d="M114.054 86.7318C114.054 86.7318 109.569 88.4234 108.143 86.9416C106.718 85.4599 106.865 78.5064 106.865 78.5064C106.865 78.5064 105.501 65.6762 104.638 63.5689C103.776 61.4617 104.219 46.2535 104.219 46.2535C104.219 46.2535 103.639 44.2869 103.134 43.7726C103.102 43.7396 103.066 43.7107 103.026 43.6866L103.201 43.7244L103.809 43.8545L104.754 44.6122L107.782 64.1713C107.782 64.1713 113.03 79.2305 114.012 85.3087L114.054 86.7318Z" fill="black"/>
<path opacity="0.1" d="M119.221 87.1768H119.171C118.606 87.2502 113.624 87.8526 113.603 86.8158C113.602 86.6959 113.608 86.576 113.622 86.4569L118.239 85.9846L119.154 86.9249C119.171 86.9858 119.183 87.0382 119.196 87.0802L119.221 87.1768Z" fill="black"/>
<path d="M114.44 51.6161L117.714 53.3245C117.714 53.3245 120.443 60.3892 120.879 63.4179C120.879 63.4179 122.9 71.532 121.509 74.8692C120.117 78.2063 120.233 84.8303 120.233 84.8303C120.233 84.8303 119.431 86.0476 119.104 85.7223C118.776 85.397 119.223 86.9984 119.223 86.9984C119.223 86.9984 113.626 87.7414 113.603 86.6416C113.58 85.5418 114.887 80.2863 114.887 80.2863C114.887 80.2863 115.244 67.7835 114.738 65.8232C114.232 63.8628 114.44 51.6161 114.44 51.6161Z" fill="#67647E"/>
<path opacity="0.1" d="M104.67 64.9332C104.67 64.9332 102.827 69.4457 102.233 69.7437C101.639 70.0418 102.353 71.2276 102.353 71.2276C102.353 71.2276 105.709 66.5367 104.67 64.9332Z" fill="black"/>
<path opacity="0.1" d="M103.57 49.1037C103.591 49.0177 101.373 51.2802 100.779 51.6223C100.185 51.9644 102.947 51.6013 103.57 49.1037Z" fill="black"/>
<path opacity="0.1" d="M97.3932 64.5764C97.3932 64.5764 94.0078 66.7655 94.4549 67.6323C94.9019 68.4992 97.3932 64.5764 97.3932 64.5764Z" fill="black"/>
<path opacity="0.1" d="M103.541 96.5313C103.541 96.5313 106.422 98.3846 110.906 98.84L103.541 96.5313Z" fill="black"/>
<path opacity="0.1" d="M96.6208 100.987C96.6208 100.987 99.2927 104.345 100.512 104.431C101.732 104.517 96.6208 100.987 96.6208 100.987Z" fill="black"/>
<path opacity="0.1" d="M100.363 114.147C100.243 114.206 98.8477 117.175 97.4247 117.266C96.0017 117.356 100.363 114.147 100.363 114.147Z" fill="black"/>
<path opacity="0.1" d="M112.746 120.653C112.746 120.653 115.395 120.059 115.985 121.959C115.985 121.952 115.806 121.358 112.746 120.653Z" fill="black"/>
<path opacity="0.1" d="M110.964 131.517C110.964 131.517 114.173 130.862 114.856 131.754C115.538 132.646 110.964 131.517 110.964 131.517Z" fill="black"/>
<path opacity="0.1" d="M101.887 133.036C101.887 133.066 98.621 133.691 98.7386 134.107C98.8561 134.522 102.223 134.464 102.342 133.809C102.364 133.728 102.369 133.644 102.358 133.561C102.346 133.479 102.318 133.399 102.276 133.327C102.234 133.255 102.177 133.193 102.111 133.143C102.044 133.093 101.968 133.057 101.887 133.036Z" fill="black"/>
<path opacity="0.1" d="M109.896 135.853C109.896 135.853 115.263 135.198 114.933 136.327C114.604 137.457 109.896 135.853 109.896 135.853Z" fill="black"/>
<path opacity="0.1" d="M81.8009 69.7437C81.8303 69.8319 85.3353 70.3083 85.8097 71.4375C85.8097 71.4375 82.3655 69.8319 81.8219 69.8319" fill="black"/>
<path opacity="0.1" d="M86.7311 78.9199C86.7311 78.9199 83.82 79.8413 84.0278 81.2286C84.2356 82.6159 83.7319 80.5863 86.7311 78.9199Z" fill="black"/>
<path opacity="0.1" d="M85.3752 85.9888C85.3752 85.9888 86.4352 84.5343 87.4447 84.8009C88.4542 85.0674 85.3752 85.9888 85.3752 85.9888Z" fill="black"/>
<path opacity="0.1" d="M101.998 31.1649C101.896 31.2638 101.782 31.3492 101.658 31.4188C100.818 31.9079 100.588 32.6613 100.189 33.5303C99.8173 34.3257 99.4081 35.1674 98.6588 35.6186C97.6912 36.2021 96.4172 35.988 95.4119 36.4959C94.9656 36.7283 94.5991 37.089 94.3597 37.5315C94.1203 37.9741 94.0189 38.4782 94.0686 38.9789C94.1325 39.3652 94.228 39.7457 94.3541 40.1164C94.5827 40.9192 94.686 41.7525 94.6605 42.5868C94.6626 42.6112 94.6626 42.6358 94.6605 42.6602C93.8003 42.2305 93.0401 41.6247 92.4292 40.8821C91.8184 40.1396 91.3704 39.2769 91.1145 38.35C90.8586 37.4232 90.8004 36.4529 90.9437 35.5021C91.087 34.5513 91.4286 33.6412 91.9464 32.831C92.4642 32.0208 93.1465 31.3284 93.9491 30.799C94.7518 30.2695 95.6568 29.9147 96.6054 29.7576C97.554 29.6005 98.525 29.6446 99.4555 29.887C100.386 30.1295 101.255 30.5648 102.006 31.1649H101.998Z" fill="black"/>
<path d="M101.82 29.0997C101.066 27.5172 99.4269 26.5139 97.7416 26.0249C96.455 25.6534 95.0572 25.5317 93.7811 25.9409C93.0528 26.1718 92.3916 26.5706 91.7095 26.9127C90.4376 27.5549 89.0398 28.0629 88.0827 29.1186C87.8581 29.3641 87.6629 29.679 87.7196 30.0043C87.7679 30.2457 87.9568 30.4241 88.0785 30.6465C88.3535 31.1293 88.2884 31.7358 88.0974 32.2606C87.9064 32.7853 87.6356 33.2722 87.5055 33.8116C87.3754 34.351 87.4258 34.9827 87.8245 35.3668C88.0029 35.5368 88.2317 35.6439 88.4248 35.7866C88.643 35.9751 88.8344 36.1926 88.9936 36.433L90.127 37.982C90.6594 38.6684 91.134 39.3978 91.5458 40.1627C91.827 40.7252 92.0453 41.3254 92.4231 41.8271C92.8009 42.3287 93.3886 42.7317 94.014 42.6771C94.0625 42.6783 94.1105 42.6681 94.1543 42.6474C94.198 42.6266 94.2363 42.5958 94.2659 42.5575C94.2891 42.5084 94.2999 42.4543 94.2974 42.4001C94.325 41.5688 94.2238 40.7383 93.9972 39.9381C93.8709 39.5674 93.7754 39.187 93.7118 38.8005C93.6635 38.3 93.7655 37.7965 94.0048 37.3542C94.244 36.912 94.6097 36.5511 95.0551 36.3176C96.0625 35.8097 97.3365 36.0238 98.302 35.4424C99.0534 34.989 99.4626 34.1474 99.832 33.3436C100.237 32.4746 100.462 31.7211 101.301 31.2321C102.141 30.7431 102.237 29.9329 101.82 29.0997Z" fill="#585268"/>
<path opacity="0.1" d="M98.7469 141.234C98.7469 141.234 99.7964 142.571 99.5235 143.333C99.2507 144.095 98.7469 141.234 98.7469 141.234Z" fill="black"/>
<path opacity="0.1" d="M112.946 144.58C112.946 144.58 113.179 142.788 114.113 142.771C115.047 142.754 115.093 142.674 115.806 142.949C116.52 143.224 117.19 143.65 116.975 143.713C116.761 143.776 115.748 142.689 114.707 143.245C114.057 143.601 113.463 144.051 112.946 144.58V144.58Z" fill="black"/>
<path opacity="0.1" d="M95.6155 49.4773L98.5539 47.4183C98.5539 47.4183 94.2555 44.8787 93.7434 45.2355C93.2313 45.5923 92.8787 48.8036 92.8787 48.8036L95.6155 49.4773Z" fill="black"/>
<path d="M95.6029 49.3451L98.5412 47.2463C98.5412 47.2463 94.2428 44.7067 93.7307 45.0635C93.2186 45.4203 92.866 48.8078 92.866 48.8078L95.6029 49.3451Z" fill="#E1E7EF"/>
<path d="M95.6029 49.3451L98.5412 47.2463C98.5412 47.2463 94.2428 44.7067 93.7307 45.0635C93.2186 45.4203 92.866 48.8078 92.866 48.8078L95.6029 49.3451Z" fill="#345494"/>
<path d="M94.2177 45.0802L94.1296 45.0361C93.9985 44.9692 93.8508 44.9418 93.7044 44.9571C93.558 44.9723 93.4192 45.0297 93.3047 45.1221L84.4896 52.2729C84.4896 52.2729 82.5733 54.9237 82.8399 59.4971L88.0387 66.862C88.0387 66.862 88.6327 64.3685 89.3442 64.8429C89.3442 64.8429 90.3537 77.6143 89.3442 79.455C88.3347 81.2957 87.8897 88.1862 87.8897 88.1862L91.3045 88.5724C91.3045 88.5724 91.6613 83.9088 92.4631 82.2465C93.2648 80.5842 93.7014 74.869 93.7014 74.869C93.7014 74.869 94.4234 66.566 94.3038 63.0022C94.1841 59.4384 93.1452 51.7755 93.1452 51.7755C93.1452 51.7755 93.4369 47.284 94.2177 45.0802Z" fill="#67647E"/>
<path opacity="0.1" d="M102.999 48.176L99.3368 46.8201C99.3368 46.8201 104 41.7116 104.584 44.545L102.999 48.176Z" fill="black"/>
<path d="M102.999 47.9976L99.3368 46.6417C99.3368 46.6417 104 41.5332 104.584 44.3666L102.999 47.9976Z" fill="#E1E7EF"/>
<path d="M102.999 47.9976L99.3368 46.6417C99.3368 46.6417 104 41.5332 104.584 44.3666L102.999 47.9976Z" fill="#345494"/>
<path opacity="0.1" d="M102.88 43.6509C102.932 43.6424 102.986 43.6544 103.031 43.6845L102.88 43.6509Z" fill="black"/>
<path d="M103.232 43.2962L112.95 45.3951C112.95 45.3951 115.624 45.9891 117.555 52.7012C119.486 59.4133 114.91 67.6365 114.91 67.6365L113.901 66.7781L114.406 86.3792C114.406 86.3792 109.921 88.0709 108.496 86.5891C107.071 85.1073 107.22 78.1475 107.22 78.1475C107.22 78.1475 105.854 65.3194 104.991 63.2101C104.128 61.1007 104.571 45.8967 104.571 45.8967C104.571 45.8967 103.778 43.1787 103.232 43.2962Z" fill="#67647E"/>
<path opacity="0.1" d="M112.123 55.7864C111.986 55.9123 111.827 61.8437 112.421 66.3583C112.784 69.1075 113.345 71.827 114.1 74.4955L113.219 56.4098C113.219 56.4098 112.538 55.4002 112.123 55.7864Z" fill="black"/>
<path opacity="0.1" d="M110.935 50.6779C111.172 50.8269 112.213 53.2909 111.737 54.3005C111.26 55.31 110.935 50.6779 110.935 50.6779Z" fill="black"/>
<path opacity="0.1" d="M101.763 29.0997C101.286 28.1602 100.543 27.3821 99.6264 26.8623C100.308 27.3503 100.858 27.9992 101.228 28.7513C101.648 29.5908 101.524 30.4303 100.707 30.89C99.8909 31.3496 99.6369 32.1325 99.2382 33.0014C98.8667 33.7969 98.4574 34.6385 97.706 35.1003C96.7405 35.6837 95.4665 35.4676 94.4591 35.9755C94.0139 36.2097 93.6485 36.5711 93.4093 37.0136C93.1701 37.4561 93.068 37.9598 93.1158 38.4605C93.1804 38.8462 93.2766 39.226 93.4034 39.596C93.6319 40.3988 93.7353 41.232 93.7098 42.0663C93.7117 42.1208 93.7002 42.1748 93.6762 42.2237C93.6473 42.2623 93.6094 42.2933 93.566 42.3141C93.5225 42.3349 93.4746 42.345 93.4265 42.3434C93.1746 42.3627 92.922 42.3156 92.694 42.2069C92.8591 42.3707 93.056 42.499 93.2726 42.5838C93.4892 42.6686 93.7208 42.7082 93.9533 42.7002C93.9911 42.7057 94.0297 42.7023 94.0661 42.6904C94.1024 42.6785 94.1355 42.6584 94.1627 42.6315C94.19 42.6047 94.2106 42.5719 94.2231 42.5358C94.2355 42.4996 94.2395 42.461 94.2345 42.4231C94.2617 41.5889 94.159 40.7555 93.9302 39.9528C93.8022 39.5825 93.706 39.2019 93.6426 38.8152C93.5944 38.3147 93.6964 37.8112 93.9356 37.3689C94.1749 36.9266 94.5405 36.5657 94.9859 36.3323C95.9933 35.8244 97.2673 36.0384 98.2328 35.4571C98.9842 35.0037 99.3935 34.1621 99.7629 33.3582C100.168 32.4893 100.393 31.7358 101.232 31.2468C102.072 30.7578 102.183 29.9329 101.763 29.0997Z" fill="black"/>
<path d="M161.553 55.4569C158.661 55.4002 156.108 53.3581 154.662 50.8625C154.283 50.2688 154.045 49.596 153.965 48.8959C153.975 48.7369 154.002 48.5793 154.045 48.4258C154.134 48.1916 154.204 47.9509 154.255 47.7059C154.267 47.6083 154.267 47.5097 154.255 47.412C154.255 47.412 154.255 47.412 154.255 47.3953C154.324 46.8643 154.012 46.3458 153.625 45.9827C153.239 45.6196 152.754 45.3531 152.351 44.9921C151.109 43.9007 150.731 42.1502 150.708 40.4838V40.3956C150.723 39.682 150.779 38.9663 150.773 38.2527C150.783 37.8476 150.765 37.4423 150.721 37.0396C150.601 36.03 150.217 35.0016 149.424 34.3572C147.354 32.6782 143.874 34.4265 141.731 32.8398C141.211 32.4515 140.789 31.8785 140.157 31.7274C139.681 31.612 139.185 31.7673 138.719 31.9226C137.141 32.4431 135.38 33.1273 134.763 34.6511C134.411 35.5263 134.509 36.5253 134.186 37.4111C133.976 38.005 133.575 38.5151 133.283 39.0775C133.044 39.501 132.928 39.983 132.948 40.4691C132.922 40.7207 132.957 40.9749 133.05 41.21C133.16 41.4933 133.337 41.746 133.565 41.9467C133.482 42.1219 133.379 42.2868 133.258 42.4378C132.855 42.931 132.236 43.2773 131.816 43.7685C131.04 44.6689 131.069 45.8925 131.451 46.9503C131.833 48.0081 132.524 48.9715 133 50.002C133.21 50.4491 133.369 50.9486 133.158 51.3936C133.008 51.7021 132.7 51.9372 132.461 52.2037C132.111 52.5962 131.891 53.0874 131.831 53.6099C127.107 54.6887 127.102 58.4855 127.102 58.4855L124.55 64.9038C124.55 64.9038 124.141 65.9847 123.66 67.4119L120.64 66.8704L122.739 70.3839C122.342 71.8153 122.061 73.1418 122.153 73.8092C122.153 73.8092 121.215 78.2168 122.884 78.987L126.565 80.643C126.725 80.7408 126.896 80.8177 127.075 80.8718L127.224 80.939C127.278 80.965 127.337 80.9785 127.396 80.9785C127.456 80.9785 127.515 80.965 127.568 80.939H127.579H127.619C127.69 80.9438 127.762 80.933 127.829 80.9075C127.911 80.8633 127.976 80.7932 128.013 80.7081C128.012 80.7011 128.012 80.694 128.013 80.6871L129.115 80.3681L130.049 81.4742C130.469 81.7701 130.889 82.0262 131.285 82.257L129.839 96.6173C129.839 96.6173 129.606 115.717 128.901 120.07C128.641 121.682 128.639 122.782 128.737 123.529L128.71 123.575C128.884 124.803 129.34 125.044 129.34 125.044V125.027C129.348 125.034 129.357 125.04 129.367 125.044C129.579 124.486 129.832 123.945 130.123 123.424C130.123 123.527 130.123 123.634 130.123 123.739C130.108 125.359 130.058 127.628 129.89 129.103C129.604 131.622 130.62 139.923 130.62 139.923L130.971 147.479C131.028 148.761 130.73 150.035 130.11 151.16C129.27 152.669 128.198 154.793 128.12 155.735C128.116 155.786 128.116 155.838 128.12 155.889V155.889L126.319 158.055C126.319 158.055 125.616 159.142 127.205 159.581C128.059 159.818 129.533 159.581 130.717 159.301C131.233 159.182 131.694 158.892 132.025 158.477C132.355 158.062 132.536 157.548 132.536 157.018C132.835 155.977 133.341 155.007 134.022 154.165L134.318 155.905L136.299 156.397L136.553 151.628C136.656 151.36 136.702 151.075 136.69 150.788V150.788C137.08 147.397 135.771 147.701 135.771 147.701C135.806 147.731 135.828 147.773 135.834 147.819L135.771 147.703C134.967 146.116 135.351 143.505 135.351 143.505C135.351 143.505 136.4 135.95 136.759 133.954C137.017 132.543 136.91 127.926 136.824 125.348C136.824 125.241 136.824 125.139 136.814 125.036C139.886 124.996 143.652 124.893 146.294 124.637V124.948L145.807 142.798C145.774 143.936 145.542 145.06 145.123 146.119C145.123 146.14 145.108 146.158 145.1 146.179C144.521 147.675 144.194 149.255 144.132 150.858L143.906 156.525V156.682C143.511 156.833 142.888 157.272 142.871 158.544C142.844 160.407 146.128 159.786 146.128 159.786C149.411 159.786 149.438 156.369 149.438 156.369C149.438 156.369 149.541 153.236 149.698 151.139C149.856 149.042 149.203 149.504 149.203 149.504L149.153 155.469C149.153 155.484 149.153 155.498 149.153 155.515V150.287L149.203 149.529V149.508V149.347L149.617 143.195C149.617 143.195 152.641 132.944 153.109 130.977C153.443 129.58 153.304 125.369 153.195 123.042C153.195 122.935 153.195 122.832 153.178 122.733C154.117 122.649 154.946 122.641 155.277 122.641H155.43C155.43 122.641 155.275 106.178 154.883 99.9734C154.49 93.7692 153.867 88.0918 152.303 86.3834C151.359 85.3507 150.043 82.1626 149.155 79.8014C151.021 80.6084 152.958 81.2407 154.941 81.6903C159.893 82.7272 159.215 78.4287 159.215 78.4287L158.713 70.2999H158.747C158.728 68.1706 158.546 66.0459 158.201 63.9446C157.939 62.3327 157.538 60.6662 156.925 59.3272C157.462 59.1173 157.993 58.8927 158.514 58.6618C159.859 58.0679 161.374 57.2262 161.567 55.7759H161.502C161.528 55.6712 161.545 55.5645 161.553 55.4569V55.4569ZM130.861 67.2104C130.872 68.05 130.84 69.5066 130.79 71.1164L129.218 69.0175L130.794 66.4611L130.861 67.2104ZM152.58 74.6487L149.961 73.8092C150.425 73.0845 150.968 72.4131 151.579 71.8069L151.806 71.597L151.724 71.6138L151.85 71.4984L151.925 71.4816L151.806 71.597L151.948 71.5676C152.106 72.2256 152.411 72.8392 152.84 73.3621C153.781 74.3885 152.582 74.6487 152.582 74.6487H152.58Z" fill="url(#paint1_linear_1_524)"/>
<path d="M136.669 150.205L136.362 156.015L134.408 155.526L133.997 153.11L136.669 150.205Z" fill="#A27772"/>
<path opacity="0.1" d="M136.669 150.205L136.362 156.015L134.408 155.526L133.997 153.11L136.669 150.205Z" fill="black"/>
<path d="M143.841 156.785L146.821 157.402L149.031 155.45V149.949L149.081 149.198V149.174V149.015L149.493 142.901C149.493 142.901 152.475 132.724 152.939 130.77C153.266 129.384 153.13 125.204 153.021 122.893C152.977 121.946 152.939 121.312 152.939 121.312L146.359 119.719L146.221 124.778L145.74 142.5C145.707 143.63 145.479 144.745 145.066 145.797L145.043 145.858C144.471 147.343 144.148 148.911 144.088 150.501L143.866 156.136V156.292L143.841 156.785Z" fill="#CC818C"/>
<path opacity="0.1" d="M143.841 156.785L146.821 157.402L149.031 155.45V154.982C149.024 155.086 148.991 155.186 148.936 155.274C148.881 155.361 148.804 155.434 148.714 155.486L148.683 155.505C147.656 156.047 146.493 156.277 145.337 156.166L144.174 156.067C144.068 156.077 143.964 156.102 143.866 156.143V156.298L143.841 156.785Z" fill="black"/>
<path d="M148.683 155.658L148.714 155.641C148.811 155.586 148.892 155.507 148.948 155.411C149.005 155.316 149.035 155.206 149.035 155.095L149.084 149.174C149.084 149.174 149.726 148.715 149.571 150.797C149.415 152.879 149.314 155.989 149.314 155.989C149.314 155.989 149.289 159.381 146.051 159.381C146.051 159.381 142.812 159.998 142.837 158.147C142.863 156.296 144.174 156.22 144.174 156.22L145.337 156.321C146.493 156.433 147.657 156.202 148.683 155.658Z" fill="#B07473"/>
<path d="M128.318 155.526C128.393 156.862 132.326 156.09 132.326 156.09L134.973 150.952C134.973 150.952 137.183 149.254 136.077 147.764C136.018 147.683 135.964 147.598 135.915 147.51C135.915 147.51 135.915 147.51 135.905 147.497C135.882 147.46 135.861 147.42 135.84 147.378C135.047 145.804 135.437 143.222 135.437 143.222C135.437 143.222 136.463 135.717 136.824 133.737C137.078 132.34 136.973 127.754 136.889 125.189C136.856 124.123 136.824 123.407 136.824 123.407L130.295 121.659C130.295 121.659 130.295 122.473 130.295 123.606C130.28 125.216 130.23 127.468 130.064 128.933C129.783 131.424 130.784 139.675 130.784 139.675L131.13 147.183C131.19 148.455 130.9 149.719 130.291 150.837C129.472 152.335 128.402 154.447 128.328 155.381C128.321 155.429 128.317 155.477 128.318 155.526V155.526Z" fill="#CC818C"/>
<path opacity="0.1" d="M128.318 155.525C128.393 156.862 132.326 156.09 132.326 156.09L134.973 150.952C134.973 150.952 137.183 149.254 136.077 147.764C136.018 147.683 135.964 147.598 135.915 147.51C135.88 148.289 135.026 150.239 135.026 150.239C135.026 150.239 132.841 154.61 132.146 155.612C131.451 156.613 128.433 155.425 128.32 155.383C128.315 155.43 128.315 155.478 128.318 155.525V155.525Z" fill="black"/>
<path d="M135.84 147.371C135.84 147.371 137.133 147.071 136.746 150.438C136.761 150.82 136.674 151.2 136.495 151.538C136.315 151.876 136.049 152.161 135.724 152.363C134.799 152.944 133.372 154.195 132.65 156.627C132.65 157.152 132.473 157.662 132.147 158.074C131.822 158.485 131.366 158.774 130.855 158.894C129.688 159.167 128.234 159.406 127.392 159.171C125.824 158.735 126.519 157.656 126.519 157.656L128.318 155.521C128.318 155.521 131.453 156.755 132.146 155.752C132.838 154.749 135.025 150.381 135.025 150.381C135.025 150.381 136.224 147.655 135.84 147.371Z" fill="#B07473"/>
<path opacity="0.1" d="M146.359 120.343L146.221 125.401C147.973 125.231 149.228 124.994 149.442 124.66C149.906 123.942 151.59 123.64 153.021 123.516C152.977 122.569 152.939 121.936 152.939 121.936L146.359 120.343Z" fill="black"/>
<path opacity="0.1" d="M130.295 124.221C130.462 123.879 130.709 123.581 131.015 123.352C131.707 122.968 131.632 125.821 131.632 125.821C131.632 125.821 133.94 125.842 136.889 125.804C136.856 124.738 136.824 124.02 136.824 124.02L130.295 122.274C130.295 122.274 130.307 123.084 130.295 124.221Z" fill="black"/>
<path d="M129.55 124.897C129.55 124.897 130.322 122.798 131.019 122.425C131.716 122.051 131.636 124.891 131.636 124.891C131.636 124.891 148.599 125.046 149.447 123.734C150.295 122.423 155.229 122.5 155.229 122.5C155.229 122.5 155.076 106.154 154.689 99.988C154.303 93.8216 153.688 88.1904 152.146 86.4946C151.149 85.3969 149.73 81.8456 148.853 79.4781C148.376 78.1852 148.059 77.2429 148.059 77.2429L131.869 78.1663L131.737 79.4781L130.018 96.6718C130.018 96.6718 129.787 115.639 129.092 119.956C128.397 124.274 129.55 124.897 129.55 124.897Z" fill="#444053"/>
<g opacity="0.1">
<path opacity="0.1" d="M148.129 123.734C148.968 122.425 153.911 122.5 153.911 122.5C153.911 122.5 153.758 106.154 153.371 99.988C152.985 93.8216 152.37 88.1904 150.828 86.4946C149.826 85.3927 148.412 81.8456 147.535 79.4781C147.134 78.3909 146.846 77.5535 146.766 77.3142L148.026 77.2429C148.026 77.2429 148.343 78.1852 148.821 79.4781C149.698 81.8456 151.115 85.3969 152.112 86.4946C153.655 88.1904 154.272 93.8195 154.656 99.988C155.04 106.157 155.197 122.5 155.197 122.5C155.197 122.5 150.263 122.425 149.413 123.734C148.689 124.853 136.207 124.905 132.584 124.895C137.233 124.884 147.474 124.746 148.129 123.734Z" fill="black"/>
<path opacity="0.1" d="M129.701 122.425C130.013 122.25 130.169 122.733 130.246 123.319C129.966 123.827 129.723 124.354 129.518 124.897C129.518 124.897 129.071 124.656 128.888 123.428C129.144 122.989 129.428 122.576 129.701 122.425Z" fill="black"/>
</g>
<path d="M134.553 37.6943C133.433 39.2223 134.566 41.3946 133.363 42.8806C132.967 43.3717 132.356 43.7201 131.942 44.2029C131.176 45.097 131.206 46.3122 131.581 47.3616C131.957 48.411 132.631 49.3681 133.109 50.3923C133.319 50.8352 133.474 51.3326 133.265 51.7734C133.118 52.0798 132.813 52.3128 132.576 52.5772C131.804 53.4399 131.783 54.6383 132.198 55.6541C132.614 56.67 133.407 57.5431 134.19 58.4036C134.499 58.7415 134.889 59.1151 135.403 59.1046C135.674 59.0841 135.935 58.9984 136.165 58.8549C137.946 57.9454 139.307 56.3841 139.965 54.4962C140.624 52.6082 140.529 50.5391 139.7 48.7196C139.049 47.1601 137.964 45.6657 137.953 44.0182C137.953 42.7106 138.625 41.4618 138.745 40.1605C138.89 38.578 137.953 36.0656 136.043 35.3751C136.169 36.391 135.122 36.9094 134.553 37.6943Z" fill="#585268"/>
<path opacity="0.1" d="M134.553 37.6943C133.433 39.2223 134.566 41.3946 133.363 42.8806C132.967 43.3717 132.356 43.7201 131.942 44.2029C131.176 45.097 131.206 46.3122 131.581 47.3616C131.957 48.411 132.631 49.3681 133.109 50.3923C133.319 50.8352 133.474 51.3326 133.265 51.7734C133.118 52.0798 132.813 52.3128 132.576 52.5772C131.804 53.4399 131.783 54.6383 132.198 55.6541C132.614 56.67 133.407 57.5431 134.19 58.4036C134.499 58.7415 134.889 59.1151 135.403 59.1046C135.674 59.0841 135.935 58.9984 136.165 58.8549C137.946 57.9454 139.307 56.3841 139.965 54.4962C140.624 52.6082 140.529 50.5391 139.7 48.7196C139.049 47.1601 137.964 45.6657 137.953 44.0182C137.953 42.7106 138.625 41.4618 138.745 40.1605C138.89 38.578 137.953 36.0656 136.043 35.3751C136.169 36.391 135.122 36.9094 134.553 37.6943Z" fill="black"/>
<path opacity="0.1" d="M146.983 93.2739C144.739 93.3915 142.627 94.3569 140.663 95.4483C138.698 96.5397 136.797 97.7759 134.683 98.5504" fill="black"/>
<path opacity="0.1" d="M145.589 98.5609C143.37 98.7725 141.301 99.7787 139.765 101.394C139.219 101.971 138.749 102.618 138.18 103.172C137.309 104.022 136.233 104.631 135.057 104.941" fill="black"/>
<path opacity="0.1" d="M146.049 102.584C144.259 103.081 142.639 104.058 141.364 105.409C141.02 105.781 140.707 106.178 140.363 106.549C138.505 108.543 135.882 109.601 133.349 110.602" fill="black"/>
<path d="M145.858 46.7866C145.907 48.5795 146.061 50.368 146.319 52.1429C146.529 53.4022 146.823 54.5356 147.245 55.0372C148.479 56.5064 141.232 58.4688 141.232 58.4688L136.952 55.1526C136.952 55.1526 140.344 52.0296 138.764 48.9841C137.183 45.9387 145.858 46.7866 145.858 46.7866Z" fill="#CC818C"/>
<path opacity="0.1" d="M131.732 79.4781H148.848C148.372 78.1852 148.055 77.2429 148.055 77.2429L131.865 78.1663L131.732 79.4781Z" fill="black"/>
<path d="M130.631 79.1696H148.93C148.416 77.329 148.93 75.6268 149.663 74.3171C150.176 73.3993 150.822 72.562 151.579 71.8321L151.705 71.7166L158.094 70.302L158.438 70.2265C158.438 70.2265 158.491 58.6094 154.377 57.0143C150.263 55.4191 147.797 53.2636 147.797 53.2636L142.145 55.0099L137.981 52.911C136.644 54.3487 133.097 53.7841 133.097 53.7841C127.289 54.4516 127.289 58.8214 127.289 58.8214C127.289 58.8214 130.681 66.7361 130.939 66.7361C131.197 66.7361 130.631 79.1696 130.631 79.1696Z" fill="#345494"/>
<path opacity="0.1" d="M136.948 71.7838C136.948 71.7838 133.216 70.9568 131.947 69.5107Z" fill="black"/>
<path opacity="0.1" d="M155.764 67.4497L151.436 70.9968C151.468 71.2791 151.515 71.5594 151.579 71.8363L151.705 71.7208L158.094 70.3062L155.764 67.4497Z" fill="black"/>
<path opacity="0.1" d="M144.046 77.9355C144.046 77.9355 144.993 78.4686 146.443 79.1697H148.93C148.416 77.329 148.93 75.6268 149.663 74.3171L145.278 72.8983C146.771 74.2857 144.046 77.9355 144.046 77.9355Z" fill="black"/>
<path d="M129.858 57.4277L127.289 58.8151L124.77 65.1893C124.77 65.1893 122.149 72.1784 122.405 74.0296C122.405 74.0296 121.482 78.3994 123.125 79.1696L127.407 81.109C127.482 81.1424 127.566 81.1514 127.647 81.1348C127.729 81.1183 127.802 81.0769 127.859 81.0165C127.915 80.9561 127.952 80.8796 127.963 80.7977C127.974 80.7157 127.959 80.6323 127.921 80.5591C127.31 79.4026 126.638 77.5934 127.711 76.5986L126.477 74.0296L130.937 66.7298L132.427 64.2112L129.858 57.4277Z" fill="#345494"/>
<path opacity="0.1" d="M135.573 70.325C135.796 71.2317 136.547 72.6338 139.034 73.1564L141.763 75.3917L144.665 76.7076L145.849 77.2428L146.351 73.6181L145.211 72.9885L143.883 72.2623C143.883 72.2623 140.885 66.8326 136.14 69.114C135.919 69.2185 135.742 69.3966 135.639 69.6176C135.535 69.8386 135.512 70.0888 135.573 70.325Z" fill="black"/>
<path d="M135.729 70.0166C135.951 70.9254 136.7 72.3253 139.187 72.8479L141.916 75.0832L144.821 76.3992L146.002 76.9344L146.504 73.3097L145.364 72.68L144.046 71.9601C144.046 71.9601 141.047 66.5304 136.302 68.8223C136.083 68.9252 135.907 69.1001 135.803 69.3176C135.698 69.5351 135.672 69.782 135.729 70.0166V70.0166Z" fill="#CC818C"/>
<path opacity="0.1" d="M141.076 51.488C144.738 51.488 147.707 48.5196 147.707 44.8578C147.707 41.196 144.738 38.2275 141.076 38.2275C137.415 38.2275 134.446 41.196 134.446 44.8578C134.446 48.5196 137.415 51.488 141.076 51.488Z" fill="black"/>
<path d="M141.076 51.3348C144.738 51.3348 147.707 48.3664 147.707 44.7046C147.707 41.0428 144.738 38.0743 141.076 38.0743C137.415 38.0743 134.446 41.0428 134.446 44.7046C134.446 48.3664 137.415 51.3348 141.076 51.3348Z" fill="#CC818C"/>
<path opacity="0.1" d="M145.184 58.8717L143.19 54.9973C143.19 54.9973 146.107 53.8177 146.319 52.4514C146.531 51.085 149.115 54.0528 148.557 55.0372C147.998 56.0215 145.184 58.8717 145.184 58.8717Z" fill="black"/>
<path d="M145.184 58.5632L143.19 54.6887C143.19 54.6887 146.107 53.5091 146.319 52.1428C146.531 50.7765 149.115 53.7463 148.557 54.7286C147.998 55.7108 145.184 58.5632 145.184 58.5632Z" fill="#345494"/>
<path d="M128.865 68.5726L139.882 83.3841C139.882 83.3841 135.821 85.5942 130.227 81.6379L127.812 78.7582L120.915 67.1328L128.865 68.5726Z" fill="#F6F8FB"/>
<path d="M126.697 76.6258L127.7 76.5985C127.7 76.5985 133.829 70.6504 135.334 73.6602C136.839 76.6699 131.516 79.4823 131.516 79.4823L129.898 80.3555L127.789 80.9851L126.439 79.1738L126.697 76.6258Z" fill="#CC818C"/>
<path opacity="0.1" d="M128.177 79.8391C128.269 80.1812 128.357 80.559 128.202 80.876C128.165 80.9607 128.101 81.0308 128.02 81.0753C127.953 81.1011 127.881 81.1111 127.81 81.1047C127.279 81.0595 126.785 80.8151 126.427 80.4205C126.075 80.0273 125.774 79.5915 125.53 79.1234C125.257 78.647 124.974 78.1202 125.071 77.5787C125.18 76.9889 125.7 76.5796 126.21 76.248C127.226 75.5764 127.26 76.3592 127.482 77.224C127.705 78.0887 127.944 78.966 128.177 79.8391Z" fill="black"/>
<path d="M128.024 79.8391C128.114 80.1812 128.204 80.559 128.049 80.876C128.012 80.9607 127.948 81.0308 127.866 81.0753C127.8 81.1009 127.728 81.111 127.656 81.1047C127.125 81.0606 126.631 80.8159 126.273 80.4205C125.92 80.0279 125.618 79.592 125.375 79.1234C125.102 78.647 124.819 78.1202 124.918 77.5787C125.025 76.9889 125.547 76.5796 126.055 76.248C127.073 75.5764 127.105 76.3592 127.329 77.224C127.554 78.0887 127.789 78.966 128.024 79.8391Z" fill="#6C63FF"/>
<path opacity="0.1" d="M130.939 66.7298L131.451 65.863L131.004 67.4728L130.939 66.7298Z" fill="black"/>
<path opacity="0.1" d="M144.829 76.3992L146.011 76.9344L146.512 73.3097L145.373 72.6801C146.16 73.5826 145.471 75.2511 144.829 76.3992Z" fill="black"/>
<path opacity="0.1" d="M149.573 72.1909C149.573 72.1909 145.757 72.4239 144.137 71.3829Z" fill="black"/>
<g opacity="0.1">
<path opacity="0.1" d="M149.098 74.6256C149.612 73.7072 150.257 72.8692 151.014 72.1385C151.196 72.0246 151.385 71.9223 151.579 71.8321L157.527 70.6105L157.871 70.535C157.871 70.535 157.924 58.9179 153.812 57.3228C151.506 56.4458 149.344 55.2282 147.398 53.7107L147.849 53.5721C147.849 53.5721 150.315 55.7298 154.429 57.3228C158.543 58.9158 158.488 70.535 158.488 70.535H157.871L151.785 71.6998C151.785 71.6998 151.522 71.9538 151.443 72.0273C150.679 72.7918 150.025 73.6577 149.497 74.6004C148.691 76.0958 148.508 77.8485 148.987 79.4782H148.357C147.849 77.6375 148.374 75.9353 149.098 74.6256Z" fill="black"/>
<path opacity="0.1" d="M132.853 54.12C132.952 54.1053 133.046 54.0906 133.149 54.0801C133.566 54.1393 133.987 54.1736 134.408 54.1829C133.889 54.1972 133.37 54.1762 132.853 54.12V54.12Z" fill="black"/>
<path opacity="0.1" d="M141.578 55.3184L137.813 53.4126C137.887 53.3514 137.958 53.2847 138.023 53.2133L141.952 55.2009L141.578 55.3184Z" fill="black"/>
</g>
<path d="M155.913 67.1328L158.432 70.2181L158.946 78.5966C158.946 78.5966 159.613 82.8615 154.731 81.833C149.85 80.8046 144.199 77.627 144.199 77.627C144.199 77.627 146.928 73.9771 145.434 72.5897L152.425 74.8523C152.425 74.8523 153.606 74.5941 152.681 73.5678C151.755 72.5415 151.592 70.6882 151.592 70.6882L155.913 67.1328Z" fill="#345494"/>
<path opacity="0.1" d="M157.051 75.9835L158.438 77.5765C158.081 77.4669 157.762 77.2596 157.517 76.9781C157.272 76.6966 157.11 76.3521 157.051 75.9835V75.9835Z" fill="black"/>
<path opacity="0.1" d="M154.685 75.7254L156.845 78.5001L155.766 78.7582L154.685 75.7254Z" fill="black"/>
<path opacity="0.1" d="M133.157 41.6612C132.92 41.0798 133.103 40.4019 133.388 39.8541C133.674 39.3063 134.066 38.7879 134.28 38.1981C134.597 37.3208 134.501 36.328 134.847 35.4696C135.458 33.9479 137.194 33.2679 138.749 32.7411C139.208 32.5879 139.697 32.4347 140.168 32.548C140.797 32.697 141.207 33.2679 141.721 33.652C143.832 35.2261 147.266 33.4925 149.308 35.159C150.089 35.7886 150.469 36.8192 150.586 37.8203C150.704 38.8215 150.586 39.8373 150.574 40.8468C150.54 42.6141 150.872 44.5471 152.194 45.7183C152.593 46.0709 153.063 46.3353 153.453 46.7005C153.844 47.0657 154.15 47.5757 154.083 48.1046C154.031 48.3475 153.961 48.5861 153.873 48.8183C153.611 49.7396 154.003 50.7072 154.482 51.5467C155.909 54.0171 158.425 56.053 161.278 56.1096C161.087 57.5494 159.599 58.3848 158.266 58.9746C156.587 59.728 154.799 60.4668 152.95 60.3724C151.1 60.2779 149.172 59.0942 148.848 57.2724C148.737 56.6427 148.752 55.8851 148.219 55.5576C147.891 55.3582 147.467 55.4086 147.115 55.2596C146.605 55.0497 146.353 54.4767 146.185 53.9499C145.841 52.8629 145.656 51.7318 145.637 50.5918C145.614 49.2401 145.792 47.7646 145.026 46.6522C144.317 45.6217 143.058 45.0991 142.239 44.1525C141.484 43.2752 140.663 42.2174 139.425 42.0537C137.712 41.8123 134.169 44.1399 133.157 41.6612Z" fill="black"/>
<path d="M133.157 41.3526C132.92 40.7712 133.103 40.0933 133.388 39.5455C133.674 38.9977 134.066 38.4793 134.28 37.8895C134.597 37.0122 134.501 36.0194 134.847 35.161C135.458 33.6373 137.194 32.9572 138.749 32.4325C139.208 32.2793 139.697 32.1261 140.168 32.2394C140.797 32.3884 141.207 32.9593 141.721 33.3434C143.832 34.9175 147.266 33.1839 149.308 34.8504C150.089 35.48 150.469 36.5106 150.586 37.5138C150.704 38.5171 150.586 39.5287 150.574 40.5382C150.54 42.3055 150.872 44.2385 152.194 45.4097C152.593 45.7623 153.063 46.0267 153.453 46.3919C153.844 46.7571 154.15 47.2671 154.083 47.796C154.031 48.0389 153.961 48.2775 153.873 48.5097C153.611 49.431 154.003 50.3986 154.482 51.2381C155.913 53.7001 158.419 55.7423 161.271 55.7989C161.08 57.2387 159.592 58.0741 158.26 58.666C156.581 59.4173 154.792 60.1561 152.943 60.0617C151.094 59.9672 149.165 58.7835 148.842 56.9617C148.731 56.332 148.746 55.5744 148.212 55.2469C147.885 55.0476 147.461 55.0979 147.108 54.9489C146.598 54.739 146.347 54.166 146.179 53.6392C145.834 52.5523 145.65 51.4211 145.631 50.2811C145.608 48.9294 145.786 47.4539 145.02 46.3416C144.311 45.311 143.051 44.7884 142.233 43.8418C141.477 42.9645 140.657 41.9067 139.418 41.743C137.712 41.5037 134.169 43.8355 133.157 41.3526Z" fill="#585268"/>
<path opacity="0.1" d="M137.863 58.3911L141.664 55.3058C141.664 55.3058 139.062 53.8954 138.751 52.6927C138.44 51.4901 136.358 53.2636 136.57 54.3424C136.782 55.4212 137.863 58.3911 137.863 58.3911Z" fill="black"/>
<path d="M138.012 57.9272L141.813 54.844C141.813 54.844 139.211 53.4336 138.913 52.2309C138.614 51.0283 136.52 52.8018 136.732 53.8806C136.944 54.9594 138.012 57.9272 138.012 57.9272Z" fill="#345494"/>
<path opacity="0.1" d="M141.962 57.7278C142.129 57.7278 142.264 57.5925 142.264 57.4256C142.264 57.2587 142.129 57.1234 141.962 57.1234C141.795 57.1234 141.66 57.2587 141.66 57.4256C141.66 57.5925 141.795 57.7278 141.962 57.7278Z" fill="black"/>
<path opacity="0.1" d="M141.962 59.4069C142.129 59.4069 142.264 59.2716 142.264 59.1047C142.264 58.9377 142.129 58.8024 141.962 58.8024C141.795 58.8024 141.66 58.9377 141.66 59.1047C141.66 59.2716 141.795 59.4069 141.962 59.4069Z" fill="black"/>
<path opacity="0.1" d="M141.962 61.084C142.129 61.084 142.264 60.9486 142.264 60.7817C142.264 60.6148 142.129 60.4795 141.962 60.4795C141.795 60.4795 141.66 60.6148 141.66 60.7817C141.66 60.9486 141.795 61.084 141.962 61.084Z" fill="black"/>
<g opacity="0.1">
<path opacity="0.1" d="M134.692 37.0668C134.992 36.242 134.927 35.3164 135.208 34.4852C135.078 34.669 134.97 34.8677 134.887 35.0771C134.539 35.9439 134.637 36.9367 134.318 37.8056L134.297 37.856C134.453 37.6056 134.585 37.3414 134.692 37.0668V37.0668Z" fill="black"/>
<path opacity="0.1" d="M158.671 57.8433C156.992 58.5947 155.204 59.3334 153.355 59.239C151.506 59.1446 149.577 57.9608 149.254 56.1411C149.142 55.5115 149.157 54.7517 148.624 54.4243C148.297 54.2249 147.873 54.2752 147.52 54.1262C147.01 53.9163 146.758 53.3433 146.59 52.8165C146.246 51.7296 146.061 50.5984 146.042 49.4584C146.019 48.1088 146.2 46.6333 145.434 45.5189C144.722 44.4883 143.463 43.9678 142.644 43.0191C141.889 42.1439 141.068 41.084 139.83 40.9203C138.132 40.6894 134.583 43.0191 133.579 40.5383C133.418 40.0695 133.442 39.557 133.644 39.1048C133.571 39.2286 133.5 39.3525 133.435 39.4784C133.149 40.0367 132.969 40.7062 133.206 41.2876C134.215 43.7642 137.758 41.4366 139.456 41.6696C140.694 41.8375 141.515 42.8974 142.271 43.7684C143.089 44.7171 144.349 45.2376 145.058 46.2702C145.826 47.3826 145.646 48.8581 145.669 50.2077C145.688 51.3477 145.872 52.4789 146.217 53.5658C146.384 54.0947 146.636 54.6614 147.146 54.8755C147.499 55.0245 147.923 54.9762 148.25 55.1735C148.792 55.501 148.777 56.267 148.88 56.8904C149.207 58.7101 151.134 59.8938 152.981 59.9883C154.828 60.0827 156.608 59.346 158.297 58.5926C159.515 58.0511 160.871 57.3018 161.236 56.0739C160.652 56.8715 159.62 57.4214 158.671 57.8433Z" fill="black"/>
</g>
<path d="M195.764 69.6892C191.321 67.1328 189.642 66.5032 189.633 66.5032L189.541 66.4381C189.057 66.0662 188.673 65.5802 188.422 65.0235C188.417 64.9221 188.417 64.8205 188.422 64.7192C188.421 64.7289 188.421 64.7388 188.422 64.7485C188.491 63.3948 189.455 62.1628 190.368 61.0882L192.704 58.3408C192.969 58.0689 193.174 57.7443 193.306 57.3879C193.353 57.1964 193.375 56.9995 193.369 56.8023C193.369 56.7226 193.369 56.6428 193.369 56.5631C193.357 55.8809 193.338 55.1967 193.312 54.5146C193.291 53.9185 193.138 53.1671 192.542 53.0454C192.232 52.9824 191.82 53.0937 191.656 52.8355C191.601 52.7259 191.587 52.6 191.617 52.4808C191.615 52.4906 191.615 52.5004 191.617 52.5102V52.4766C191.732 52.0161 191.806 51.5462 191.837 51.0725C191.85 50.8313 191.817 50.5899 191.74 50.361C191.396 49.3724 190.206 48.9652 189.155 48.7784C188.103 48.5916 186.924 48.4321 186.265 47.6094C186.088 47.3349 185.896 47.0707 185.689 46.8181C185.385 46.548 185.014 46.3646 184.615 46.2871C183.31 45.9656 181.935 46.0851 180.705 46.6271C180.197 46.8538 179.687 47.1602 179.129 47.1267C178.57 47.0931 178.054 46.6901 177.483 46.5935C176.56 46.4361 175.676 47.1141 175.22 47.9179C174.951 48.3946 174.806 48.9318 174.801 49.4795V49.5718C174.787 50.1611 175.003 50.7326 175.401 51.1669C175.8 51.5867 176.392 51.8637 176.557 52.4073C176.625 52.6277 176.608 52.867 176.669 53.0916C176.675 53.1194 176.684 53.1468 176.694 53.1734L176.664 53.2133C175.712 54.4323 175.194 55.9352 175.195 57.4823C175.206 58.9851 175.694 60.4457 176.588 61.653C177.483 62.8603 178.739 63.7518 180.174 64.1986C180.174 64.2679 180.174 64.3372 180.174 64.4085C180.174 65.2481 179.932 66.1233 179.208 66.7592L172.914 69.2736C172.914 69.2736 169.119 68.8224 167.751 74.3675C167.532 75.288 167.453 76.236 167.516 77.18C167.566 78.0195 167.451 79.4887 166.466 81.3924C164.911 84.4399 165.266 91.4353 168.447 92.1279C171.451 92.7828 172.626 92.5099 172.75 92.4785V92.6002C172.7 93.9141 172.223 105.235 170.492 106.604C170.013 106.984 170.101 107.233 170.492 107.412C170.492 107.412 170.492 107.485 170.481 107.622C170.429 108.461 170.162 111.609 169.012 113.398C167.667 115.475 167.807 127.46 167.807 127.46L166.89 134.525C166.89 134.525 167.455 138.888 166.89 139.65C166.384 140.328 165.713 156.47 165.572 159.971H165.513C165.235 159.989 164.966 160.075 164.729 160.221C164.492 160.368 164.294 160.57 164.153 160.81C163.41 162.017 160.808 164.248 160.808 164.248C160.243 165.05 158.155 165.818 157.051 166.179C156.905 166.227 156.765 166.289 156.631 166.364C156.218 166.589 155.886 166.939 155.682 167.363C155.61 167.489 155.563 167.628 155.546 167.772C155.528 167.917 155.541 168.063 155.582 168.203C155.863 168.893 161.733 169.38 163.219 168.685C164.386 168.142 169.012 167.426 170.933 167.145C171.281 167.101 171.605 166.942 171.854 166.694C172.103 166.445 172.261 166.121 172.305 165.772C172.323 165.652 172.317 165.529 172.287 165.411C172.257 165.293 172.203 165.182 172.129 165.086C171.762 164.63 171.575 163.386 171.499 162.567C171.655 162.504 171.801 162.417 171.932 162.311C171.771 159.795 172.128 157.273 172.981 154.9C174.396 151.16 174.82 144.234 174.467 139.732C174.467 139.732 178.78 121.17 182.176 119.438C182.228 119.505 183.876 121.619 184.086 128.165C184.296 134.814 186.701 139.178 186.701 139.178C186.701 139.178 185.639 150.467 186.701 154.692L185.314 161.356C185.211 161.27 185.146 161.203 185.146 161.203C185.146 161.203 185.188 161.388 185.245 161.684L185.215 161.826L185.276 161.839C185.433 162.678 185.666 164.125 185.57 164.987C185.515 165.472 185.379 166.137 185.287 166.79C185.14 167.816 185.1 168.811 185.639 169.03C186.525 169.386 191.726 169.869 192.607 168.727C192.806 168.495 192.935 168.211 192.98 167.909C193.025 167.606 192.985 167.297 192.863 167.017C192.8 166.859 192.714 166.712 192.607 166.58C192.607 166.58 191.226 164.324 191.617 162.733C191.653 162.578 191.657 162.416 191.628 162.259C191.599 162.102 191.539 161.953 191.451 161.82C191.512 161.039 191.827 157.425 192.641 154.357C193.527 151.024 195.392 143.715 194.02 138.911C193.968 138.722 193.909 138.538 193.843 138.357C193.051 135.734 192.787 132.98 193.065 130.253C192.555 127.926 192.555 125.516 193.065 123.189C193.915 119.31 194.509 115.501 194.509 115.501C194.509 115.501 194.977 110.375 194.568 107.233C194.568 107.166 194.549 107.099 194.54 107.023L194.763 106.973C194.763 106.973 193.56 101.64 193.136 98.2461C193.035 97.4443 192.905 96.4306 192.763 95.3476C193.154 95.2828 193.539 95.1866 193.915 95.06C197.733 93.7441 198.935 81.8373 198.935 81.8373V78.0594C198.935 78.0594 200.22 72.2519 195.764 69.6892ZM167.312 161.669C167.194 161.61 167.125 161.57 167.125 161.57L167.312 161.669Z" fill="url(#paint2_linear_1_524)"/>
<path d="M193.459 138.433C195.115 143.195 193.182 150.925 192.284 154.384C191.386 157.843 191.111 161.977 191.111 161.977C187.591 162.529 185.037 161.839 185.037 161.839L186.487 154.73C185.45 150.52 186.487 139.268 186.487 139.268C186.487 139.268 184.141 134.919 183.933 128.293C183.723 121.772 182.121 119.663 182.071 119.598C178.759 121.323 174.549 139.822 174.549 139.822C174.893 144.307 174.477 151.21 173.099 154.934C172.261 157.3 171.909 159.812 172.064 162.317C171.581 162.737 170.909 162.796 170.175 162.678C168.204 162.359 165.841 160.661 165.841 160.661C165.841 160.661 166.598 140.513 167.152 139.749C167.707 138.985 167.152 134.64 167.152 134.64L168.049 127.6C168.049 127.6 167.91 115.658 169.222 113.589C170.355 111.8 170.616 108.656 170.666 107.831C170.666 107.701 170.666 107.622 170.666 107.622L172.664 105.229C172.664 105.229 191.99 103.779 193.443 105.229C193.797 105.584 194.018 106.394 194.148 107.412C194.547 110.543 194.089 115.65 194.089 115.65C194.089 115.65 193.51 119.446 192.681 123.31C192.184 125.631 192.184 128.031 192.681 130.352C192.414 133.071 192.679 135.815 193.459 138.433V138.433Z" fill="#65617D"/>
<path d="M192.25 168.698C191.388 169.838 186.315 169.355 185.45 169C184.923 168.79 184.963 167.789 185.106 166.767C185.196 166.118 185.328 165.455 185.383 164.972C185.519 163.73 184.963 161.209 184.963 161.209C184.963 161.209 186.101 162.418 186.376 161.209C186.498 160.68 186.921 160.41 187.362 160.273C187.954 160.094 188.59 160.134 189.155 160.384C190.051 160.775 191.545 161.604 191.279 162.725C190.899 164.309 192.244 166.559 192.244 166.559C192.348 166.69 192.433 166.836 192.496 166.991C192.616 167.271 192.656 167.578 192.613 167.879C192.569 168.18 192.444 168.463 192.25 168.698V168.698Z" fill="#A27772"/>
<path opacity="0.1" d="M192.25 168.698C191.388 169.838 186.315 169.355 185.45 169C184.923 168.79 184.963 167.789 185.106 166.767C185.652 167.023 186.575 167.235 188.122 167.092C188.483 167.058 188.845 167.047 189.207 167.059C190.306 167.108 191.407 167.086 192.502 166.991C192.621 167.272 192.661 167.579 192.616 167.88C192.572 168.181 192.445 168.464 192.25 168.698V168.698Z" fill="black"/>
<path opacity="0.1" d="M174.547 139.814C174.891 144.299 174.475 151.202 173.096 154.925C172.259 157.292 171.907 159.803 172.062 162.309C171.579 162.729 170.907 162.787 170.173 162.67C170.592 159.759 172.364 147.216 173.499 137.305C174.794 126.02 180.845 118.256 180.845 118.256L182.052 119.585C178.757 121.314 174.547 139.814 174.547 139.814Z" fill="black"/>
<path d="M190.179 67.2692L189.339 71.4102L185.211 78.3468L180.121 76.1724C180.121 76.1724 173.195 68.9251 177.55 67.8904C178.071 67.7784 178.562 67.5597 178.994 67.2482C179.848 66.6038 180.117 65.6677 180.121 64.7505C180.089 63.7243 179.851 62.715 179.42 61.7828L188.324 58.9871C187.96 60.1571 187.748 61.369 187.694 62.5929C187.625 65.0192 188.533 66.2134 189.266 66.7906C189.536 67.0078 189.846 67.1704 190.179 67.2692V67.2692Z" fill="#FBBEBE"/>
<path opacity="0.1" d="M188.315 58.9871C187.951 60.1571 187.74 61.369 187.685 62.5929C187.523 62.7864 187.35 62.9707 187.167 63.1449C186.248 64.0229 185.108 64.6357 183.869 64.9183C182.629 65.201 181.337 65.143 180.127 64.7505C180.093 63.7239 179.853 62.7146 179.42 61.7828L188.315 58.9871Z" fill="black"/>
<path d="M189.337 57.8475C189.338 59.2403 188.925 60.6019 188.152 61.7601C187.378 62.9184 186.278 63.8213 184.992 64.3546C183.705 64.8878 182.289 65.0276 180.923 64.7561C179.557 64.4847 178.302 63.8142 177.317 62.8295C176.332 61.8448 175.661 60.5901 175.389 59.2241C175.118 57.8581 175.257 56.4421 175.79 55.1553C176.323 53.8685 177.225 52.7686 178.383 51.9948C179.541 51.221 180.903 50.8079 182.296 50.8079C183.221 50.8035 184.139 50.9825 184.995 51.3347C185.851 51.6869 186.629 52.2052 187.284 52.8597C187.939 53.5143 188.457 54.292 188.81 55.1481C189.162 56.0042 189.341 56.9217 189.337 57.8475V57.8475Z" fill="#FBBEBE"/>
<path opacity="0.1" d="M190.179 67.2693L189.339 71.4103L185.211 78.3469L180.121 76.1726C180.121 76.1726 173.195 68.9252 177.55 67.8905C178.071 67.7785 178.562 67.5598 178.994 67.2483C178.209 69.4059 181.45 73.8953 181.45 73.8953C181.828 74.4515 182.692 74.1052 182.692 74.1052C184.781 73.7883 188.624 67.7835 189.251 66.7844C189.525 67.0056 189.841 67.1703 190.179 67.2693Z" fill="black"/>
<path opacity="0.1" d="M194.165 107.416C192.939 107.695 186.157 109.196 183.586 108.82C180.757 108.4 175.256 108.132 175.256 108.132C175.256 108.132 171.753 108.32 170.674 107.827C170.674 107.697 170.674 107.617 170.674 107.617L172.672 105.225C172.672 105.225 191.999 103.774 193.451 105.225C193.814 105.588 194.034 106.398 194.165 107.416Z" fill="black"/>
<path d="M181.448 74.103C181.448 74.103 177.806 69.0657 179.179 67.0928L173.027 69.6114C173.027 69.6114 169.325 69.1623 167.99 74.6885C167.777 75.607 167.7 76.5517 167.761 77.4926C167.812 78.3321 167.698 79.8013 166.747 81.6903C165.23 84.7273 165.574 91.6997 168.68 92.3944C171.787 93.0891 172.889 92.7386 172.889 92.7386C172.889 92.7386 172.469 105.369 170.681 106.82C168.892 108.27 175.256 107.924 175.256 107.924C175.256 107.924 180.757 108.201 183.589 108.614C186.42 109.028 194.356 107.164 194.356 107.164C194.356 107.164 193.182 101.85 192.767 98.4684C192.351 95.0872 191.384 87.884 191.384 87.884L198.423 78.3468C198.423 78.3468 199.666 72.5834 195.317 70.0291C190.968 67.4748 189.333 66.8494 189.333 66.8494C189.333 66.8494 184.963 73.9644 182.686 74.3087C182.69 74.3087 181.826 74.6571 181.448 74.103Z" fill="#345494"/>
<path opacity="0.1" d="M173.371 76.1033C173.371 76.1033 173.304 78.3826 173.718 79.2788C174.131 80.175 175.651 85.1556 175.651 85.1556H172.198C172.198 85.1556 174.062 83.1533 173.925 82.1857C173.789 81.2182 173.371 76.1033 173.371 76.1033Z" fill="black"/>
<path d="M183.589 93.2906C183.589 93.2906 175.966 91.4269 175.256 89.8401C174.547 88.2534 172.589 84.7001 172.589 84.7001L173.392 83.6171L177.099 86.5261C177.099 86.5261 181.506 90.0458 183.589 90.3921C185.671 90.7384 183.589 93.2906 183.589 93.2906Z" fill="#FBBEBE"/>
<path opacity="0.05" d="M183.589 93.2906C183.589 93.2906 175.966 91.4269 175.256 89.8401C174.547 88.2534 172.589 84.7001 172.589 84.7001L173.392 83.6171L177.099 86.5261C177.099 86.5261 181.506 90.0458 183.589 90.3921C185.671 90.7384 183.589 93.2906 183.589 93.2906Z" fill="black"/>
<path d="M190.179 84.3181V88.4528H189.516C186.231 88.4522 183.001 89.2887 180.13 90.8833L178.883 91.5738L178.549 91.7606L176.408 86.9333L178.411 85.1388H178.513C179.002 85.187 181.12 85.3633 182.019 85.0611C182.871 84.7715 183.928 83.8543 186.439 84.4944C187.675 84.8113 188.733 86.1966 189.931 85.7642L190.179 84.3181Z" fill="#FBBEBE"/>
<path opacity="0.1" d="M196.841 76.7874L198.22 78.3405V82.1037C198.22 82.1037 197.046 93.9748 193.321 95.2866C189.595 96.5984 182.94 94.5268 182.94 94.5268C182.94 94.5268 181.221 89.9723 182.025 89.6995C182.829 89.4266 189.129 87.7601 189.129 87.7601C189.129 87.7601 189.041 80.7962 190.42 78.7246C190.42 78.7246 189.524 72.2371 192.63 72.0986C195.737 71.96 196.841 76.7874 196.841 76.7874Z" fill="black"/>
<path d="M197.05 76.7874L198.431 78.3405V82.1037C198.431 82.1037 197.258 93.9748 193.531 95.2866C189.803 96.5984 183.15 94.5268 183.15 94.5268C183.15 94.5268 181.431 89.9723 182.237 89.6995C183.043 89.4266 189.341 87.7601 189.341 87.7601C189.341 87.7601 189.251 80.7962 190.632 78.7246C190.632 78.7246 189.734 72.2371 192.84 72.0986C195.946 71.96 197.05 76.7874 197.05 76.7874Z" fill="#345494"/>
<path opacity="0.1" d="M187.406 60.8362C187.466 60.3817 187.412 59.9194 187.249 59.4909C187.054 59.0711 186.598 58.7542 186.153 58.8612C185.564 58.9997 185.314 59.7679 184.73 59.9526C184.241 60.1079 183.708 59.7616 183.471 59.3062C183.234 58.8507 183.232 58.3155 183.232 57.8034C183.232 57.2283 183.232 56.6511 183.232 56.074C183.232 55.4443 183.211 54.7685 182.825 54.2752C182.344 53.6624 181.213 53.3937 180.457 53.4189C179.954 53.4246 179.472 53.6185 179.105 53.9625C178.702 54.3067 178.234 54.5586 177.684 54.4683C177.455 54.4341 177.24 54.3354 177.065 54.1838C176.89 54.0322 176.761 53.8339 176.694 53.612V53.591C177.279 52.8124 178.02 52.1639 178.869 51.6864C179.719 51.2089 180.658 50.9129 181.627 50.8171C182.597 50.7213 183.576 50.8277 184.502 51.1297C185.428 51.4317 186.281 51.9227 187.008 52.5715C187.735 53.2204 188.319 54.0131 188.724 54.8993C189.128 55.7856 189.344 56.7462 189.358 57.7203C189.373 58.6944 189.184 59.6608 188.806 60.5585C188.427 61.4561 187.866 62.2654 187.159 62.9351C187.28 62.2406 187.363 61.5399 187.406 60.8362V60.8362Z" fill="black"/>
<path d="M177.684 54.2648C177.455 54.2296 177.24 54.1303 177.065 53.9785C176.889 53.8266 176.76 53.6283 176.692 53.4064C176.635 53.1839 176.65 52.9467 176.585 52.7263C176.423 52.1827 175.844 51.9015 175.455 51.488C174.679 50.6632 174.729 49.3073 175.279 48.3146C175.724 47.5149 176.585 46.8454 177.487 46.9965C178.045 47.0931 178.537 47.4897 179.095 47.5275C179.653 47.5653 180.144 47.2568 180.633 47.0301C181.832 46.4857 183.181 46.3658 184.457 46.6901C184.849 46.7687 185.212 46.9523 185.507 47.2211C185.707 47.4734 185.894 47.7361 186.067 48.0081C186.709 48.8267 187.862 48.9883 188.888 49.173C189.914 49.3577 191.075 49.7649 191.407 50.7513C191.631 51.4062 191.407 52.1156 191.285 52.7956C191.245 52.9344 191.254 53.083 191.312 53.2154C191.474 53.4798 191.875 53.3686 192.177 53.4253C192.758 53.5491 192.907 54.2984 192.93 54.8945C192.954 55.5745 192.972 56.2552 192.985 56.9366C193.002 57.1901 192.981 57.4447 192.924 57.6922C192.798 58.0469 192.599 58.3709 192.339 58.643L190.059 61.382C189.048 62.5951 187.975 64.0097 188.17 65.5797C187.692 65.7895 187.121 65.3803 186.966 64.8786C186.81 64.377 186.934 63.8292 187.041 63.3234C187.227 62.4342 187.349 61.5329 187.406 60.6264C187.466 60.1725 187.412 59.711 187.249 59.2831C187.054 58.8634 186.598 58.5464 186.153 58.6535C185.561 58.792 185.314 59.5602 184.73 59.7449C184.241 59.9002 183.708 59.5539 183.471 59.0984C183.234 58.643 183.232 58.1099 183.232 57.5978V55.8662C183.232 55.2366 183.211 54.5607 182.825 54.0675C182.344 53.4546 181.213 53.186 180.457 53.2112C179.955 53.2174 179.474 53.4113 179.107 53.7548C178.702 54.1011 178.234 54.355 177.684 54.2648Z" fill="#7C5C5C"/>
<path opacity="0.1" d="M179.273 75.9311L181.435 84.8113C181.435 84.8113 183.139 84.8008 179.273 75.9311Z" fill="black"/>
<path opacity="0.1" d="M186.659 74.4472C186.659 74.4472 183.83 79.0814 184.934 83.8752L185.461 83.913C185.461 83.913 184.52 81.6945 186.659 74.4472Z" fill="black"/>
<path opacity="0.1" d="M188.445 100.676C188.445 100.676 191.921 99.5262 192.173 102.194C192.181 102.194 191.526 100.366 188.445 100.676Z" fill="black"/>
<path opacity="0.1" d="M178.411 85.3528C178.411 85.3528 177.72 90.1801 178.963 92.1174C178.963 92.1174 176.444 93.1521 172.889 92.9464L172.469 85.3528H178.411Z" fill="black"/>
<path opacity="0.1" d="M178.883 91.5738L178.549 91.7606L176.408 86.9332L178.411 85.1387H178.513C178.482 85.378 177.924 89.5274 178.883 91.5738Z" fill="black"/>
<path d="M178.411 85.1471C178.411 85.1471 177.72 89.9744 178.963 91.9096C178.963 91.9096 176.444 92.9464 172.889 92.7386L170.473 85.1471H178.411Z" fill="#345494"/>
<path d="M172.442 165.759C172.401 166.104 172.248 166.425 172.005 166.673C171.762 166.921 171.444 167.081 171.1 167.128C169.226 167.407 164.711 168.121 163.572 168.664C162.122 169.355 156.394 168.874 156.117 168.182C156.077 168.042 156.065 167.896 156.082 167.752C156.099 167.608 156.144 167.468 156.215 167.342C156.412 166.922 156.736 166.573 157.141 166.347C157.275 166.273 157.415 166.211 157.561 166.162C158.64 165.804 160.678 165.04 161.227 164.238C161.227 164.238 163.769 162.015 164.493 160.815C164.629 160.578 164.822 160.379 165.053 160.235C165.284 160.091 165.548 160.006 165.82 159.988C166.424 159.96 167.098 160.265 167.375 161.589C167.375 161.589 170.685 163.478 171.573 161.822C171.573 161.822 171.711 164.366 172.261 165.063C172.336 165.161 172.391 165.273 172.422 165.393C172.453 165.512 172.46 165.637 172.442 165.759V165.759Z" fill="#A27772"/>
<path opacity="0.1" d="M172.442 165.76C172.401 166.104 172.248 166.426 172.005 166.673C171.762 166.921 171.444 167.081 171.1 167.128C169.226 167.407 164.711 168.121 163.572 168.664C162.122 169.355 156.394 168.874 156.117 168.182C156.077 168.042 156.065 167.896 156.082 167.752C156.099 167.608 156.144 167.469 156.215 167.342C156.412 166.922 156.736 166.574 157.141 166.347C158.075 166.977 160.149 167.573 164.709 166.861C169.06 166.181 171.216 165.516 172.265 165.063C172.34 165.161 172.394 165.274 172.424 165.393C172.454 165.513 172.46 165.638 172.442 165.76V165.76Z" fill="black"/>
<g opacity="0.1">
<path opacity="0.1" d="M191.275 52.8922V52.8586C191.373 52.3423 191.522 51.8092 191.484 51.2908C191.44 51.7145 191.37 52.135 191.275 52.5501C191.249 52.6626 191.249 52.7796 191.275 52.8922V52.8922Z" fill="black"/>
<path opacity="0.1" d="M187.247 59.3524C187.357 59.6011 187.415 59.8697 187.417 60.1416C187.448 59.7667 187.39 59.3898 187.247 59.0418C187.054 58.622 186.598 58.3051 186.153 58.4121C185.561 58.5507 185.314 59.3188 184.728 59.5035C184.241 59.6588 183.708 59.3125 183.469 58.8571C183.23 58.4016 183.23 57.8664 183.23 57.3543C183.23 56.7771 183.23 56.2021 183.23 55.6249C183.23 54.9952 183.209 54.3194 182.822 53.8262C182.34 53.2112 181.211 52.9446 180.455 52.9677C179.952 52.9742 179.47 53.1689 179.103 53.5134C178.698 53.8576 178.232 54.1095 177.68 54.0193C177.451 53.9843 177.237 53.8854 177.062 53.7339C176.886 53.5824 176.757 53.3845 176.69 53.1629C176.633 52.9404 176.648 52.7012 176.583 52.4808C176.421 51.9393 175.842 51.656 175.453 51.2446C175.089 50.8407 174.883 50.3191 174.872 49.7754C174.843 50.0943 174.88 50.4158 174.98 50.72C175.08 51.0243 175.241 51.3049 175.453 51.5447C175.842 51.9645 176.421 52.2394 176.583 52.7809C176.648 52.9908 176.633 53.2406 176.69 53.4631C176.757 53.6846 176.886 53.8825 177.062 54.034C177.237 54.1855 177.451 54.2844 177.68 54.3194C178.232 54.4096 178.698 54.1578 179.103 53.8136C179.47 53.469 179.952 53.2743 180.455 53.2679C181.211 53.2448 182.344 53.5113 182.822 54.1263C183.209 54.6195 183.228 55.2975 183.23 55.925C183.23 56.5022 183.23 57.0773 183.23 57.6544C183.23 58.1666 183.23 58.7039 183.469 59.1551C183.708 59.6064 184.235 59.959 184.728 59.8037C185.308 59.619 185.568 58.8508 186.153 58.7123C186.598 58.6157 187.054 58.9473 187.247 59.3524Z" fill="black"/>
<path opacity="0.1" d="M192.92 57.453C192.794 57.8073 192.593 58.1307 192.332 58.4016L190.053 61.1406C189.094 62.2929 188.08 63.6278 188.164 65.0991C188.233 63.7495 189.174 62.5217 190.053 61.4513L192.332 58.7123C192.593 58.4413 192.794 58.1179 192.92 57.7636C192.977 57.5153 192.998 57.2601 192.981 57.0059C192.978 57.1568 192.957 57.3067 192.92 57.453V57.453Z" fill="black"/>
<path opacity="0.1" d="M186.976 64.6372C186.939 64.5172 186.915 64.3932 186.907 64.2678C186.888 64.4968 186.911 64.7274 186.976 64.9478C187.131 65.4474 187.7 65.8608 188.181 65.6468C188.167 65.5465 188.159 65.4456 188.156 65.3445C187.677 65.5355 187.123 65.1283 186.976 64.6372Z" fill="black"/>
</g>
<path opacity="0.1" d="M164.034 161.446C164.034 161.446 164.756 162.706 167.371 161.597Z" fill="black"/>
<path opacity="0.1" d="M186.136 161.753C186.136 161.753 188.391 164.408 191.232 162.624Z" fill="black"/>
<path opacity="0.1" d="M192.697 130.356C192.697 130.356 191.104 131.351 191.054 131.92C191.004 132.489 191.877 131.5 191.877 131.5L192.697 130.356Z" fill="black"/>
<path opacity="0.1" d="M193.327 137.988C192.773 138.449 192.085 138.717 191.365 138.754C190.173 138.806 190.273 140.359 191.052 139.893C191.831 139.427 193.327 137.988 193.327 137.988Z" fill="black"/>
<path opacity="0.1" d="M193.629 138.985C193.629 138.985 192.865 142.739 192.244 142.015Z" fill="black"/>
<path d="M46.0346 167.126C46.0346 167.126 50.8304 168.442 53.1391 166.691C55.4479 164.941 56.449 165.503 56.449 165.503C56.449 165.503 61.9543 165.199 62.4076 163.898C62.861 162.596 60.2962 157.87 60.2962 157.87C60.1136 157.45 59.847 156.917 59.7274 156.917L59.7526 154.923L60.5502 146.58C62.3908 141.86 60.5837 135.761 60.5837 135.761L60.2542 134.247C60.0691 133.397 60.1794 132.508 60.5669 131.729L63.9104 125.013C64.0893 124.569 64.2997 124.138 64.5401 123.724C64.7499 123.34 65.0291 122.865 65.3796 122.297C65.4824 122.133 65.5895 121.963 65.707 121.784C66.1121 121.155 66.6032 120.441 67.1972 119.618C68.6769 117.568 69.4555 115.001 69.8585 113.112L70.0369 113.704H70.0474H70.0768L70.1251 113.714H70.1922H70.2048L70.2909 113.729H70.3224L71.3508 126.818C71.4138 131.922 73.288 134.747 73.288 134.747L73.0299 146.016C73.3825 148.729 72.6101 152.348 72.2554 153.792L71.4452 155.62C71.1262 155.779 70.8508 156.014 70.6428 156.304C70.4347 156.593 70.3003 156.929 70.251 157.282C70.0915 158.632 68.6706 161.541 68.6706 161.541C68.1207 162.238 66.9264 164.12 66.9264 164.12C66.9264 164.12 66.3639 165.938 66.7124 166.618C67.0608 167.298 69.974 167.229 69.974 167.229C73.3006 167.965 75.8507 166.179 75.6891 164.949C75.5275 163.719 76.2075 163.407 76.2075 163.407C77.5298 162.987 77.4018 162.091 77.4018 162.091C77.6864 160.242 77.3334 158.352 76.4006 156.73L76.1907 157.215C76.134 156.245 76.2695 155.272 76.5895 154.354L76.4678 154.438L76.43 154.461H76.4174C76.6273 152.621 78.5603 149.214 78.5603 149.214C82.1116 142.985 80.8208 134.543 80.8208 134.543L80.2709 131.911L80.2394 130.919C80.1642 128.549 80.3436 126.177 80.7746 123.846C80.9656 122.813 81.1629 121.566 81.314 120.191C81.633 117.287 82.6615 114.29 83.1358 113.02L83.2764 112.995H83.2932C83.4863 112.961 83.6815 112.927 83.8788 112.89H83.9166C83.9166 112.89 84.0299 112.277 84.1265 111.234C84.1831 110.568 84.2293 109.725 84.2293 108.755C84.2435 105.827 83.7966 102.915 82.9049 100.127L83.012 99.9733C83.012 99.9733 83.2659 99.6291 83.7298 99.033C84.5819 97.95 85.9084 96.3045 87.5434 94.4492C90.4713 91.1099 89.6107 87.7329 89.6107 87.7329C89.6107 87.7329 87.4909 79.965 86.5464 75.3014C86.007 72.6443 84.9954 70.8372 84.2209 69.771C84.3955 69.0358 84.494 68.2847 84.5147 67.5294C84.5777 66.1484 84.5294 64.7086 83.9082 63.4681C83.2869 62.2277 81.9646 61.2476 80.5836 61.4134C80.3877 61.4606 80.1834 61.4606 79.9875 61.4134C79.8261 61.3402 79.6896 61.2212 79.5951 61.0713C78.787 59.9568 78.7345 58.4582 78.9864 57.1066C79.2383 55.7549 79.7546 54.462 79.9854 53.1062C80.2163 51.7503 80.1114 50.2454 79.2487 49.1708C78.235 47.9115 76.4678 47.5568 75.1497 46.6102C74.2241 45.9449 73.5294 44.9899 72.5534 44.4002C71.5775 43.8104 70.6645 44.035 69.6046 44.2574C67.8226 44.6331 66.1289 44.8052 64.4435 45.5713C62.7369 46.3441 61.2063 47.4576 59.9457 48.8434C59.4982 49.2901 59.1555 49.8306 58.9424 50.4259C58.5227 51.8133 59.3433 53.2909 59.1712 54.7265C59.0495 55.7444 58.4492 56.6301 57.9728 57.5389C57.4963 58.4477 57.1332 59.5265 57.5068 60.4773C58.0945 61.9633 60.0108 62.2781 61.4044 63.0694C61.5906 63.1605 61.7498 63.2987 61.8661 63.4702C62.2103 64.0705 61.5072 64.6939 61.0644 65.227C60.8109 65.538 60.6315 65.9026 60.5397 66.2932C59.9628 66.53 59.4529 66.905 59.0551 67.3851C58.6573 67.8653 58.3836 68.436 58.2582 69.0469C57.786 71.1604 58.5122 73.828 59.1523 75.5911C58.4534 79.518 59.3622 81.0669 60.0317 81.6609C60.7095 82.2415 61.1292 83.0673 61.1987 83.957V84.0305C61.2428 84.7441 61.3183 85.4556 61.4191 86.165C61.396 85.9992 61.3729 85.8229 61.3603 85.7453C60.8125 86.759 59.7694 89.349 59.1817 93.7062C59.0594 94.64 58.8821 95.5658 58.6507 96.4787C58.2303 98.0954 58.08 99.7705 58.2057 101.436L58.3107 102.849C58.2075 102.851 58.1066 102.818 58.0252 102.754L58.7619 104.104V106.381C58.7611 107.408 58.5719 108.426 58.2036 109.385C58.1512 109.523 58.0945 109.662 58.0336 109.804C57.8443 110.188 57.759 110.614 57.786 111.041C56.2014 113.469 52.5683 127.078 52.5683 127.078C50.5974 131.54 52.7299 134.424 52.7299 134.424C52.7299 134.424 53.7625 146.847 53.9556 147.489C54.1487 148.131 54.5768 155.704 54.5768 155.704C54.5768 155.903 54.5768 156.111 54.5768 156.306C54.4623 156.256 54.3416 156.222 54.2179 156.203C52.4906 156.107 52.0226 158.835 52.0226 158.835L48.4881 162.21C48.4881 162.21 46.8741 161.937 44.5003 163.719C42.1265 165.501 46.0346 167.126 46.0346 167.126ZM81.3266 95.3265L81.3161 95.2887L81.2196 95.3454L81.1797 95.3685L81.1608 95.381L79.5321 89.6323C79.0961 88.0911 79.055 86.4649 79.4125 84.9036L80.6718 79.3879V78.0614L84.6743 88.7277C84.9303 90.1654 82.5523 93.6474 81.3266 95.3265Z" fill="url(#paint3_linear_1_524)"/>
<path d="M83.0833 112.678C83.0833 112.678 81.4672 116.609 81.0558 120.38C80.9068 121.74 80.7137 122.97 80.5248 123.99C80.1055 126.293 79.9324 128.634 80.0085 130.973L80.04 131.953L80.5647 134.55C80.5647 134.55 81.824 142.888 78.3462 149.032C78.3462 149.032 76.2852 152.711 76.2222 154.453L74.8265 154.992L72.0056 154.201C72.0056 154.201 73.3678 149.317 72.9249 145.894L73.1789 134.77C73.1789 134.77 71.3466 131.987 71.2836 126.95L70.2069 113.127L83.0833 112.678Z" fill="#FDC2CC"/>
<path d="M70.2069 110.709C70.2069 110.709 69.8606 116.099 67.1951 119.814C64.5295 123.529 63.9628 125.141 63.9628 125.141L60.6803 131.777C60.3002 132.546 60.1914 133.421 60.3717 134.26L60.6949 135.754C60.6949 135.754 62.4706 141.778 60.6635 146.44L59.8071 155.444H54.7993C54.7993 155.444 54.3795 147.961 54.1969 147.327C54.0143 146.694 52.9922 134.424 52.9922 134.424C52.9922 134.424 50.8934 131.569 52.8327 127.164C52.8327 127.164 57.2088 110.677 58.3799 110.963C59.5511 111.248 70.2069 110.709 70.2069 110.709Z" fill="#FDC2CC"/>
<g opacity="0.1">
<path opacity="0.1" d="M60.187 135.765L59.8659 134.271C59.6806 133.429 59.7887 132.549 60.1723 131.777L63.4549 125.134C63.4549 125.134 64.0237 123.518 66.6871 119.807C69.2456 116.239 69.6675 111.127 69.6969 110.734L70.2069 110.709C70.2069 110.709 69.8606 116.099 67.195 119.814C64.5295 123.529 63.9628 125.141 63.9628 125.141L60.6802 131.777C60.3001 132.546 60.1914 133.421 60.3717 134.26L60.6949 135.754C60.6949 135.754 62.4705 141.778 60.6634 146.44L59.8071 155.444H59.2992L60.1555 146.44C61.9626 141.778 60.187 135.765 60.187 135.765Z" fill="black"/>
</g>
<path opacity="0.1" d="M75.7226 154.459C75.7856 152.717 77.8467 149.038 77.8467 149.038C81.3349 142.888 80.0651 134.556 80.0651 134.556L79.5278 131.958L79.4964 130.977C79.4203 128.638 79.5933 126.297 80.0127 123.995C80.1995 122.975 80.3926 121.745 80.5416 120.385C80.9383 116.754 82.4515 112.976 82.5628 112.699L83.0833 112.678C83.0833 112.678 81.4672 116.609 81.0558 120.38C80.9068 121.74 80.7137 122.97 80.5248 123.99C80.1055 126.293 79.9324 128.634 80.0085 130.973L80.04 131.953L80.5647 134.55C80.5647 134.55 81.824 142.888 78.3462 149.032C78.3462 149.032 76.2851 152.711 76.2222 154.453L74.8264 154.992L74.5326 154.911L75.7226 154.459Z" fill="black"/>
<path d="M74.1066 154.396C74.4845 154.546 74.894 154.598 75.2974 154.548C75.7008 154.499 76.0852 154.348 76.4153 154.111C75.9534 155.459 75.8878 156.912 76.2264 158.296C76.7973 160.58 70.8995 156.457 70.8995 156.457L72.1588 153.58C72.1588 153.58 72.6479 154.491 74.1066 154.396Z" fill="#D39999"/>
<path opacity="0.1" d="M74.5452 154.524C74.8696 154.59 75.2041 154.586 75.527 154.514C75.8499 154.442 76.154 154.302 76.4194 154.105C75.9575 155.453 75.892 156.905 76.2306 158.29C76.8014 160.573 70.9037 156.451 70.9037 156.451L72.163 153.574C72.163 153.574 72.5282 154.275 73.6007 154.384C73.926 154.422 74.2367 154.466 74.5452 154.524Z" fill="black"/>
<path d="M60.7264 101.058H63.1905V87.0781L61.3414 86.7465L60.7264 101.058Z" fill="#FDC2CC"/>
<path opacity="0.05" d="M60.7264 101.058H63.1905V87.0781L61.3414 86.7465L60.7264 101.058Z" fill="black"/>
<path d="M72.7109 155.475C72.7109 155.475 74.264 155.379 74.9608 156.774L75.8172 157.44L76.2369 156.457C77.148 158.063 77.4897 159.929 77.2066 161.753C77.2066 161.753 77.3325 162.639 76.0334 163.052C76.0334 163.052 75.368 163.369 75.5254 164.574C75.6828 165.778 73.181 167.554 69.9152 166.824C69.9152 166.824 67.0608 166.889 66.7124 166.221C66.364 165.554 66.9349 163.78 66.9349 163.78C66.9349 163.78 68.1081 161.921 68.6454 161.234C68.6454 161.234 70.0412 158.359 70.2007 157.037C70.3602 155.714 71.886 154.745 72.7109 155.475Z" fill="#7E5659"/>
<path d="M59.8554 156.648L59.8806 154.678C59.8806 154.678 57.0451 155.494 54.749 154.571C54.749 154.571 54.9421 156.552 54.623 156.823C54.304 157.093 55.685 159.643 55.685 159.643L57.2277 161.26L59.8806 160.294L60.6005 158.027C60.6005 158.027 60.0443 156.648 59.8554 156.648Z" fill="#D39999"/>
<path opacity="0.1" d="M59.8554 156.648L59.8806 154.678C59.8806 154.678 57.0451 155.494 54.749 154.571C54.749 154.571 54.9421 156.552 54.623 156.823C54.304 157.093 55.685 159.643 55.685 159.643L57.2277 161.26L59.8806 160.294L60.6005 158.027C60.6005 158.027 60.0443 156.648 59.8554 156.648Z" fill="black"/>
<path d="M54.4488 155.935C54.4488 155.935 55.9558 156.109 55.7648 158.034C55.5738 159.958 55.8446 158.034 55.8446 158.034C55.8446 158.034 57.446 158.682 58.0169 159.587C58.5878 160.491 59.6183 158.779 59.6959 158.288C59.7736 157.796 60.4158 157.593 60.4158 157.593C60.4158 157.593 62.9345 162.263 62.4895 163.547C62.0445 164.832 56.6379 165.128 56.6379 165.128C56.6379 165.128 55.6536 164.574 53.3868 166.301C51.1201 168.028 46.4124 166.721 46.4124 166.721C46.4124 166.721 42.5757 165.119 44.9075 163.363C47.2393 161.606 48.8218 161.872 48.8218 161.872L52.2933 158.527C52.2933 158.527 52.753 155.838 54.4488 155.935Z" fill="#7E5659"/>
<path d="M72.4464 45.5335C73.4056 46.1149 74.0877 47.0594 74.9965 47.7163C76.2894 48.6503 78.0251 48.9987 79.02 50.2454C79.8595 51.3074 79.9686 52.7913 79.742 54.1304C79.5153 55.4694 79.0074 56.7476 78.7618 58.0825C78.5162 59.4174 78.5666 60.897 79.36 61.9968C79.4521 62.1447 79.5857 62.2622 79.7441 62.3348C79.9365 62.3808 80.1372 62.3808 80.3296 62.3348C81.6855 62.171 82.9868 63.1407 83.5954 64.3643C84.2041 65.588 84.2524 67.011 84.1894 68.3752C84.1369 69.4939 84.011 70.6357 83.5199 71.6431C82.6803 73.3558 80.9341 74.4136 79.211 75.2237C78.0909 75.7503 76.9425 76.2142 75.771 76.6132C74.965 76.886 74.115 77.1316 73.2775 76.9889C71.844 76.7412 70.8282 75.4378 69.4681 74.9278C68.3536 74.508 67.1174 74.6592 65.9316 74.7641C64.9199 74.8522 63.7635 74.8502 63.0667 74.1114C62.1726 73.1627 62.5755 71.6326 63.0331 70.4111C62.5485 70.3804 62.0818 70.2163 61.6846 69.937C61.2874 69.6577 60.9751 69.2741 60.7823 68.8285C60.5894 68.3828 60.5235 67.8926 60.5918 67.4118C60.6601 66.9311 60.86 66.4786 61.1693 66.1043C61.6017 65.5775 62.2922 64.9625 61.9543 64.3685C61.8408 64.1991 61.6843 64.063 61.5009 63.974C60.1346 63.1932 58.2519 62.8805 57.6768 61.4155C57.3074 60.4731 57.6642 59.4069 58.1323 58.5107C58.6003 57.6145 59.1817 56.7371 59.3097 55.7339C59.4776 54.3151 58.6801 52.8564 59.0852 51.4879C59.2946 50.9002 59.6306 50.3657 60.0695 49.9222C61.3033 48.5565 62.8032 47.4573 64.4771 46.6921C66.1331 45.9344 67.7933 45.7644 69.5437 45.395C70.5931 45.1725 71.462 44.9374 72.4464 45.5335Z" fill="#865A61"/>
<path d="M63.1884 66.6626C63.1884 66.6626 59.1733 66.4527 58.4135 69.8759C57.6538 73.2991 60.0611 78.202 60.0611 78.202L63.1884 66.6626Z" fill="#FDC2CC"/>
<path opacity="0.05" d="M63.1884 66.6626C63.1884 66.6626 59.1733 66.4527 58.4135 69.8759C57.6538 73.2991 60.0611 78.202 60.0611 78.202L63.1884 66.6626Z" fill="black"/>
<path d="M60.6257 76.8504L62.1474 78.0552L69.2478 78.3721L73.6805 75.3288L78.1888 67.5924C75.4331 66.8893 74.3186 64.9857 73.903 63.2058C73.6386 62.0013 73.6087 60.7571 73.8149 59.5413C73.8149 59.5413 66.5864 55.799 67.4743 61.6401C67.596 62.357 67.6186 63.0873 67.5414 63.8103C67.1217 67.2314 63.8013 66.5871 63.8013 66.5871L62.5273 68.5516L61.0686 73.3789L60.6257 76.8504Z" fill="#FDC2CC"/>
<path opacity="0.1" d="M67.4805 61.6317C67.6022 62.3486 67.6248 63.0788 67.5476 63.8019C68.5675 64.2678 69.6917 64.4579 70.808 64.3533C71.9243 64.2487 72.9937 63.853 73.9092 63.2058C73.6448 62.0013 73.6149 60.7571 73.8211 59.5412C73.8211 59.5412 66.5927 55.799 67.4805 61.6317Z" fill="black"/>
<path d="M70.2111 64.1272C73.7477 64.1272 76.6146 61.2602 76.6146 57.7236C76.6146 54.187 73.7477 51.3201 70.2111 51.3201C66.6745 51.3201 63.8075 54.187 63.8075 57.7236C63.8075 61.2602 66.6745 64.1272 70.2111 64.1272Z" fill="#FDC2CC"/>
<path d="M65.6819 75.629C65.8372 75.629 65.9904 75.652 66.1436 75.6667C66.9832 75.7507 70.4903 75.9396 72.4884 73.5532C74.7237 70.8835 77.6998 67.5862 77.8216 67.4519L80.8502 68.367C80.8502 68.367 78.4533 67.5148 76.8624 71.9728C76.5133 72.9078 76.4766 73.9308 76.7577 74.8885C77.0388 75.8462 77.6227 76.687 78.4219 77.2849C79.0102 77.7112 79.6877 77.9983 80.4032 78.1245C80.4041 78.1261 80.4046 78.1279 80.4046 78.1297C80.4046 78.1316 80.4041 78.1334 80.4032 78.135V80.0911L79.1648 85.5481C78.813 87.0901 78.8534 88.6957 79.2824 90.218L81.1713 96.8944C80.8859 97.0917 69.166 105.063 61.3373 99.5579C61.3667 99.3186 62.3342 91.4836 61.6626 87.649C61.4901 86.6685 61.3731 85.6791 61.3121 84.6855C61.3121 84.6603 61.3121 84.6372 61.3121 84.612C61.2428 83.7347 60.8303 82.9202 60.164 82.3453C59.4588 81.7156 58.5038 80.0365 59.4483 75.5996C59.6869 74.5007 60.0386 73.4295 60.4977 72.403L63.1234 66.4696L65.5433 66.5179V66.5347C65.3335 66.7949 62.5273 70.3 62.223 72.5584C61.9249 74.7055 61.5576 75.3645 65.6819 75.629Z" fill="#345494"/>
<path d="M82.8882 69.4101C82.8882 69.4101 85.2557 71.4396 86.1854 76.0466C87.1152 80.6536 89.1868 88.306 89.1868 88.306C89.1868 88.306 90.0263 91.6452 87.1572 94.9425C84.2881 98.2398 82.3802 100.819 82.3802 100.819L80.4913 103.602C80.1692 104.077 79.686 104.418 79.1312 104.564C78.2707 104.79 76.9484 104.954 75.8025 104.326C75.3854 104.093 75.069 103.714 74.9141 103.262C74.7591 102.81 74.7765 102.317 74.9629 101.877L75.3827 100.905C75.3827 100.905 71.4935 103.357 71.1556 102.003C70.8177 100.649 75.6786 99.2976 75.6786 99.2976C75.6786 99.2976 79.6937 98.6218 80.506 96.7202C80.506 96.7202 84.817 91.1814 84.4791 89.2798L80.315 78.1203C80.315 78.1203 75.1077 77.4318 76.8834 71.5824C78.659 65.7329 82.8882 69.4101 82.8882 69.4101Z" fill="#FDC2CC"/>
<path d="M57.9896 111.513C57.9896 111.513 67.5015 113.414 69.7431 113.16L69.9845 113.964C69.9845 113.964 73.5945 114.772 81.7569 113.477C82.29 113.393 82.8434 113.299 83.4171 113.194L83.6081 113.16C83.6081 113.16 83.7193 112.556 83.8075 111.525C84.0026 109.185 84.0719 104.654 82.4243 100.015L81.0517 95.7883C81.0517 95.7883 72.5681 100.874 66.9516 100.406C66.45 100.364 65.9526 100.324 65.451 100.307C64.2987 100.263 62.5126 100.307 61.3519 99.3774L58.9173 99.7971V106.723C58.9164 107.736 58.73 108.741 58.3674 109.687C58.3149 109.825 58.2603 109.962 58.1995 110.107C57.9761 110.539 57.9023 111.034 57.9896 111.513Z" fill="#65617D"/>
<path opacity="0.1" d="M69.9823 111.809V113.964C69.9823 113.964 74.138 114.894 83.6059 113.16C83.6059 113.16 83.7171 112.556 83.8053 111.525C80.9005 111.991 72.8892 113.112 69.9823 111.809Z" fill="black"/>
<path opacity="0.1" d="M57.9896 111.513C57.9896 111.513 67.5015 113.414 69.7431 113.16L69.9844 113.964V111.809C68.9014 112.258 61.1693 110.394 58.3673 109.695C58.3149 109.834 58.2603 109.97 58.1994 110.115C57.9779 110.545 57.9041 111.036 57.9896 111.513V111.513Z" fill="black"/>
<path d="M81.0496 109.11L81.7548 113.484C82.2879 113.4 82.8413 113.305 83.415 113.2C83.1946 111.922 82.7139 109.003 82.8462 108.518L81.9584 107.758L81.0496 109.11Z" fill="#65617D"/>
<path opacity="0.1" d="M81.1482 109.015L81.8534 113.391C82.3865 113.306 82.9399 113.211 83.5136 113.108C83.2932 111.83 82.8126 108.91 82.9448 108.425L82.057 107.663L81.1482 109.015Z" fill="black"/>
<g opacity="0.05">
<path opacity="0.05" d="M66.4416 100.404C65.9421 100.362 65.4425 100.322 64.9409 100.305C63.8201 100.263 62.1096 100.305 60.9426 99.4466L61.3498 99.3752C62.5168 100.301 64.2882 100.261 65.4488 100.305C65.9505 100.322 66.4479 100.362 66.9495 100.404C67.1132 100.418 67.2811 100.427 67.4511 100.431C67.1144 100.44 66.7774 100.431 66.4416 100.404V100.404Z" fill="black"/>
<path opacity="0.05" d="M81.2469 113.477C81.78 113.393 82.3334 113.3 82.907 113.196L83.1001 113.16C83.1001 113.16 83.2114 112.556 83.2974 111.525C83.4947 109.185 83.564 104.654 81.9143 100.015L80.6214 96.0275C80.8964 95.8722 81.0412 95.782 81.0412 95.782L82.4138 100.009C84.0614 104.647 83.9921 109.179 83.797 111.519C83.7088 112.55 83.5976 113.154 83.5976 113.154L83.4066 113.19C82.8343 113.293 82.2809 113.387 81.7464 113.471C77.9328 114.076 75.1161 114.222 73.1936 114.206C75.8925 114.165 78.5844 113.921 81.2469 113.477V113.477Z" fill="black"/>
<path opacity="0.05" d="M69.231 113.16V113.183H68.9581C69.0617 113.176 69.1526 113.169 69.231 113.16Z" fill="black"/>
</g>
<path d="M82.2312 109.926C82.4294 109.926 82.5901 109.595 82.5901 109.187C82.5901 108.779 82.4294 108.448 82.2312 108.448C82.033 108.448 81.8723 108.779 81.8723 109.187C81.8723 109.595 82.033 109.926 82.2312 109.926Z" fill="#D39999"/>
<path d="M59.3244 94.2267C59.9037 89.9241 60.9258 87.3677 61.4652 86.3666C61.4862 86.503 61.5408 86.9459 61.566 87.0823C61.6751 87.7119 61.5786 88.5053 61.6122 89.305L61.0749 99.0352L61.7948 102.079C62.4706 104.488 59.9667 102.584 59.9667 102.584C59.4483 103.726 58.4975 103.6 58.4975 103.6L58.3673 101.854C58.2441 100.209 58.3916 98.5547 58.8039 96.9573C59.0315 96.0583 59.2053 95.1465 59.3244 94.2267V94.2267Z" fill="#FDC2CC"/>
<path opacity="0.05" d="M59.3244 94.2267C59.9037 89.9241 60.9258 87.3677 61.4652 86.3666C61.4862 86.503 61.5408 86.9459 61.566 87.0823C61.6751 87.7119 61.5786 88.5053 61.6122 89.305L61.0749 99.0352L61.7948 102.079C62.4706 104.488 59.9667 102.584 59.9667 102.584C59.4483 103.726 58.4975 103.6 58.4975 103.6L58.3673 101.854C58.2441 100.209 58.3916 98.5547 58.8039 96.9573C59.0315 96.0583 59.2053 95.1465 59.3244 94.2267V94.2267Z" fill="black"/>
<path d="M83.4149 99.4759C82.9595 100.066 82.7097 100.404 82.7097 100.404L80.8208 103.185C80.4993 103.66 80.0158 104.001 79.4607 104.146C78.6002 104.373 77.2779 104.538 76.1319 103.909C75.7147 103.676 75.3981 103.298 75.2431 102.846C75.0881 102.394 75.1056 101.901 75.2924 101.461L75.7122 100.488C75.7122 100.488 71.823 102.939 71.4851 101.587C71.1472 100.236 76.0081 98.882 76.0081 98.882C76.0081 98.882 80.0232 98.2061 80.8354 96.3025C80.8354 96.3025 81.186 95.8533 81.675 95.1649" fill="#FDC2CC"/>
<path d="M81.0495 104.137C81.0495 104.137 76.4509 103.69 74.9943 101.061L74.3269 103.233C74.3269 103.233 79.1542 106.566 80.2561 106.133L81.0495 104.137Z" fill="#65617D"/>
<path opacity="0.1" d="M80.8858 104.116C80.8858 104.116 76.2893 103.669 74.8306 101.037L74.1653 103.203C74.1653 103.203 78.9926 106.536 80.0924 106.104L80.8858 104.116Z" fill="black"/>
<path d="M60.1178 102.91C60.1178 102.91 58.508 103.48 58.191 103.164L58.9151 104.496L60.2836 103.447L60.1178 102.91Z" fill="#65617D"/>
<path opacity="0.1" d="M60.1178 102.91C60.1178 102.91 58.508 103.48 58.191 103.164L58.9151 104.496L60.2836 103.447L60.1178 102.91Z" fill="black"/>
<path opacity="0.1" d="M69.9823 111.809V109.028L69.3212 111.876L69.9823 111.809Z" fill="black"/>
<path opacity="0.1" d="M76.5034 54.3424C76.1151 54.8881 75.4414 55.1652 74.7781 55.2512C74.1149 55.3373 73.4433 55.2638 72.7738 55.2512C71.7243 55.2345 70.6077 55.3961 69.7493 56.0131C69.2015 56.4056 68.7901 56.9576 68.362 57.4823C67.0649 59.0669 65.2641 60.5508 63.2198 60.385C63.0418 60.385 62.8656 60.3494 62.7016 60.2802C62.5375 60.2109 62.389 60.1096 62.2648 59.982C62.0983 59.7234 62.0135 59.4206 62.0214 59.1131C61.9335 57.8067 61.975 56.4949 62.1452 55.1967C62.2272 54.3932 62.4266 53.6062 62.7371 52.8607C63.1026 52.1134 63.5827 51.4278 64.1601 50.829C64.8585 50.0188 65.7002 49.3443 66.643 48.8393C67.5958 48.334 68.6995 48.1915 69.7493 48.4384C70.9729 48.7721 71.9258 49.7292 73.0928 50.2224C74.4255 50.7828 77.9642 52.2793 76.5034 54.3424Z" fill="black"/>
<path d="M76.5034 54.0884C76.1151 54.6341 75.4414 54.9112 74.7781 54.9972C74.1149 55.0833 73.4433 55.0098 72.7738 54.9972C71.7243 54.9783 70.6077 55.14 69.7493 55.757C69.2015 56.1495 68.7901 56.7015 68.362 57.2262C67.0649 58.8108 65.2641 60.2947 63.2198 60.1289C63.0417 60.1294 62.8654 60.094 62.7013 60.0247C62.5372 59.9555 62.3887 59.8539 62.2648 59.7259C62.0979 59.4675 62.0131 59.1646 62.0214 58.857C61.9335 57.5506 61.975 56.2388 62.1452 54.9406C62.2272 54.1371 62.4266 53.3501 62.7371 52.6046C63.102 51.8575 63.5822 51.1726 64.1601 50.575C64.8578 49.7636 65.6996 49.0883 66.643 48.5832C67.5958 48.0779 68.6995 47.9354 69.7493 48.1823C70.9729 48.516 71.9258 49.4731 73.0928 49.9663C74.4255 50.5288 77.9642 52.0211 76.5034 54.0884Z" fill="#865A61"/>
<path d="M61.3519 99.3732L61.3351 100.139L61.163 99.4068L61.3519 99.3732Z" fill="#FDC2CC"/>
<path opacity="0.05" d="M61.3519 99.3732L61.3351 100.139L61.163 99.4068L61.3519 99.3732Z" fill="black"/>
<g opacity="0.05">
<path opacity="0.05" d="M77.5382 71.1814C75.7605 77.0309 80.9425 77.7172 80.9425 77.7172L85.1066 88.8768C85.4446 90.7783 81.1314 96.3172 81.1314 96.3172C80.8313 97.0266 80.082 97.566 79.2635 97.9648C79.7418 97.6734 80.1264 97.2509 80.3716 96.7474C80.3716 96.7474 84.6827 91.2107 84.3448 89.3091L80.1807 78.1475C80.1807 78.1475 75.0007 77.4612 76.7763 71.6117C77.3703 69.6577 78.2455 68.7678 79.1312 68.4487C78.5205 68.9399 77.9601 69.7899 77.5382 71.1814Z" fill="black"/>
</g>
<g opacity="0.1">
<path opacity="0.1" d="M77.6262 76.4958C77.8696 76.7969 78.1519 77.0644 78.4658 77.2913C79.0536 77.7183 79.7313 78.0055 80.4471 78.1308C80.4471 78.1308 80.4471 78.1308 80.4471 78.1413V78.3512C79.7994 78.214 79.1874 77.943 78.6505 77.5557C78.2513 77.2632 77.9049 76.9047 77.6262 76.4958V76.4958Z" fill="black"/>
<path opacity="0.1" d="M61.5239 84.8639C61.5239 84.887 61.5239 84.9122 61.5239 84.9373C61.5894 85.9346 61.7099 86.9275 61.8849 87.9114C62.5146 91.5298 61.6898 98.7141 61.5722 99.7069C61.5051 99.6628 61.4379 99.6208 61.3623 99.5726C61.3938 99.3333 62.3614 91.4983 61.6898 87.6658C61.5175 86.6853 61.4005 85.6959 61.3392 84.7023C61.3392 84.6771 61.3392 84.6519 61.3392 84.6288C61.2976 84.0528 61.1026 83.4985 60.7747 83.0232C61.2097 83.5439 61.4716 84.1873 61.5239 84.8639V84.8639Z" fill="black"/>
<path opacity="0.1" d="M65.3879 66.755L63.3352 66.7151C63.3336 66.7142 63.3318 66.7137 63.33 66.7137C63.3282 66.7137 63.3263 66.7142 63.3247 66.7151L60.7012 72.6464C60.2424 73.673 59.8907 74.7442 59.6518 75.8429C58.8878 79.432 59.3684 81.2202 59.9519 82.1038C59.295 81.3293 58.617 79.5642 59.4629 75.5974C59.6971 74.498 60.0453 73.426 60.5018 72.3987L63.1442 66.4674L65.5642 66.5157V66.5304C65.5453 66.5556 65.4803 66.6353 65.3879 66.755Z" fill="black"/>
<path opacity="0.1" d="M80.8563 68.3649L80.892 68.3754L80.8563 68.3649Z" fill="black"/>
<path opacity="0.1" d="M80.1029 68.3314L78.046 67.7122H78.0356C77.9138 67.8465 74.9398 71.1438 72.7045 73.8135C70.7064 76.1999 67.2034 76.0131 66.3597 75.9292C66.2065 75.9124 66.0512 75.8998 65.8979 75.8893C63.6039 75.7424 62.7014 75.4695 62.3992 74.8903C62.8294 75.31 63.776 75.5199 65.7069 75.6374C65.8623 75.6374 66.0155 75.6605 66.1687 75.6752C67.0082 75.7592 70.5154 75.946 72.5135 73.5617C74.7488 70.8899 77.7249 67.5926 77.8466 67.4583L80.8396 68.365C80.5987 68.305 80.3483 68.2936 80.1029 68.3314V68.3314Z" fill="black"/>
</g>
<path opacity="0.1" d="M55.7501 158.984C55.7501 158.984 52.8537 159.776 52.2933 158.533Z" fill="black"/>
<path opacity="0.1" d="M74.138 158.39C74.138 158.39 70.7799 159.257 70.0033 157.916Z" fill="black"/>
<path opacity="0.1" d="M40.4265 151.244C43.5481 151.244 46.0787 150.816 46.0787 150.289C46.0787 149.761 43.5481 149.334 40.4265 149.334C37.3049 149.334 34.7743 149.761 34.7743 150.289C34.7743 150.816 37.3049 151.244 40.4265 151.244Z" fill="#6C63FF"/>
<path opacity="0.1" d="M18.1598 164.788C21.2814 164.788 23.8119 164.36 23.8119 163.833C23.8119 163.305 21.2814 162.878 18.1598 162.878C15.0381 162.878 12.5076 163.305 12.5076 163.833C12.5076 164.36 15.0381 164.788 18.1598 164.788Z" fill="#6C63FF"/>
<path d="M12.2747 153.143C16.9356 153.143 20.7141 152.504 20.7141 151.716C20.7141 150.928 16.9356 150.289 12.2747 150.289C7.61367 150.289 3.83521 150.928 3.83521 151.716C3.83521 152.504 7.61367 153.143 12.2747 153.143Z" fill="#345494"/>
<path d="M8.78432 149.382C8.39847 149.069 8.1173 148.646 7.97836 148.169C7.87552 147.686 8.0812 147.109 8.54085 146.933C9.05717 146.736 9.60916 147.092 10.0268 147.453C10.4445 147.814 10.9251 148.228 11.4729 148.152C11.1912 147.897 10.9805 147.573 10.8613 147.211C10.7421 146.85 10.7186 146.464 10.7929 146.091C10.8155 145.936 10.881 145.791 10.9818 145.671C11.2672 145.365 11.7878 145.497 12.132 145.739C13.2213 146.507 13.5277 147.989 13.5319 149.323C13.6431 148.841 13.5508 148.341 13.5529 147.854C13.555 147.367 13.6914 146.805 14.107 146.549C14.3637 146.407 14.6531 146.334 14.9465 146.339C15.4376 146.322 15.9833 146.37 16.3192 146.729C16.7389 147.174 16.6277 147.924 16.2646 148.408C15.9015 148.893 15.3516 149.206 14.8458 149.546C14.4383 149.787 14.091 150.118 13.8299 150.513C13.7994 150.568 13.7741 150.626 13.7544 150.686H10.688C9.99705 150.34 9.35659 149.901 8.78432 149.382V149.382Z" fill="#345494"/>
<path opacity="0.1" d="M216.148 159.232C219.27 159.232 221.8 158.805 221.8 158.277C221.8 157.75 219.27 157.322 216.148 157.322C213.026 157.322 210.496 157.75 210.496 158.277C210.496 158.805 213.026 159.232 216.148 159.232Z" fill="#6C63FF"/>
<path d="M212.353 153.838C212.353 153.838 215.577 153.739 216.551 153.047C217.525 152.354 221.508 151.529 221.75 152.64C221.991 153.75 226.596 158.157 222.954 158.187C219.313 158.216 214.498 157.62 213.528 157.028C212.559 156.436 212.353 153.838 212.353 153.838Z" fill="#A8A8A8"/>
<path opacity="0.2" d="M223.017 157.803C219.378 157.832 214.561 157.236 213.591 156.644C212.853 156.195 212.559 154.581 212.46 153.836H212.353C212.353 153.836 212.563 156.436 213.526 157.026C214.49 157.616 219.313 158.214 222.952 158.185C224.002 158.185 224.367 157.803 224.346 157.249C224.201 157.593 223.8 157.803 223.017 157.803Z" fill="black"/>
<defs>
<linearGradient id="paint0_linear_1_524" x1="101.089" y1="149.082" x2="101.089" y2="25.0216" gradientUnits="userSpaceOnUse">
<stop stop-color="#808080" stop-opacity="0.25"/>
<stop offset="0.54" stop-color="#808080" stop-opacity="0.12"/>
<stop offset="1" stop-color="#808080" stop-opacity="0.1"/>
</linearGradient>
<linearGradient id="paint1_linear_1_524" x1="28908.6" y1="100274" x2="28908.6" y2="21969" gradientUnits="userSpaceOnUse">
<stop stop-color="#808080" stop-opacity="0.25"/>
<stop offset="0.54" stop-color="#808080" stop-opacity="0.12"/>
<stop offset="1" stop-color="#808080" stop-opacity="0.1"/>
</linearGradient>
<linearGradient id="paint2_linear_1_524" x1="38324.1" y1="102080" x2="38324.1" y2="29613.7" gradientUnits="userSpaceOnUse">
<stop stop-color="#808080" stop-opacity="0.25"/>
<stop offset="0.54" stop-color="#808080" stop-opacity="0.12"/>
<stop offset="1" stop-color="#808080" stop-opacity="0.1"/>
</linearGradient>
<linearGradient id="paint3_linear_1_524" x1="-21950.5" y1="101214" x2="-21950.5" y2="28451.9" gradientUnits="userSpaceOnUse">
<stop stop-color="#808080" stop-opacity="0.25"/>
<stop offset="0.54" stop-color="#808080" stop-opacity="0.12"/>
<stop offset="1" stop-color="#808080" stop-opacity="0.1"/>
</linearGradient>
</defs>
</svg>
