<svg width="265" height="173" viewBox="0 0 265 173" fill="none" xmlns="http://www.w3.org/2000/svg">
<path d="M5.11295 55.1578C3.12449 61.1775 8.97078 66.5914 13.5691 70.9515C19.8632 76.933 24.8295 84.1708 28.146 92.1954C30.1448 97.0449 31.5352 102.262 31.1623 107.495C30.1059 122.336 16.1298 132.224 4.96278 142.055C3.38082 143.46 1.79885 144.931 0.877116 146.826C-2.08227 152.908 2.94843 159.917 8.4892 163.796C28.2211 177.601 56.7016 173.495 75.8406 158.879C85.7518 151.308 94.2701 141.014 106.281 137.648C113.961 135.507 122.111 136.522 130.057 137.182C141.972 138.169 153.941 138.311 165.875 137.606C170.065 137.348 174.445 136.944 177.954 134.642C186.837 128.821 185.338 115.021 191.749 106.555C196.357 100.47 204.231 98.1246 211.084 94.7613C221.633 89.556 230.436 81.3879 236.414 71.257C241.916 61.8921 244.767 51.2456 247.547 40.7492C249.645 32.8627 251.749 24.6033 249.973 16.6365C248.197 8.66971 241.186 1.2311 233.056 1.93017C226.813 2.46612 221.847 7.39844 215.836 9.16423C201.435 13.4052 187.453 -1.32438 172.514 0.0970552C163.108 0.990309 155.521 8.1234 149.786 15.6319C144.052 23.1404 139.197 31.594 131.624 37.2487C119.843 46.0517 103.702 46.3624 89.2808 43.5118C74.8593 40.6612 61.0229 35.0505 46.4408 33.1811C37.8501 32.0807 31.2659 37.1995 23.5295 40.0139C16.4301 42.5978 7.74352 47.1962 5.11295 55.1578Z" fill="#E1EBFF" fill-opacity="0.7"/>
<path opacity="0.1" d="M35.7167 173C46.1181 173 54.5501 170.438 54.5501 167.278C54.5501 164.118 46.1181 161.556 35.7167 161.556C25.3153 161.556 16.8832 164.118 16.8832 167.278C16.8832 170.438 25.3153 173 35.7167 173Z" fill="#6C63FF"/>
<path d="M213.793 97.4305C241.572 97.4305 264.092 95.9363 264.092 94.0931C264.092 92.2499 241.572 90.7557 213.793 90.7557C186.013 90.7557 163.493 92.2499 163.493 94.0931C163.493 95.9363 186.013 97.4305 213.793 97.4305Z" fill="#E2E9F7"/>
<g opacity="0.5">
<path opacity="0.5" d="M183.383 17.7081C184.081 17.7081 184.75 17.9853 185.243 18.4786C185.737 18.9719 186.014 19.641 186.014 20.3387V93.482H180.753V20.3361C180.753 19.6389 181.031 18.9705 181.524 18.4777C182.017 17.9849 182.686 17.7081 183.383 17.7081V17.7081Z" fill="#345494"/>
<path opacity="0.5" d="M241.103 17.7082C241.801 17.7082 242.47 17.9853 242.963 18.4786C243.456 18.972 243.733 19.6411 243.733 20.3387V93.482H238.459V20.3361C238.46 19.9898 238.528 19.647 238.662 19.3273C238.795 19.0076 238.99 18.7173 239.235 18.4731C239.481 18.229 239.772 18.0357 240.093 17.9044C240.413 17.7732 240.757 17.7065 241.103 17.7082V17.7082Z" fill="#345494"/>
<path opacity="0.5" d="M256.457 34.0585C257.909 34.0585 259.087 32.8808 259.087 31.428C259.087 29.9752 257.909 28.7974 256.457 28.7974L168.032 28.7974C166.579 28.7974 165.402 29.9752 165.402 31.428C165.402 32.8808 166.579 34.0585 168.032 34.0585L256.457 34.0585Z" fill="#345494"/>
<path opacity="0.5" d="M179.189 23.6063C179.189 22.4681 178.266 21.5453 177.128 21.5453C175.99 21.5453 175.067 22.4681 175.067 23.6063V39.2447C175.067 40.383 175.99 41.3057 177.128 41.3057C178.266 41.3057 179.189 40.383 179.189 39.2447V23.6063Z" fill="#345494"/>
<path opacity="0.5" d="M175.067 25.4548C175.067 24.3166 174.144 23.3939 173.006 23.3939C171.868 23.3939 170.945 24.3166 170.945 25.4548V37.3985C170.945 38.5368 171.868 39.4595 173.006 39.4595C174.144 39.4595 175.067 38.5368 175.067 37.3985V25.4548Z" fill="#345494"/>
<path opacity="0.5" d="M245.297 39.2446C245.297 40.3829 246.22 41.3056 247.358 41.3056C248.497 41.3056 249.419 40.3829 249.419 39.2446V23.6062C249.419 22.468 248.497 21.5453 247.358 21.5453C246.22 21.5453 245.297 22.468 245.297 23.6062V39.2446Z" fill="#345494"/>
<path opacity="0.5" d="M249.419 37.396C249.419 38.5342 250.342 39.4569 251.48 39.4569C252.619 39.4569 253.541 38.5342 253.541 37.396V25.4522C253.541 24.314 252.619 23.3913 251.48 23.3913C250.342 23.3913 249.419 24.314 249.419 25.4522V37.396Z" fill="#345494"/>
</g>
<g opacity="0.5">
<path opacity="0.5" d="M206.991 48.3224H217.746C218.913 48.3224 220.033 48.7862 220.858 49.6116C221.684 50.4371 222.148 51.5566 222.148 52.724V71.2001H202.6V52.724C202.6 51.5584 203.062 50.4404 203.885 49.6153C204.708 48.7901 205.825 48.3252 206.991 48.3224Z" fill="#345494"/>
<path opacity="0.5" d="M213.793 69.5406H210.932V79.0764H213.793V69.5406Z" fill="#345494"/>
<path opacity="0.5" d="M208.071 80.2673H205.21V89.8032H208.071V80.2673Z" fill="#345494"/>
<path opacity="0.5" d="M219.991 80.2673H217.13V89.8032H219.991V80.2673Z" fill="#345494"/>
<path opacity="0.5" d="M222.138 78.3591H202.59V80.9819H222.138V78.3591Z" fill="#345494"/>
</g>
<path d="M122.489 157.504C181.735 157.504 229.762 153.982 229.762 149.638C229.762 145.294 181.735 141.772 122.489 141.772C63.2437 141.772 15.2158 145.294 15.2158 149.638C15.2158 153.982 63.2437 157.504 122.489 157.504Z" fill="#E1EBFF"/>
<path d="M150.263 121.626C150.263 121.626 157.652 124.964 161.228 124.964C161.228 124.964 165.042 125.916 167.183 126.872C169.324 127.827 177.672 128.301 177.672 128.301C177.672 128.301 187.446 131.877 188.637 133.547C189.828 135.217 193.403 127.592 193.403 127.592L191.495 122.825L155.506 115.912L150.263 121.626Z" fill="#FFB9B9"/>
<path opacity="0.05" d="M150.263 121.626C150.263 121.626 157.652 124.964 161.228 124.964C161.228 124.964 165.042 125.916 167.183 126.872C169.324 127.827 177.672 128.301 177.672 128.301C177.672 128.301 187.446 131.877 188.637 133.547C189.828 135.217 193.403 127.592 193.403 127.592L191.495 122.825L155.506 115.912L150.263 121.626Z" fill="black"/>
<path d="M186.736 132.117C186.736 132.117 191.264 138.072 189.359 141.653C187.453 145.234 188.168 145.229 189.359 145.467C190.55 145.705 197.225 147.137 197.942 141.891C198.659 136.646 200.088 124.966 200.088 124.966L190.301 124.011C190.301 124.011 192.934 132.832 186.736 132.117Z" fill="#737A9D"/>
<path d="M130.477 113.76L150.978 123.296C150.978 123.296 157.414 118.289 156.933 115.669L133.094 109.947L130.477 113.76Z" fill="#4C4C78"/>
<path opacity="0.1" d="M130.477 113.76L150.978 123.296C150.978 123.296 157.414 118.289 156.933 115.669L133.094 109.947L130.477 113.76Z" fill="black"/>
<path d="M216.535 126.157L214.38 131.4L209.383 132.586C207.983 131.417 206.485 130.371 204.907 129.458C202.217 127.905 198.677 126.385 195.327 126.626C195.327 126.626 181.977 124.479 181.263 123.519C181.263 123.519 172.68 121.611 170.774 121.849C169.855 121.963 167.879 121.302 166.082 120.585C164.154 119.809 162.429 118.988 162.429 118.988L168.628 109.214C169.351 109.525 170.095 109.785 170.854 109.99C173.223 110.684 177.488 111.585 183.647 111.585C193.659 111.585 207.485 121.836 207.485 121.836C207.485 121.836 207.623 121.882 207.858 121.952C208.894 122.266 211.846 123.004 213.207 121.836C214.865 120.435 216.535 126.157 216.535 126.157Z" fill="#FFB9B9"/>
<path opacity="0.1" d="M216.535 126.157L214.38 131.4L209.383 132.586C207.983 131.417 206.486 130.371 204.907 129.458C212.177 130.005 207.835 121.978 207.835 121.978H207.851C208.886 122.292 211.838 123.029 213.2 121.862C214.865 120.435 216.535 126.157 216.535 126.157Z" fill="black"/>
<path d="M204.935 129.66C204.935 129.66 210.701 137.746 208.275 142.301C205.849 146.855 206.758 146.852 208.275 147.158C209.792 147.463 218.293 149.284 219.201 142.606C219.9 137.472 219.287 127.618 218.966 123.34C218.945 123.07 218.871 122.807 218.748 122.566C218.625 122.325 218.455 122.111 218.248 121.936C218.042 121.761 217.802 121.629 217.544 121.547C217.286 121.466 217.014 121.436 216.744 121.461L208.311 122.237C208.311 122.237 212.827 130.572 204.935 129.66Z" fill="#737A9D"/>
<path d="M68.0188 137.599L68.257 149.281L70.8798 151.187H79.9392L81.6066 148.805V137.599L78.9838 135.214H70.4034L68.0188 137.599Z" fill="#345494"/>
<path opacity="0.2" d="M69.448 137.837C69.448 137.837 71.118 148.564 69.448 149.519L68.257 149.281L68.0188 137.84L69.448 137.837Z" fill="white"/>
<path d="M88.996 136.884L90.9042 134.976H99.9662L101.874 136.884C101.874 136.884 104.259 143.797 102.351 148.325L100.199 150.472H91.1372L88.9908 148.564L88.996 136.884Z" fill="#345494"/>
<path opacity="0.1" d="M68.0188 137.599L68.257 149.281L70.8798 151.187H79.9392L81.6066 148.805V137.599L78.9838 135.214H70.4034L68.0188 137.599Z" fill="black"/>
<path opacity="0.1" d="M88.996 136.884L90.9042 134.976H99.9662L101.874 136.884C101.874 136.884 104.259 143.797 102.351 148.325L100.199 150.472H91.1372L88.9908 148.564L88.996 136.884Z" fill="black"/>
<path opacity="0.2" d="M91.1372 137.36C91.1372 137.36 93.0454 145.705 91.1372 148.564H88.9908V136.884L91.1372 137.36Z" fill="white"/>
<path d="M81.6066 97.3116C81.6066 97.3116 82.5594 106.609 82.5594 107.8C82.5594 108.991 82.083 116.862 83.5122 124.487C84.9414 132.112 82.5594 141.648 82.5594 141.648H90.4252L93.7626 115.902L91.378 102.314L90.4252 98.0236L81.6066 97.3116Z" fill="#FFB9B9"/>
<path opacity="0.05" d="M81.6066 97.3116C81.6066 97.3116 82.5594 106.609 82.5594 107.8C82.5594 108.991 82.083 116.862 83.5122 124.487C84.9414 132.112 82.5594 141.648 82.5594 141.648H90.4252L93.7626 115.902L91.378 102.314L90.4252 98.0236L81.6066 97.3116Z" fill="black"/>
<path d="M80.1773 73.7114C80.1773 73.7114 69.6887 73.9496 78.0309 91.3513C78.0309 91.3513 80.1773 98.5025 80.1773 99.6961C80.1773 100.89 90.9042 100.887 92.0874 99.6961C93.2706 98.5051 90.1792 88.7311 90.1792 84.2001C90.1792 79.6691 87.0904 72.2822 80.1773 73.7114Z" fill="#CBCDDA"/>
<path opacity="0.05" d="M80.1773 73.7114C80.1773 73.7114 69.6887 73.9496 78.0309 91.3513C78.0309 91.3513 80.1773 98.5025 80.1773 99.6961C80.1773 100.89 90.9042 100.887 92.0874 99.6961C93.2706 98.5051 90.1792 88.7311 90.1792 84.2001C90.1792 79.6691 87.0904 72.2822 80.1773 73.7114Z" fill="black"/>
<path d="M67.5423 63.456C67.5423 63.456 76.6043 73.23 84.2294 66.0788L83.2766 91.3488C83.2766 91.3488 70.8797 76.3318 62.3045 77.5228L67.5423 63.456Z" fill="#FFB9B9"/>
<path opacity="0.1" d="M170.844 110.019C170.482 112.813 169.342 118.695 166.072 120.601C164.143 119.824 162.419 119.003 162.419 119.003L168.617 109.229C169.34 109.545 170.084 109.809 170.844 110.019V110.019Z" fill="black"/>
<path d="M170.287 108.507C170.287 108.507 169.573 120.189 163.851 121.142L129.291 114.907C127.613 114.603 126.036 113.891 124.698 112.836C123.302 111.738 121.591 110.247 120.578 108.88C120.029 108.134 119.698 107.422 119.752 106.834C119.991 104.212 130.479 98.0133 126.904 87.0482C127.412 86.6457 127.977 86.3211 128.581 86.0851C131.567 84.8449 138.438 83.9335 148.357 94.1994C148.357 94.2124 166.712 108.994 170.287 108.507Z" fill="#4C4C78"/>
<path d="M76.84 138.551L77.0782 150.234L79.6984 152.142H88.7578L90.4278 149.757V138.551L87.805 136.169H79.222L76.84 138.551Z" fill="#345494"/>
<path opacity="0.2" d="M78.2692 138.8C78.2692 138.8 79.9392 149.527 78.2692 150.482L77.0782 150.244L76.84 138.8H78.2692Z" fill="white"/>
<path d="M103.063 137.599L104.971 135.691H114.033L115.941 137.599C115.941 137.599 118.326 144.512 116.418 149.04L114.271 151.187H105.209L103.063 149.278V137.599Z" fill="#345494"/>
<path opacity="0.2" d="M105.207 138.075C105.207 138.075 107.115 146.42 105.207 149.278H103.06V137.599L105.207 138.075Z" fill="white"/>
<path d="M90.3605 142.13H103.257C104.267 142.13 105.085 143.036 105.085 144.157C105.085 145.276 104.267 146.184 103.257 146.184H90.3605C89.2653 146.184 88.4161 145.125 88.5481 143.921C88.6543 142.899 89.4362 142.13 90.3605 142.13Z" fill="#6C63FF"/>
<path opacity="0.1" d="M127.616 104.939C125.065 106.726 122.378 107.896 120.576 108.893C120.027 108.147 119.695 107.435 119.75 106.848C119.988 104.225 130.477 98.0263 126.901 87.0613C127.409 86.6588 127.975 86.3342 128.579 86.0981C129.139 86.0863 129.696 86.0099 130.238 85.8703C130.238 85.8703 132.382 101.602 127.616 104.939Z" fill="black"/>
<path d="M74.098 81.9347C74.098 81.9347 77.6736 85.5103 81.1301 87.7758C84.32 89.8652 78.6264 68.8232 78.6264 68.8232C78.6264 68.8232 82.158 65.9752 84.2319 64.2845C85.617 63.145 87.3817 62.5716 89.172 62.6792C93.9438 62.9873 102.685 64.9939 109.738 74.6669C119.988 88.7311 129.286 85.8702 129.286 85.8702C129.286 85.8702 131.432 101.604 126.663 104.942C121.894 108.279 116.651 109.47 117.601 111.378C118.551 113.287 113.311 102.081 101.39 100.175C89.4698 98.2696 76.3583 89.9247 76.5991 85.8727C76.6017 85.8701 73.1452 83.1334 74.098 81.9347Z" fill="#CBCDDA"/>
<path opacity="0.1" d="M71.5944 69.67C71.5932 68.9808 71.5326 68.293 71.4132 67.6142C68.2907 66.0607 68.7334 63.948 68.7334 63.948L63.4878 78.0122C65.4063 77.7533 67.5165 78.2919 69.6344 79.3068C72.4229 77.1034 71.5944 73.4735 71.5944 69.67Z" fill="black"/>
<path d="M61.1058 81.3418C67.6892 81.3418 73.0262 76.0049 73.0262 69.4214C73.0262 62.8379 67.6892 57.501 61.1058 57.501C54.5223 57.501 49.1854 62.8379 49.1854 69.4214C49.1854 76.0049 54.5223 81.3418 61.1058 81.3418Z" fill="#FFB9B9"/>
<path opacity="0.1" d="M50.2754 72.1089C50.0553 72.8157 49.7161 73.5433 49.0766 73.9213C48.2999 74.3822 47.228 74.1543 46.5367 73.5588C45.8454 72.9633 45.4725 72.0726 45.2784 71.182C44.9987 69.8924 45.0431 68.5535 45.4078 67.2853C45.7185 66.2108 46.2545 65.214 46.4797 64.1136C46.7205 62.9433 46.5988 61.7187 46.8681 60.5535C47.2332 58.9742 48.274 57.6511 49.2889 56.385C49.607 55.9018 50.0193 55.4876 50.5011 55.1673C50.9828 54.847 51.5243 54.6271 52.093 54.5208L57.0823 53.0165C58.0282 52.6998 59.0003 52.4675 59.9873 52.3227C61.2561 52.1928 62.538 52.3052 63.7648 52.6541C64.7418 52.8998 65.6687 53.3133 66.5041 53.8761C67.3319 54.4911 68.061 55.2289 68.6661 56.064C71.3044 59.5127 72.8087 65.1545 75.5299 68.5488C74.4554 68.8802 73.3809 67.7721 72.3064 68.1087C72.1537 68.1745 71.9835 68.1882 71.8222 68.1475C71.6625 68.0607 71.5373 67.9218 71.4675 67.7539C70.5207 66.0999 69.0304 64.8246 67.2498 64.1447C65.9294 63.645 64.1429 63.6476 63.4205 64.8593C62.9311 65.6775 63.1279 66.7105 63.2574 67.6556C63.3868 68.6006 63.3635 69.7269 62.6153 70.3094C62.2018 70.5889 61.7205 70.7517 61.2223 70.7807C58.9 71.085 56.5388 70.8539 54.3196 70.1049C53.5429 69.846 52.7532 69.0356 51.9325 69.2945C50.8243 69.644 50.568 71.169 50.2754 72.1089Z" fill="black"/>
<path d="M50.0139 71.8474C49.7938 72.5542 49.4546 73.2818 48.8151 73.6598C48.0384 74.1207 46.9665 73.8928 46.2752 73.2973C45.5839 72.7018 45.211 71.8111 45.0168 70.9205C44.7371 69.6309 44.7816 68.292 45.1463 67.0238C45.457 65.9493 45.9929 64.9525 46.2182 63.8521C46.459 62.6818 46.3373 61.4572 46.6066 60.292C46.9716 58.7127 48.0125 57.3896 49.0274 56.1235C49.3455 55.6402 49.7577 55.2261 50.2395 54.9058C50.7213 54.5855 51.2627 54.3656 51.8315 54.2593L56.8207 52.755C57.7667 52.4391 58.7389 52.2078 59.7257 52.0637C60.9946 51.9338 62.2765 52.0463 63.5033 52.3952C64.4803 52.6409 65.4071 53.0544 66.2426 53.6172C67.0704 54.2322 67.7995 54.97 68.4046 55.8051C71.0429 59.2538 72.5472 64.8955 75.2684 68.2899C74.1939 68.6213 73.1194 67.5132 72.0449 67.8497C71.8922 67.9156 71.722 67.9292 71.5607 67.8886C71.399 67.8028 71.2719 67.6638 71.2008 67.495C70.2539 65.841 68.7637 64.5657 66.9831 63.8858C65.6626 63.3861 63.8761 63.3887 63.1538 64.6004C62.6644 65.4185 62.8612 66.4516 62.9907 67.3966C63.1201 68.3417 63.0968 69.468 62.3485 70.0505C61.935 70.33 61.4538 70.4928 60.9556 70.5217C58.6333 70.8261 56.2721 70.595 54.0529 69.846C53.2762 69.5871 52.4865 68.7767 51.6657 69.0356C50.5628 69.3825 50.3064 70.9075 50.0139 71.8474Z" fill="#B96B6B"/>
<g opacity="0.1">
<path opacity="0.1" d="M79.4343 68.1733L78.6265 68.8258C78.6265 68.8258 81.9639 81.1579 82.0959 86.0022C83.7996 85.5413 80.5217 72.347 79.4343 68.1733Z" fill="black"/>
<path opacity="0.1" d="M127.126 103.034C122.36 106.371 117.114 107.562 118.064 109.47C119.015 111.378 113.774 100.173 101.854 98.267C90.6712 96.4779 78.4401 89.0237 77.1662 84.762C75.3797 83.2344 74.08 81.9373 74.08 81.9373C73.1271 83.1283 76.5837 85.8702 76.5837 85.8702C76.3455 89.9222 89.4569 98.267 101.375 100.173C113.293 102.078 118.538 113.284 117.585 111.376C116.633 109.468 121.876 108.269 126.647 104.939C128.012 103.984 128.809 102.013 129.255 99.6858C128.794 101.159 128.11 102.353 127.126 103.034Z" fill="black"/>
</g>
<path d="M103.063 125.919C102.348 126.872 101.872 136.646 101.872 136.646C101.872 136.646 104.72 150.71 95.9167 149.281C87.1136 147.852 94.7257 137.84 94.7257 137.84L93.5347 124.014C89.0063 112.103 89.9591 103.513 89.9591 103.513L89.1124 95.7272L88.7655 92.5477L99.0159 90.1631C98.7363 90.5359 98.8554 92.861 99.1065 95.5614C99.4975 99.7921 100.207 104.942 100.207 104.942C102.346 107.324 103.777 124.964 103.063 125.919Z" fill="#FFB9B9"/>
<path opacity="0.1" d="M88.5196 68.7067C88.5196 68.7067 78.031 68.9449 86.3732 86.3465C86.3732 86.3465 88.5196 93.4977 88.5196 94.6913C88.5196 95.8849 99.2465 95.8823 100.43 94.6913C101.613 93.5003 98.5215 83.7263 98.5215 79.1953C98.5215 74.6643 95.4326 67.2749 88.5196 68.7067Z" fill="black"/>
<path opacity="0.1" d="M99.0988 95.5614C96.8721 96.1699 91.4142 96.2243 89.1021 95.7272L88.7551 92.5477L99.0055 90.1631C98.7311 90.5333 98.8502 92.8584 99.0988 95.5614Z" fill="black"/>
<path d="M88.0432 68.7067C88.0432 68.7067 77.5546 68.9449 85.8968 86.3465C85.8968 86.3465 88.0432 93.4977 88.0432 94.6913C88.0432 95.8849 98.77 95.8823 99.9532 94.6913C101.136 93.5003 98.045 83.7263 98.045 79.1953C98.045 74.6643 94.9562 67.2749 88.0432 68.7067Z" fill="#CBCDDA"/>
<g opacity="0.5">
<path opacity="0.5" d="M19.4283 106.025L11.837 106.18L10.5994 107.884V113.771L12.1477 114.856H19.4283L20.9792 113.153V107.575L19.4283 106.025Z" fill="#345494"/>
<path opacity="0.2" d="M19.2756 106.954C19.2756 106.954 12.303 108.039 11.6842 106.954L11.8396 106.177L19.2756 106.022V106.954Z" fill="white"/>
<path opacity="0.5" d="M20.0497 123.066L21.2899 124.306V130.194L20.0497 131.434C20.0497 131.434 15.5575 132.988 12.6137 131.745L11.2181 130.349V124.462L12.4583 123.066H20.0497Z" fill="#345494"/>
<path opacity="0.2" d="M19.739 124.462C19.739 124.462 14.3174 125.702 12.4584 124.462V123.066H20.0497L19.739 124.462Z" fill="white"/>
<path opacity="0.5" d="M17.1058 114.814V123.196C17.0878 123.528 16.939 123.839 16.6921 124.062C16.4451 124.284 16.1201 124.4 15.788 124.384C15.4558 124.4 15.1308 124.284 14.8839 124.062C14.6369 123.839 14.4882 123.528 14.4701 123.196V114.814C14.4701 114.102 15.1588 113.551 15.9407 113.634C16.2464 113.652 16.5346 113.783 16.7497 114.001C16.9648 114.219 17.0917 114.509 17.1058 114.814V114.814Z" fill="#345494"/>
<path opacity="0.5" d="M31.5869 106.263L23.9956 106.418L22.7554 108.122V114.009L24.3063 115.094H31.5869L33.1352 113.39V107.813L31.5869 106.263Z" fill="#345494"/>
<path opacity="0.2" d="M31.4316 107.195C31.4316 107.195 24.459 108.28 23.8402 107.195L23.9956 106.418L31.4316 106.263V107.195Z" fill="white"/>
<path opacity="0.5" d="M32.2058 123.307L33.446 124.547V130.435L32.2058 131.675C32.2058 131.675 27.7136 133.228 24.7698 131.986L23.3742 130.59V124.7L24.6144 123.304L32.2058 123.307Z" fill="#345494"/>
<path opacity="0.2" d="M31.8976 124.7C31.8976 124.7 26.4759 125.94 24.6169 124.7V123.304H32.2083L31.8976 124.7Z" fill="white"/>
<path opacity="0.5" d="M29.2568 115.053V123.434C29.2387 123.766 29.0899 124.077 28.843 124.3C28.5961 124.522 28.271 124.638 27.9389 124.622V124.622C27.6068 124.638 27.2817 124.522 27.0348 124.3C26.7879 124.077 26.6391 123.766 26.621 123.434V115.053C26.621 114.341 27.3097 113.789 28.0917 113.872C28.3974 113.89 28.6855 114.021 28.9006 114.239C29.1158 114.457 29.2426 114.747 29.2568 115.053V115.053Z" fill="#345494"/>
<path opacity="0.5" d="M47.0649 110.747L40.8147 110.874L39.7946 112.277V117.124L41.071 118.015H47.0649L48.3387 116.611V112.021L47.0649 110.747Z" fill="#345494"/>
<path opacity="0.2" d="M46.9354 111.511C46.9354 111.511 41.1952 112.404 40.6852 111.511L40.8121 110.874L46.9328 110.747L46.9354 111.511Z" fill="white"/>
<path opacity="0.5" d="M47.5749 124.775L48.595 125.795V130.642L47.5749 131.662C47.5749 131.662 43.8776 132.938 41.4541 131.921L40.3046 130.774V125.922L41.3247 124.775H47.5749Z" fill="#345494"/>
<path opacity="0.2" d="M47.3186 125.922C47.3186 125.922 42.8549 126.942 41.3247 125.922V124.775H47.5749L47.3186 125.922Z" fill="white"/>
<path opacity="0.5" d="M45.1515 117.981V124.881C45.1355 125.154 45.0125 125.409 44.8093 125.591C44.6062 125.773 44.3393 125.868 44.0667 125.855C43.7932 125.868 43.5255 125.773 43.3222 125.589C43.1189 125.406 42.9965 125.149 42.9818 124.876V117.981C42.9908 117.835 43.0302 117.693 43.0976 117.563C43.1649 117.433 43.2586 117.319 43.3727 117.227C43.4868 117.136 43.6188 117.069 43.7602 117.032C43.9015 116.994 44.0491 116.987 44.1935 117.01V117.01C44.4449 117.025 44.6818 117.133 44.8586 117.312C45.0355 117.491 45.1398 117.729 45.1515 117.981Z" fill="#345494"/>
<path opacity="0.5" d="M57.0719 110.941L50.8217 111.071L49.8016 112.471V117.318L51.078 118.211H57.0719L58.3483 116.808V112.218L57.0719 110.941Z" fill="#345494"/>
<path opacity="0.2" d="M56.945 111.707C56.945 111.707 51.2049 112.601 50.6948 111.707L50.8217 111.07L56.9424 110.944L56.945 111.707Z" fill="white"/>
<path opacity="0.5" d="M57.5819 124.972L58.6021 125.992V130.839L57.5819 131.859C57.5819 131.859 53.8846 133.135 51.4612 132.118L50.3142 130.971V126.113L51.3343 124.966L57.5819 124.972Z" fill="#345494"/>
<path opacity="0.2" d="M57.3282 126.113C57.3282 126.113 52.8645 127.134 51.3344 126.113V124.966H57.582L57.3282 126.113Z" fill="white"/>
<path opacity="0.5" d="M55.1482 118.178V125.078C55.1334 125.351 55.011 125.608 54.8077 125.791C54.6044 125.974 54.3368 126.07 54.0633 126.057C53.7898 126.07 53.5222 125.974 53.3189 125.791C53.1156 125.608 52.9932 125.351 52.9785 125.078V118.178C52.9875 118.032 53.0269 117.889 53.0942 117.76C53.1615 117.63 53.2553 117.515 53.3694 117.424C53.4835 117.333 53.6154 117.266 53.7568 117.229C53.8982 117.191 54.0458 117.184 54.1902 117.207V117.207C54.4415 117.222 54.6784 117.329 54.8553 117.509C55.0322 117.688 55.1365 117.926 55.1482 118.178Z" fill="#345494"/>
</g>
<g opacity="0.8">
<path opacity="0.8" d="M30.3391 152.523C30.3391 152.523 26.6702 151.28 24.9019 154.514C24.436 155.39 24.1988 156.37 24.2124 157.363C24.226 158.355 24.4898 159.328 24.9795 160.192C26.1395 162.289 28.5293 165.01 33.0577 164.769C36.9 164.565 38.1764 161.631 38.5233 158.905C38.656 157.882 38.5241 156.843 38.14 155.886C37.7559 154.928 37.1326 154.086 36.3298 153.439C35.527 152.792 34.5715 152.361 33.5547 152.189C32.538 152.017 31.4941 152.109 30.5229 152.455L30.3391 152.523Z" fill="#345494"/>
<path opacity="0.1" d="M25.7589 160.479C25.2692 159.616 25.0053 158.642 24.9917 157.65C24.9782 156.657 25.2153 155.677 25.6812 154.801C27.447 151.567 31.1184 152.81 31.1184 152.81L31.3074 152.743C32.7061 152.236 34.2435 152.271 35.6183 152.838C34.8589 152.385 34.0083 152.107 33.1279 152.023C32.2476 151.938 31.3596 152.051 30.5281 152.352L30.3391 152.419C30.3391 152.419 26.6702 151.176 24.9019 154.41C24.436 155.287 24.1988 156.266 24.2124 157.259C24.226 158.252 24.4898 159.225 24.9795 160.088C25.7563 161.468 27.0509 163.117 29.1222 164.016C27.6998 163.165 26.5368 161.942 25.7589 160.479V160.479Z" fill="white"/>
<path opacity="0.2" d="M28.4438 154.076C28.4438 154.076 29.8031 155.145 33.1042 154.076Z" fill="black"/>
<path opacity="0.8" d="M28.1539 146.309C28.1539 146.309 30.4841 152.626 30.2925 154.278L32.1386 154.084C32.1386 154.084 29.0316 148.546 29.8083 146.316L28.1539 146.309Z" fill="#6C63FF"/>
<path opacity="0.2" d="M28.1539 146.309C28.1539 146.309 30.4841 152.626 30.2925 154.278L32.1386 154.084C32.1386 154.084 29.0316 148.546 29.8083 146.316L28.1539 146.309Z" fill="black"/>
<path opacity="0.8" d="M37.6715 146.826C37.6715 146.826 34.0001 144.949 32.3586 146.5C30.7171 148.051 30.4633 152.015 30.4633 152.015C30.4633 152.015 36.4494 152.841 37.6715 146.826Z" fill="#4C4C78"/>
<path opacity="0.1" d="M37.5007 146.826C37.5007 146.826 33.8292 144.949 32.1877 146.5C30.5462 148.051 30.2925 152.015 30.2925 152.015C30.2925 152.015 36.2786 152.841 37.5007 146.826Z" fill="white"/>
<path opacity="0.8" d="M30.4633 152.005C30.4633 152.005 31.4265 147.404 37.6715 146.826" stroke="#345494" stroke-miterlimit="10"/>
</g>
<path d="M45.8272 158.242C45.8272 158.242 42.1584 156.999 40.39 160.233C39.9241 161.11 39.6869 162.089 39.7005 163.082C39.7141 164.075 39.9779 165.048 40.4676 165.911C41.6276 168.008 44.0174 170.729 48.5458 170.489C52.3881 170.284 53.6645 167.351 54.0114 164.624C54.1441 163.602 54.0122 162.562 53.6281 161.605C53.244 160.648 52.6207 159.805 51.8179 159.158C51.0151 158.511 50.0596 158.081 49.0428 157.909C48.0261 157.736 46.9822 157.828 46.011 158.175L45.8272 158.242Z" fill="#345494"/>
<path opacity="0.1" d="M41.2548 166.201C40.7651 165.338 40.5013 164.365 40.4877 163.372C40.4741 162.379 40.7113 161.4 41.1772 160.523C42.943 157.289 46.6144 158.532 46.6144 158.532L46.8034 158.465C48.2021 157.958 49.7394 157.993 51.1143 158.56C50.3548 158.107 49.5042 157.829 48.6239 157.745C47.7436 157.66 46.8556 157.773 46.0241 158.074L45.835 158.141C45.835 158.141 42.1662 156.898 40.3978 160.132C39.9319 161.009 39.6948 161.989 39.7084 162.981C39.722 163.974 39.9858 164.947 40.4755 165.81C41.2523 167.19 42.5468 168.839 44.6181 169.738C43.1958 168.887 42.0328 167.664 41.2548 166.201Z" fill="white"/>
<path opacity="0.2" d="M43.9398 159.795C43.9398 159.795 45.2991 160.865 48.6002 159.795Z" fill="black"/>
<path d="M43.6472 152.023C43.6472 152.023 45.9774 158.34 45.7858 159.992L47.6319 159.798C47.6319 159.798 44.5249 154.26 45.3016 152.031L43.6472 152.023Z" fill="#6C63FF"/>
<path opacity="0.2" d="M43.6472 152.023C43.6472 152.023 45.9774 158.34 45.7858 159.992L47.6319 159.798C47.6319 159.798 44.5249 154.26 45.3016 152.031L43.6472 152.023Z" fill="black"/>
<path d="M53.1675 152.548C53.1675 152.548 49.4961 150.671 47.8545 152.222C46.213 153.773 45.9593 157.737 45.9593 157.737C45.9593 157.737 51.9454 158.56 53.1675 152.548Z" fill="#345494"/>
<path opacity="0.1" d="M53.0354 152.548C53.0354 152.548 49.364 150.671 47.7225 152.222C46.0809 153.773 45.8272 157.737 45.8272 157.737C45.8272 157.737 51.8133 158.56 53.0354 152.548Z" fill="white"/>
<path d="M45.9593 157.737C45.9593 157.737 46.9224 153.136 53.1675 152.559" stroke="#6C63FF" stroke-miterlimit="10"/>
<path d="M16.311 143.246C16.311 143.246 16.6709 142.844 15.9952 142.684V142.024H16.4017C16.4013 141.225 16.1271 140.452 15.6247 139.831C15.1223 139.211 14.4223 138.782 13.6416 138.616V137.816H13.7478V136.781H11.1328V137.816H11.2078V138.627C10.4375 138.802 9.74947 139.233 9.25647 139.85C8.76346 140.467 8.49477 141.234 8.49442 142.024H8.8569V142.658C8.8569 142.658 7.9973 143.064 8.8569 143.789C9.71649 144.514 9.58186 145.055 9.58186 145.055C9.58186 145.055 9.21938 146.412 8.49701 146.593V159.215C8.49701 159.959 8.79243 160.672 9.31829 161.198C9.84415 161.724 10.5574 162.02 11.301 162.02H13.5174C14.2588 162.017 14.969 161.721 15.4925 161.196C16.0161 160.671 16.3104 159.96 16.311 159.218V146.593C16.311 146.593 15.0449 145.643 15.2754 145.055C15.5759 144.428 15.9221 143.823 16.311 143.246V143.246Z" fill="#4C4C78"/>
</svg>
