<svg width="247" height="173" viewBox="0 0 247 173" fill="none" xmlns="http://www.w3.org/2000/svg">
<path d="M23.2667 42.0369C28.3429 53.5025 21.8677 66.7052 14.2456 76.6469C11.6945 79.9807 8.87818 83.4758 8.52451 87.6574C8.09803 92.7726 11.5619 97.4743 15.6707 100.548C23.1653 106.15 33.4009 107.881 42.3206 105.055C50.0284 102.613 56.5089 97.0972 64.2843 94.8738C77.2868 91.1499 91.0694 97.3234 102.205 105.016C110.087 110.453 118.528 117.079 128.03 115.914C134.716 115.095 140.39 110.401 144.242 104.875C146.101 102.207 147.719 99.2166 150.426 97.4171C152.035 96.3456 153.926 95.7787 155.817 95.3731C173.081 91.683 191.404 100.688 208.44 96.057C219.947 92.9364 229.122 83.8347 234.827 73.3625C240.533 62.8903 243.196 51.0658 245.414 39.3506C246.99 31.029 248.298 22.0391 244.676 14.3858C240.842 6.28268 231.97 1.37034 223.052 0.449766C214.135 -0.47081 205.192 2.06988 196.977 5.65336C186.713 10.1418 176.652 16.4246 165.449 16.4454C157.819 16.461 150.543 13.5329 143.248 11.299C131.052 7.56732 118.369 5.71317 105.731 4.00204C93.6309 2.36373 81.4112 0.839841 69.2383 1.80723C60.6254 2.49116 53.019 5.78338 44.661 7.30727C39.213 8.30066 33.7389 7.56732 28.3923 9.23164C21.8078 11.2912 15.0362 16.0631 14.6721 23.5786C14.3288 30.7325 20.5752 35.9543 23.2667 42.0369Z" fill="#E1EBFF"/>
<path d="M156.529 52.2464C155.419 49.3521 152.556 42.5492 150.67 43.8988C148.288 45.6048 153.052 53.141 153.052 53.141C153.188 54.5245 150.509 57.4032 149.074 58.8387C149.074 58.7243 149.074 58.6593 149.074 58.6593C149.06 58.7138 149.039 58.7663 149.011 58.8153L148.892 58.7503C148.86 58.865 148.802 58.9708 148.722 59.0597C148.722 58.8647 148.709 58.7503 148.709 58.7503C148.434 59.9179 143.623 61.3976 143.623 61.3976C143.623 61.3976 143.493 61.3976 143.269 61.3976C141.933 61.3976 138.453 61.0959 136.841 58.5162C136.007 57.1187 134.94 55.8742 133.686 54.8365C133.257 54.5001 132.736 54.3024 132.191 54.2696C127.736 53.9836 124.13 51.7289 123.409 51.2478L123.277 51.1568L123.248 51.24C123.079 50.9982 122.915 50.7407 122.762 50.4755L122.684 50.3325C123.762 49.7912 124.669 48.9618 125.305 47.9364C125.941 46.9109 126.28 45.7295 126.285 44.523C126.285 44.4788 126.285 44.4319 126.285 44.3877C126.677 43.7104 126.884 42.9417 126.884 42.1591V41.379L127.9 40.474C128.366 40.0605 128.847 39.6236 129.084 39.0541C129.179 38.8237 129.221 38.5749 129.208 38.326C129.231 38.1127 129.199 37.8971 129.115 37.6996C129.032 37.5021 128.899 37.3293 128.73 37.1974C127.95 36.6591 126.649 37.1974 126.085 36.4484C125.825 36.1104 125.872 35.6501 125.745 35.2522C125.484 34.4434 124.548 34.0066 123.682 33.9936C122.816 33.9806 121.987 34.2952 121.155 34.5319C119.406 35.0282 117.582 35.1992 115.772 35.0364C115.282 34.9492 114.779 34.9669 114.297 35.0884C114.003 35.2101 113.741 35.3995 113.533 35.6412C113.325 35.8829 113.177 36.1701 113.101 36.4796C113.037 36.7122 112.998 36.9512 112.986 37.1922C112.261 38.0105 111.86 39.0657 111.858 40.1593V42.1591C111.859 43.2267 112.242 44.2586 112.937 45.0691C113.019 46.01 113.305 46.9218 113.775 47.741C114.246 48.5601 114.889 49.267 115.66 49.8124C115.66 49.8644 115.66 49.9173 115.66 49.971L115.694 49.9918C115.652 50.6118 115.556 51.2269 115.408 51.8304V51.6977C115.408 51.6977 111.767 53.6351 107.866 53.6819H107.437C106.668 53.656 105.919 53.9366 105.357 54.4621C104.202 55.5491 102.179 57.268 100.936 57.268C100.676 57.268 94.1121 58.55 93.0251 58.7633L90.9941 56.7739L90.9317 56.8909L90.8121 56.7739C90.59 56.791 90.3693 56.8232 90.1515 56.8701C89.1113 55.6375 87.0309 52.7717 86.5498 48.9256C86.5498 48.9256 91.0409 43.8104 89.3896 39.0437C87.9801 34.9817 84.0976 43.6882 82.995 46.3121C82.8021 46.77 82.7781 47.2815 82.9273 47.7554L86.5758 59.5148C86.2284 60.426 86.1288 61.4131 86.2872 62.3754H86.2456L88.9033 65.7846C88.9033 65.7846 90.9031 66.6376 94.0315 66.622C96.3243 66.6257 98.5966 66.1896 100.725 65.3373H101.341L101.224 65.3815H104.389L106.402 71.4693C106.334 72.0232 105.362 79.7545 104.582 81.4838C104.35 82.0616 104.246 82.6824 104.275 83.3042C104.316 84.4988 104.511 85.6831 104.855 86.8278L106.618 86.7628L106.55 86.9006C105.058 89.9614 102.564 95.4147 101.089 100.512L98.5225 105.713L100.447 129.039H100.525L100.673 129.062C100.881 129.094 101.193 129.14 101.604 129.192L101.453 129.453L97.2119 136.474C97.2119 136.474 94.1875 142.666 100.879 141.498C100.879 141.498 103.352 140.78 104.361 136.557L108.761 132.43C108.761 132.43 108.966 129.689 107.72 128.594C107.642 127.328 107.445 123.63 107.749 122.741C108.116 121.664 106.189 109.283 106.189 109.283C106.189 109.283 113.153 94.8373 117.371 94.4785C117.68 94.4568 117.991 94.4974 118.284 94.5981C121.75 95.7267 125.95 104.108 127.185 106.716L127.242 106.836V106.859L127.289 106.961V106.989L127.331 107.078V107.101L127.367 107.182V107.2L127.398 107.265V107.291L127.422 107.341V107.361L127.437 107.398V107.419V107.442L127.45 107.473L127.999 123.713L128.054 123.742H128.08L128.033 124.077L127.794 125.755C127.794 125.755 130.818 132.126 130.633 132.932C130.449 133.738 132.649 136.971 135.764 136.073C138.88 135.176 137.025 130.118 137.025 130.118L134.024 123.934L133.892 123.659C134.191 123.475 134.473 123.265 134.734 123.032C134.734 123.032 133.819 116.393 134.734 114.957C135.65 113.522 135.925 106.971 135.925 106.971C135.925 106.971 135.283 102.485 134.183 100.512L129.575 84.0635C130.956 85.3481 132.03 85.85 132.927 85.8162H133.075C133.47 85.8237 133.859 85.7268 134.204 85.5354C134.389 85.4308 134.563 85.308 134.724 85.1687C134.755 85.1423 134.783 85.1136 134.81 85.0829V85.0829C136.092 84.0063 133.343 79.7883 131.785 77.2814C130.285 74.8629 132.352 68.2915 132.508 67.8026C132.647 67.7007 132.796 67.6136 132.953 67.5425C133.276 67.4044 133.622 67.3293 133.972 67.3215C135.465 67.3735 137.301 68.2317 139.574 68.6634C141.153 68.932 142.754 69.0565 144.356 69.0352H144.45C145.087 69.0352 145.664 69.0222 146.132 69.004C146.559 68.9872 146.977 68.8743 147.355 68.6738V68.6738C147.678 68.4851 147.971 68.2484 148.223 67.9716L152.212 63.465L152.108 63.5144C152.302 63.0033 152.302 62.4392 152.108 61.9281L156.324 54.6467C156.537 54.2879 156.666 53.8857 156.701 53.4701C156.737 53.0544 156.678 52.6362 156.529 52.2464V52.2464Z" fill="url(#paint0_linear_1_745)"/>
<path d="M109.169 131.814L104.922 135.884C103.95 140.044 101.56 140.749 101.56 140.749C95.1028 141.899 98.0206 135.808 98.0206 135.808L102.116 128.878L102.621 128.022C102.621 128.022 105.541 127.138 107.486 127.669C107.732 127.736 107.959 127.859 108.15 128.028C109.369 129.086 109.169 131.814 109.169 131.814Z" fill="#444176"/>
<path d="M135.353 135.441C132.344 136.326 130.222 133.143 130.412 132.344C130.602 131.546 127.664 125.276 127.664 125.276L127.892 123.622L128.106 122.091L133.047 122.444L133.512 123.422L136.409 129.52C136.409 129.52 138.362 134.557 135.353 135.441Z" fill="#444176"/>
<path opacity="0.1" d="M108.196 128.719C107.731 129.518 103.957 129.115 102.119 128.865L102.623 128.009C102.623 128.009 105.544 127.125 107.489 127.656C107.734 127.723 107.961 127.846 108.152 128.015C108.178 128.446 108.196 128.719 108.196 128.719Z" fill="black"/>
<path opacity="0.1" d="M133.517 123.417C130.987 125.102 128.293 123.828 127.887 123.617L128.101 122.085L133.042 122.439L133.517 123.417Z" fill="black"/>
<path d="M134.204 114.565C133.32 115.979 134.204 122.527 134.204 122.527C131.284 125.182 127.835 123.235 127.835 123.235L127.315 107.223C127.315 107.223 121.566 94.0415 117.496 94.3952C113.426 94.7488 106.704 108.992 106.704 108.992C106.704 108.992 108.56 121.198 108.207 122.254C107.853 123.31 108.207 128.446 108.207 128.446C107.588 129.507 101.131 128.446 101.131 128.446L99.274 105.445L101.739 100.311C103.157 95.2872 105.565 89.9093 107.005 86.8927C107.72 85.3923 108.199 84.4769 108.199 84.4769L112.906 83.4965L128.184 80.3291L133.673 100.311C134.734 102.256 135.353 106.68 135.353 106.68C135.353 106.68 135.088 113.15 134.204 114.565Z" fill="#565387"/>
<g opacity="0.1">
<path opacity="0.1" d="M129.25 123.235L128.73 107.223C128.73 107.223 122.98 94.0414 118.91 94.3951C118.728 94.4128 118.549 94.453 118.377 94.5147C122.346 95.8331 127.315 107.223 127.315 107.223L127.835 123.235C128.92 123.787 130.143 124.011 131.354 123.877C130.62 123.789 129.908 123.571 129.25 123.235V123.235Z" fill="black"/>
<path opacity="0.1" d="M102.535 128.454L100.678 105.453L103.154 100.311C104.571 95.2872 106.979 89.9094 108.42 86.8928C109.135 85.3924 109.614 84.477 109.614 84.477L114.321 83.4966L128.267 80.597L128.192 80.3188L112.906 83.4966L108.199 84.477C108.199 84.477 107.72 85.3924 107.005 86.8928C105.559 89.9094 103.157 95.2976 101.739 100.311L99.2637 105.442L101.12 128.444C101.12 128.444 104.647 129.023 106.738 128.896C105.33 128.82 103.928 128.672 102.535 128.454V128.454Z" fill="black"/>
</g>
<path d="M91.7768 57.1977C91.7768 57.1977 86.7345 57.4577 87.4418 62.7706L88.8565 62.9474L90.9785 60.6486L92.0395 58.7034V58.2613L91.7768 57.1977Z" fill="#CED2DF"/>
<path opacity="0.1" d="M91.7768 57.1977C91.7768 57.1977 86.7345 57.4577 87.4418 62.7706L88.8565 62.9474L90.9785 60.6486L92.0395 58.7034V58.2613L91.7768 57.1977Z" fill="black"/>
<path d="M147.872 59.1429C147.872 59.1429 152.033 61.3534 150.969 63.9201L149.643 64.4402L147.875 63.4676L147.615 61.1687L147.792 59.5772L147.872 59.1429Z" fill="#CED2DF"/>
<path opacity="0.1" d="M147.872 59.1429C147.872 59.1429 152.033 61.3534 150.969 63.9201L149.643 64.4402L147.875 63.4676L147.615 61.1687L147.792 59.5772L147.872 59.1429Z" fill="black"/>
<path d="M121.157 36.3184H117.618C114.589 36.3184 112.133 38.7738 112.133 41.8028C112.133 44.8318 114.589 47.2873 117.618 47.2873H121.157C124.186 47.2873 126.642 44.8318 126.642 41.8028C126.642 38.7738 124.186 36.3184 121.157 36.3184Z" fill="#88455E"/>
<path d="M91.7429 57.9493L88.6457 62.8902L88.3857 62.0113L84.1781 48.3015C84.0342 47.8341 84.0572 47.3313 84.2431 46.879C85.3067 44.2941 89.0566 35.6969 90.4167 39.7146C92.0082 44.3955 87.6732 49.4457 87.6732 49.4457C88.1673 53.544 90.4687 56.5138 91.3737 57.5436C91.6025 57.8115 91.7429 57.9493 91.7429 57.9493Z" fill="#EC8C9C"/>
<path d="M147.209 60.0713C147.209 60.0713 152.075 55.471 151.89 53.6143C151.89 53.6143 147.29 46.1847 149.591 44.5125C151.411 43.1811 154.176 49.8904 155.247 52.7431C155.389 53.1231 155.446 53.5295 155.414 53.9338C155.382 54.338 155.262 54.7305 155.062 55.0836L149.248 65.3789L147.209 60.0713Z" fill="#EC8C9C"/>
<path d="M115.714 47.2457C115.714 47.2457 116.599 52.907 114.034 55.0316C111.47 57.1562 121.378 57.1432 121.378 57.1432L124.917 53.8692C124.917 53.8692 120.848 50.0646 122.086 47.2353L115.714 47.2457Z" fill="#EC8C9C"/>
<path opacity="0.1" d="M115.538 53.7026C115.538 53.7026 119.342 56.5345 123.144 53.3489L129.336 66.1772L128.982 81.8348C128.982 81.8348 116.154 88.4686 110.846 84.4015C105.539 80.3343 109.962 78.2097 109.962 78.2097L108.724 66.1798L110.051 58.3939C110.051 58.3939 112.438 54.6778 112.617 54.6778C112.797 54.6778 115.538 53.7026 115.538 53.7026Z" fill="black"/>
<path d="M115.538 53.526C115.538 53.526 119.342 56.3631 123.147 53.1723L129.338 66.0005L128.985 81.6581C128.985 81.6581 116.157 88.292 110.849 84.2248C105.541 80.1576 109.965 78.033 109.965 78.033L108.727 66.0031L110.053 58.2173C110.053 58.2173 112.44 54.5012 112.62 54.5012C112.799 54.5012 115.538 53.526 115.538 53.526Z" fill="#EBF1F6"/>
<path opacity="0.1" d="M115.538 52.2021C115.538 52.2021 111.931 54.2565 108.014 54.1551C107.647 54.1436 107.281 54.2053 106.938 54.3365C106.594 54.4678 106.281 54.666 106.015 54.9197C104.899 55.9911 102.946 57.6866 101.737 57.6866C101.477 57.6866 93.9509 59.1897 93.9509 59.1897L91.9615 57.2003C91.9615 57.2003 88.9969 62.9942 87.5823 62.729L90.149 66.0914C90.149 66.0914 95.0145 68.2134 101.383 65.6493H105.099L107.044 71.6643C107.044 71.6643 106.072 79.8038 105.276 81.5721C104.48 83.3405 105.536 86.7913 105.536 86.7913L112.524 86.5313C112.524 86.5313 112.877 83.0804 113.408 82.6305C113.938 82.1807 111.551 66.973 111.551 66.973C111.551 66.973 109.96 58.3913 115.798 55.2967L115.538 52.2021Z" fill="black"/>
<path opacity="0.1" d="M112.903 83.5071C112.646 84.5565 112.463 85.6228 112.355 86.6979L107.005 86.9007C107.721 85.4002 108.199 84.4849 108.199 84.4849L112.903 83.5071Z" fill="black"/>
<path opacity="0.1" d="M91.743 57.9493L88.6458 62.8902L88.3857 62.0113C89.5222 60.8827 90.8536 58.524 91.3841 57.541C91.6026 57.8115 91.743 57.9493 91.743 57.9493Z" fill="black"/>
<path d="M115.538 52.2021C115.538 52.2021 111.751 54.2565 107.837 54.1551C107.47 54.1436 107.104 54.2053 106.761 54.3365C106.417 54.4678 106.104 54.666 105.838 54.9197C104.722 55.9911 102.769 57.6866 101.56 57.6866C101.3 57.6866 93.774 59.1897 93.774 59.1897L91.7768 57.1977C91.7768 57.1977 88.8123 62.9916 87.3976 62.7264L89.9643 66.0888C89.9643 66.0888 94.8298 68.2108 101.198 65.6467H104.915L106.86 71.6591C106.86 71.6591 105.887 79.7986 105.091 81.5669C104.296 83.3353 105.351 86.7861 105.351 86.7861L112.339 86.5261C112.339 86.5261 112.693 83.0752 113.223 82.6253C113.754 82.1755 111.366 66.9678 111.366 66.9678C111.366 66.9678 109.775 58.3861 115.613 55.2915L115.538 52.2021Z" fill="#CED2DF"/>
<path opacity="0.1" d="M123.147 51.6665C123.147 51.6665 126.756 54.4178 131.575 54.7351C132.102 54.7682 132.606 54.9635 133.018 55.2942C134.233 56.3252 135.263 57.5565 136.063 58.9349C138.008 62.1205 142.786 61.7668 142.786 61.7668C142.786 61.7668 147.43 60.308 147.695 59.1663C147.695 59.1663 147.828 65.4075 150.748 63.8992L146.907 68.3253C146.665 68.6049 146.368 68.8319 146.035 68.9925C145.702 69.1531 145.34 69.2437 144.97 69.2589C143.527 69.3161 141.02 69.3343 138.903 68.9234C135.717 68.3045 133.419 66.8014 131.739 68.1276C131.739 68.1276 129.528 75.0268 131.031 77.505C132.534 79.9833 135.192 84.1389 133.952 85.2025C132.711 86.2661 131.208 86.1751 128.732 83.611C126.257 81.0469 125.989 76.7119 125.989 76.7119L126.608 65.5662C126.608 65.5662 124.221 57.1613 121.927 55.4814L123.147 51.6665Z" fill="black"/>
<path opacity="0.1" d="M151.099 63.7874L147.248 68.2317C146.992 68.5265 146.675 68.7625 146.32 68.9234V68.9234C146.003 69.0661 145.663 69.1465 145.316 69.16C143.873 69.2199 141.366 69.2381 139.249 68.8246C136.269 68.2447 134.064 66.8924 132.415 67.8052C132.298 67.8696 132.187 67.9435 132.082 68.0262C132.082 68.0262 129.872 74.9253 131.375 77.4036C132.878 79.8819 135.535 84.0375 134.295 85.1011C134.087 85.2837 133.854 85.4352 133.603 85.551C132.49 86.0529 131.109 85.6186 129.076 83.5096C126.6 80.9429 126.332 76.6105 126.332 76.6105L126.951 65.4647C126.951 65.4647 124.564 57.0599 122.27 55.38L123.282 51.7523C123.979 52.2256 127.458 54.449 131.759 54.7325C132.287 54.7656 132.791 54.9609 133.203 55.2916C134.418 56.3227 135.448 57.554 136.248 58.9323C138.193 62.1179 142.97 61.7642 142.97 61.7642C144.115 61.3989 145.234 60.954 146.317 60.4328V60.4328C146.996 60.0999 147.594 59.7358 147.877 59.3926C147.957 59.3029 148.015 59.1961 148.046 59.0805C148.046 59.0805 148.182 65.2905 151.099 63.7874Z" fill="black"/>
<path d="M150.922 63.8759L147.074 68.3253C146.862 68.5695 146.608 68.7738 146.325 68.9286V68.9286C145.961 69.126 145.557 69.2372 145.144 69.2537C143.701 69.3135 141.194 69.3317 139.077 68.9182C136.204 68.3591 134.048 67.0797 132.423 67.8104C132.237 67.8912 132.062 67.9952 131.902 68.1199C131.902 68.1199 129.692 75.019 131.195 77.4972C132.698 79.9755 135.356 84.1311 134.115 85.1947C133.955 85.3328 133.781 85.454 133.595 85.5562C132.451 86.1881 131.036 85.8162 128.891 83.6032C126.415 81.0365 126.148 76.7041 126.148 76.7041L126.766 65.5584C126.766 65.5584 124.379 57.1536 122.086 55.4736L123.147 51.6691L123.274 51.7575C123.971 52.2308 127.45 54.4543 131.752 54.7377C132.279 54.7708 132.783 54.9661 133.195 55.2968C134.41 56.3279 135.44 57.5592 136.24 58.9375C138.185 62.1231 142.962 61.7695 142.962 61.7695C144.108 61.4041 145.226 60.9592 146.309 60.438V60.438C147.113 60.0271 147.768 59.5772 147.869 59.1664C147.869 59.1664 147.869 59.247 147.869 59.39C147.948 60.464 148.338 65.2047 150.922 63.8759Z" fill="#CED2DF"/>
<path opacity="0.1" d="M122.164 47.3782H115.662C115.805 48.4119 115.846 49.4571 115.785 50.4988C116.777 51.1972 117.941 51.6121 119.151 51.6992C120.362 51.7862 121.573 51.5421 122.655 50.9929C122.031 49.8383 121.651 48.5277 122.164 47.3782Z" fill="black"/>
<path d="M119.607 51.5782C123.173 51.5782 126.064 48.6873 126.064 45.1212C126.064 41.5551 123.173 38.6642 119.607 38.6642C116.041 38.6642 113.15 41.5551 113.15 45.1212C113.15 48.6873 116.041 51.5782 119.607 51.5782Z" fill="#EC8C9C"/>
<path opacity="0.1" d="M118.265 43.9716C118.986 43.8858 119.706 43.6309 120.416 43.774C121.061 43.904 121.61 44.3487 122.255 44.4839C123.498 44.7439 124.652 43.8286 125.591 42.9756L127.619 41.1293C128.069 40.721 128.532 40.2919 128.764 39.7302C128.995 39.1685 128.915 38.4299 128.42 38.0763C127.679 37.5562 126.402 38.0763 125.867 37.3377C125.625 37.0049 125.661 36.5576 125.536 36.1597C125.276 35.3639 124.382 34.9297 123.544 34.9193C122.707 34.9089 121.906 35.2157 121.105 35.4394C119.418 35.9288 117.654 36.0973 115.904 35.9361C115.432 35.8496 114.947 35.8665 114.482 35.9855C114.196 36.1077 113.942 36.2953 113.741 36.5333C113.541 36.7714 113.399 37.0531 113.327 37.3559C112.927 38.7706 113.611 41.0512 114.297 42.3177C114.984 43.5841 116.895 44.1406 118.265 43.9716Z" fill="black"/>
<path d="M118.265 43.7948C118.986 43.709 119.706 43.4541 120.416 43.5971C121.061 43.7272 121.61 44.1718 122.255 44.3071C123.498 44.5671 124.652 43.6517 125.591 42.7988L127.619 40.9524C128.069 40.5441 128.532 40.1151 128.764 39.5534C128.995 38.9917 128.915 38.2531 128.42 37.8994C127.679 37.3793 126.402 37.8994 125.867 37.1609C125.625 36.828 125.661 36.3808 125.536 35.9829C125.276 35.1871 124.382 34.7528 123.544 34.7424C122.707 34.732 121.906 35.0389 121.105 35.2625C119.418 35.752 117.654 35.9205 115.904 35.7592C115.432 35.6728 114.947 35.6896 114.482 35.8086C114.196 35.9308 113.942 36.1185 113.741 36.3565C113.541 36.5945 113.399 36.8763 113.327 37.1791C112.927 38.5938 113.611 40.8744 114.297 42.1409C114.984 43.4073 116.895 43.9508 118.265 43.7948Z" fill="#88455E"/>
<path opacity="0.1" d="M107.003 71.7058C107.003 71.7058 108.417 71.8826 109.125 72.7668C109.832 73.651 111.07 73.9162 111.07 73.9162" fill="black"/>
<path opacity="0.1" d="M94.2629 60.0271C94.2629 60.0271 95.4175 62.6042 94.705 62.8642C93.9924 63.1243 94.2629 64.9862 94.2629 64.9862" fill="black"/>
<g opacity="0.1">
<path opacity="0.1" d="M94.6607 59.1428C94.6607 59.1428 102.179 57.6397 102.439 57.6397C103.651 57.6397 105.601 55.9442 106.717 54.8728C107.056 54.5477 107.473 54.3157 107.928 54.1992H107.832C107.465 54.1877 107.099 54.2494 106.756 54.3807C106.412 54.5119 106.098 54.7101 105.832 54.9638C104.717 56.0352 102.764 57.7307 101.555 57.7307C101.344 57.7307 96.5331 58.6851 94.5801 59.0726L94.6607 59.1428Z" fill="black"/>
<path opacity="0.1" d="M115.548 52.574V52.2437C113.739 53.1659 111.793 53.7886 109.785 54.0875C111.777 53.9102 113.726 53.3985 115.548 52.574V52.574Z" fill="black"/>
<path opacity="0.1" d="M106.251 86.7419C106.251 86.7419 105.19 83.291 105.991 81.5227C106.792 79.7544 107.759 71.6148 107.759 71.6148L105.819 65.5999H102.093L101.867 65.6883H104.922L106.86 71.7058C106.86 71.7058 105.887 79.8454 105.091 81.6137C104.296 83.382 105.351 86.8329 105.351 86.8329L112.339 86.5729V86.5182L106.251 86.7419Z" fill="black"/>
</g>
<g opacity="0.1">
<path opacity="0.1" d="M134.204 83.7798C134.043 83.9179 133.869 84.0391 133.684 84.1413C132.54 84.7732 131.125 84.4014 128.979 82.1883C127.014 80.1521 126.441 76.9873 126.288 75.7885L126.236 76.7039C126.236 76.7039 126.496 81.0389 128.979 83.603C131.125 85.8238 132.54 86.1879 133.684 85.556C133.869 85.4537 134.043 85.3326 134.204 85.1945C134.576 84.8746 134.597 84.2739 134.402 83.525C134.353 83.6222 134.286 83.7088 134.204 83.7798V83.7798Z" fill="black"/>
<path opacity="0.1" d="M149.672 64.0083L147.167 66.9026C146.956 67.1468 146.702 67.3512 146.418 67.506V67.506C146.055 67.7033 145.651 67.8145 145.238 67.831C143.795 67.8908 141.288 67.909 139.171 67.4955C136.297 66.9364 134.142 65.657 132.516 66.3877C132.331 66.4686 132.156 66.5726 131.996 66.6972C131.996 66.6972 130.568 71.1544 130.787 74.1892C130.956 71.3521 131.996 68.1119 131.996 68.1119C132.156 67.9872 132.331 67.8832 132.516 67.8024C134.144 67.0717 136.297 68.3511 139.171 68.9102C141.288 69.3211 143.792 69.3029 145.238 69.2457C145.651 69.2292 146.055 69.118 146.418 68.9206C146.701 68.7682 146.955 68.5665 147.167 68.3251L151.019 63.8809C150.819 64.005 150.594 64.0811 150.36 64.1032C150.126 64.1253 149.891 64.0928 149.672 64.0083V64.0083Z" fill="black"/>
</g>
<path d="M36.5786 95.8618C36.6094 95.8916 36.6489 95.9107 36.6913 95.9163C36.7338 95.9219 36.7769 95.9137 36.8143 95.8929C36.7346 95.8943 36.6552 95.8838 36.5786 95.8618V95.8618Z" fill="url(#paint1_linear_1_745)"/>
<path d="M63.0804 52.7848C62.6123 52.6495 61.9439 52.4285 61.1404 52.1476C61.9754 51.0733 62.5865 49.8424 62.9373 48.5278L62.8697 48.5538C62.8931 48.4731 62.9165 48.3951 62.9373 48.3119C61.3952 48.9386 59.6893 47.8776 58.6023 46.515C57.5153 45.1523 56.782 43.462 55.5909 42.2085C55.0946 41.7099 54.5608 41.25 53.9942 40.8329C53.6432 40.5728 53.2661 40.279 52.837 40.266C52.1427 40.2452 51.5992 40.9265 50.9308 41.1267C50.4911 41.2257 50.0332 41.2087 49.602 41.0773C47.8779 40.6821 46.2213 39.9513 44.4608 39.7589C43.5189 39.6425 42.5628 39.7504 41.6705 40.0735C40.7863 40.409 40.3832 41.0773 39.6681 41.613C38.8879 42.1877 37.364 42.1747 36.4565 42.2762C35.3552 42.4019 34.2462 42.448 33.1382 42.414C32.5015 42.3588 31.8604 42.3824 31.2295 42.4842C29.911 42.7729 28.8526 43.8209 27.8644 44.8246C27.5947 45.0517 27.4006 45.3556 27.3079 45.6958C27.2953 45.7916 27.2953 45.8887 27.3079 45.9845C27.298 46.2466 27.3432 46.508 27.4406 46.7516C27.7448 47.6543 28.1746 48.5096 28.7174 49.2923C29.1205 49.8696 29.5912 50.4131 29.82 51.097C29.9285 51.4333 29.9855 51.784 29.989 52.1372C29.9778 52.5124 29.9387 52.8861 29.872 53.2554C29.6975 54.2765 29.4106 55.2751 29.0165 56.233C28.7718 56.7248 28.6034 57.2509 28.5172 57.7933C28.5097 57.9041 28.5097 58.0154 28.5172 58.1262C28.4522 59.8425 30.1841 61.0777 30.5195 62.7837C30.5471 62.9252 30.5636 63.0687 30.569 63.2128C30.5325 64.2764 29.9266 65.3165 29.0321 65.73C29.1101 65.7612 29.1907 65.7872 29.2713 65.8132C29.1944 65.8616 29.1145 65.905 29.0321 65.9433C29.1959 66.0057 29.3623 66.0603 29.5314 66.1045C28.5147 66.99 27.6602 68.046 27.0063 69.2251C23.9975 74.8266 3.62002 85.7981 3.62002 85.7981L3.92168 85.9697L3.67723 86.1283C1.91409 87.3011 -2.2233 90.7208 1.51622 95.0454C1.51622 95.0454 4.43657 90.4373 6.48316 88.474C6.57418 88.3856 6.6652 88.3049 6.74321 88.2295C6.78817 88.2988 6.81832 88.3765 6.83175 88.458C6.84517 88.5395 6.84159 88.6228 6.82123 88.7028L20.219 81.1744C20.219 81.1744 24.9805 77.8405 26.3093 77.089C27.2447 76.5063 28.2625 76.0679 29.3285 75.7888L29.1725 75.8538C29.6734 75.716 30.1899 75.6426 30.7094 75.6353C33.081 75.6717 35.6503 77.4089 36.4955 84.2872C37.6293 93.4981 37.104 95.1598 36.7399 95.3861C36.695 95.3828 36.6506 95.3749 36.6073 95.3627C36.6186 95.3725 36.6307 95.3812 36.6437 95.3887C36.5944 95.3852 36.5456 95.3765 36.4981 95.3627C36.5243 95.3867 36.5562 95.4037 36.5908 95.4118C36.6254 95.42 36.6615 95.4192 36.6957 95.4095C36.7203 95.4169 36.7462 95.4192 36.7718 95.416C36.7973 95.4129 36.8219 95.4045 36.844 95.3913C36.9037 95.3948 36.9636 95.3948 37.0234 95.3913C37.0234 95.4762 37.0173 95.5629 37.0052 95.6513C36.987 95.6513 36.8986 95.7007 37.0052 95.7059C36.9766 96.226 36.9792 96.7904 37.0052 97.3807C35.8272 97.4457 34.6491 97.5159 33.6245 97.5783L33.7156 97.092L33.7572 96.8736C34.6621 96.8008 35.5203 96.5355 35.6217 95.8022C35.8428 94.1899 33.6297 93.3291 31.747 93.2225C29.8642 93.1159 18.5729 93.8674 18.5729 93.8674C18.5729 93.8674 16.8799 96.0596 22.25 96.7279C22.4095 96.8112 22.575 96.8978 22.7467 96.988C24.8505 98.1868 27.7032 100.395 29.0711 101.482L29.2609 101.632L28.6472 102.132C31.968 102.883 35.1796 115.574 36.9506 121.375C38.7215 127.177 42.5963 126.967 45.8079 126.106C48.8166 125.3 49.1885 116.562 49.2379 115.465V115.353L54.5897 121.963L54.9954 122.465C55.1514 122.547 55.3057 122.623 55.4583 122.694C59.5099 124.621 63.9853 120.926 62.7137 116.713C61.4264 112.466 59.4293 106.186 58.0978 103.531C56.9822 101.307 55.5415 97.6147 54.6677 95.3029C54.7812 95.2573 54.8915 95.2043 54.998 95.1442C54.998 95.1442 54.9772 95.0402 54.9434 94.8504L54.998 94.8218C54.998 94.8218 53.6978 88.1333 53.6406 83.3796C53.6406 83.2964 53.6406 83.2097 53.6406 83.1196C53.6406 83.0675 53.6406 83.0155 53.6406 82.9661C54.6079 82.7451 55.2217 82.6593 55.2217 82.6593L55.2399 82.4512L55.128 82.4746L55.6663 76.314C55.6663 76.314 57.6427 72.109 56.1292 70.3589C55.6691 69.8471 55.3619 69.2164 55.2425 68.5386C54.9824 66.9289 55.2425 64.2425 58.7661 62.0113C64.1908 58.5709 66.3076 55.7701 66.3076 55.7701C66.3076 55.7701 66.4012 53.7625 63.0804 52.7848ZM52.3065 57.06V54.2124C53.3129 54.163 54.3401 54.2801 55.3517 54.2124C55.8483 54.1777 56.3403 54.095 56.821 53.9654L57.0654 54.1344C55.5854 55.2728 53.9904 56.2533 52.3065 57.06V57.06ZM36.9246 101.695C37.3224 101.971 37.7229 102.257 38.1156 102.545C38.36 103.95 38.5759 104.94 38.5915 105.011C38.1427 103.855 37.5845 102.744 36.9246 101.695V101.695Z" fill="url(#paint2_linear_1_745)"/>
<path d="M45.5218 99.3544L45.2878 100.626L45.1083 101.599L44.7807 103.377L41.6029 105.601C41.6029 105.601 41.3168 105.356 40.8435 104.969C39.5433 103.897 36.805 101.723 34.7948 100.548C34.2782 100.218 33.7192 99.9601 33.1331 99.7809L45.5218 99.3544Z" fill="#FFBDC6"/>
<path opacity="0.1" d="M45.5217 99.3544L45.2877 100.626C44.5872 100.665 43.8846 100.629 43.1917 100.519L35.7777 100.626C35.4266 100.605 35.0989 100.577 34.7921 100.545C34.2755 100.216 33.7165 99.9575 33.1304 99.7783L45.5217 99.3544Z" fill="black"/>
<path d="M43.1918 100.311C43.1918 100.311 46.9001 100.946 47.1107 99.3569C47.3213 97.768 45.2045 96.9307 43.4076 96.8111C41.6107 96.6914 30.8004 97.4508 30.8004 97.4508C30.8004 97.4508 28.8942 99.9915 35.7777 100.415L43.1918 100.311Z" fill="#7679B4"/>
<path opacity="0.1" d="M45.5218 99.3544L45.2878 100.626L45.1083 101.599L44.7807 103.377L41.6029 105.601C41.6029 105.601 41.3168 105.356 40.8435 104.969C39.5433 103.897 36.805 101.723 34.7948 100.548C34.2782 100.218 33.7192 99.9601 33.1331 99.7809L45.5218 99.3544Z" fill="black"/>
<path opacity="0.1" d="M45.5217 99.3544L45.2877 100.626C44.5872 100.665 43.8846 100.629 43.1917 100.519L35.7777 100.626C35.4266 100.605 35.0989 100.577 34.7921 100.545C34.2755 100.216 33.7165 99.9575 33.1304 99.7783L45.5217 99.3544Z" fill="black"/>
<path opacity="0.1" d="M43.1918 100.311C43.1918 100.311 46.9001 100.946 47.1107 99.3569C47.3213 97.768 45.2045 96.9307 43.4076 96.8111C41.6107 96.6914 30.8004 97.4508 30.8004 97.4508C30.8004 97.4508 28.8942 99.9915 35.7777 100.415L43.1918 100.311Z" fill="black"/>
<path d="M51.2923 48.0909H31.9108V71.0741H51.2923V48.0909Z" fill="#A66477"/>
<path opacity="0.1" d="M51.2923 48.0909H31.9108V71.0741H51.2923V48.0909Z" fill="black"/>
<path d="M9.19289 87.439C8.87303 87.5196 8.46735 87.8264 8.01226 88.2737C6.05409 90.2085 3.26116 94.7464 3.26116 94.7464C-0.317124 90.4868 3.64343 87.1191 5.34155 85.9619C5.75243 85.681 6.02808 85.5302 6.02808 85.5302L9.19289 87.439Z" fill="#FFBDC6"/>
<path d="M45.3112 55.3462C45.3112 55.3462 46.2656 62.0191 49.5474 63.608C52.8292 65.1969 45.3112 68.1614 45.3112 68.1614L35.0366 64.3491C35.0366 64.3491 40.8617 62.4429 39.6967 56.8285L45.3112 55.3462Z" fill="#FFBDC6"/>
<path d="M34.3058 95.4874L34.0717 96.7591L33.8923 97.7316L33.5646 99.5104L30.3868 101.734C30.3868 101.734 30.1008 101.489 29.6275 101.102C28.3272 100.03 25.5889 97.8565 23.5787 96.6811C23.0621 96.3512 22.5031 96.0931 21.917 95.9139L34.3058 95.4874Z" fill="#FFBDC6"/>
<path opacity="0.1" d="M34.3059 95.4874L34.0719 96.7591C33.3714 96.798 32.6688 96.7623 31.9759 96.6524L24.5619 96.7591C24.2108 96.7383 23.8831 96.7097 23.5763 96.6785C23.0597 96.3486 22.5007 96.0905 21.9146 95.9113L34.3059 95.4874Z" fill="black"/>
<path d="M31.9654 96.4419C31.9654 96.4419 35.6737 97.0764 35.8843 95.4875C36.0949 93.8986 33.9781 93.0508 32.176 92.9468C30.3738 92.8428 19.5714 93.5813 19.5714 93.5813C19.5714 93.5813 17.6652 96.122 24.5487 96.5459L31.9654 96.4419Z" fill="#7679B4"/>
<path opacity="0.1" d="M33.882 97.7343L33.5543 99.513L30.3765 101.736C30.3765 101.736 30.0905 101.492 29.6172 101.105L33.8196 97.6589L33.882 97.7343Z" fill="black"/>
<path d="M54.8498 121.981C54.7042 121.91 54.5568 121.835 54.4077 121.755L54.0202 121.261L48.9025 114.76V114.874C48.8686 115.953 48.4994 124.561 45.6232 125.354C42.552 126.202 38.8437 126.413 37.1508 120.694C35.4579 114.976 32.3841 102.478 29.2063 101.736L33.9184 97.8695C33.9184 97.8695 37.039 101.51 38.3132 105.016C38.2664 104.792 36.1106 94.7255 37.8894 92.9467H53.3519C53.3519 92.9467 55.734 99.7444 57.3775 103.115C58.6517 105.731 60.5631 111.915 61.7983 116.099C63.0205 120.239 58.7505 123.88 54.8498 121.981Z" fill="#7679B4"/>
<path opacity="0.1" d="M54.418 94.8502C52.0334 96.2623 41.5482 95.6876 38.1311 95.4587L37.2027 95.3911C37.1013 95.3911 37.2183 95.3339 37.2183 95.3339L37.3146 94.3717L39.8552 87.9121L53.4662 80.0274C53.1906 80.857 53.097 82.1286 53.1204 83.5875C53.188 88.2632 54.418 94.8502 54.418 94.8502Z" fill="black"/>
<path d="M54.418 94.5357C52.0334 95.9478 41.5482 95.3731 38.1311 95.1442L37.2028 95.0766H37.0493L37.2184 95.0324L38.0557 94.8114L39.8553 87.608L53.4662 79.7181C53.1906 80.5476 53.097 81.8193 53.1204 83.2782C53.188 87.946 54.418 94.5357 54.418 94.5357Z" fill="#F2F1F2"/>
<path opacity="0.1" d="M53.1205 83.2678C50.3536 83.9049 44.2632 85.7799 41.9227 90.2891C40.3625 93.3005 39.0622 94.5929 38.1338 95.1338L37.2054 95.0662L37.221 95.009L38.0584 94.788L39.858 87.5846L53.4689 79.6947C53.1881 80.5477 53.0971 81.8089 53.1205 83.2678Z" fill="black"/>
<path opacity="0.1" d="M6.01514 85.5327L9.19295 87.4389C8.87308 87.5195 8.46741 87.8263 8.01232 88.2736C7.75227 87.4935 6.08276 86.4221 5.32861 85.9644C5.73949 85.6835 6.01514 85.5327 6.01514 85.5327Z" fill="black"/>
<path opacity="0.1" d="M36.6455 95.1988C36.6102 95.2185 36.5695 95.2263 36.5294 95.2212C36.4893 95.2161 36.4519 95.1982 36.4227 95.1703C36.4952 95.1907 36.5702 95.2003 36.6455 95.1988V95.1988Z" fill="black"/>
<path d="M43.8263 63.1841C43.8263 63.1841 40.9658 63.5014 38.953 61.3845C38.953 61.3845 30.4806 63.8212 27.62 69.3291C24.7595 74.8369 5.27136 85.6394 5.27136 85.6394C5.27136 85.6394 8.65201 87.5455 8.34255 88.4999L21.1578 81.0859C21.1578 81.0859 25.7113 77.8015 26.9829 77.0603C28.2545 76.3192 35.2447 71.7657 36.727 84.1571C38.2092 96.5485 36.727 95.0792 36.727 95.0792C36.727 95.0792 38.8464 95.8203 41.9279 89.8782C45.0095 83.936 54.5326 82.5708 54.5326 82.5708L55.0527 76.3296C55.0527 76.3296 56.9432 72.1896 55.4947 70.4629C55.053 69.9548 54.7597 69.3349 54.647 68.6711C54.4051 67.0848 54.647 64.4401 58.0276 62.2427C63.2286 58.8621 65.231 56.1003 65.231 56.1003C65.231 56.1003 65.3376 54.0876 62.1598 53.1358C58.982 52.184 46.0601 46.9934 46.0601 46.9934L45.6363 48.793L55.8042 55.9963C55.8042 55.9963 50.7202 60.1259 46.7025 60.0219C46.6869 60.0037 47.428 63.0775 43.8263 63.1841Z" fill="#565388"/>
<path opacity="0.1" d="M45.7897 58.2511C45.5392 57.3976 45.3438 56.529 45.2045 55.6506L39.5901 57.1433C39.8359 58.2146 39.7919 59.3321 39.4626 60.3809C40.6101 60.687 41.8223 60.648 42.9477 60.2687C44.0731 59.8894 45.0616 59.1867 45.7897 58.2485V58.2511Z" fill="black"/>
<path d="M41.127 60.2715C44.4619 60.2715 47.1653 57.5681 47.1653 54.2332C47.1653 50.8983 44.4619 48.1948 41.127 48.1948C37.7921 48.1948 35.0886 50.8983 35.0886 54.2332C35.0886 57.5681 37.7921 60.2715 41.127 60.2715Z" fill="#FFBDC6"/>
<path opacity="0.1" d="M44.336 40.4999C46.0107 40.6897 47.6048 41.4101 49.2536 41.8001C49.6655 41.9293 50.1045 41.9464 50.5252 41.8495C51.1649 41.6519 51.685 40.981 52.3455 41.0018C52.7538 41.0018 53.1257 41.293 53.4534 41.5609C53.9962 41.9727 54.5065 42.4257 54.9799 42.9158C56.1163 44.151 56.8236 45.8153 57.8612 47.1572C58.8988 48.499 60.5345 49.5444 62.009 48.9281C61.0078 52.8288 57.7208 55.8116 54.1685 56.0535C52.7512 56.1497 51.308 55.8558 49.9271 56.2719C49.5849 56.4114 49.2238 56.4991 48.8557 56.5319C48.0755 56.5319 47.4306 55.8064 46.9365 55.1017C45.7819 53.4426 44.8561 51.5598 43.5559 50.0489C43.1268 49.5496 42.6197 49.0737 42.0138 48.9827C41.4079 48.8917 40.8488 49.1803 40.3079 49.4612C39.4159 49.9241 38.5031 50.4026 37.8114 51.1931C37.1196 51.9837 36.6828 53.1669 36.9688 54.2383C37.1222 54.8156 37.4759 55.3357 37.4889 55.9416C37.4889 56.9038 36.6516 57.6086 36.4825 58.5421C36.4453 58.9362 36.4314 59.3322 36.4409 59.728C36.3655 61.0126 35.5281 62.0684 34.6492 62.872C34.3085 63.1866 33.9288 63.5221 33.83 64.0084C33.7624 64.3386 33.83 64.6897 33.7858 65.0252C33.6584 65.8599 32.8262 66.2812 32.0903 66.3904C31.2308 66.5164 30.3532 66.4123 29.547 66.0888C30.5872 65.6025 31.2087 64.2164 30.9695 62.9682C30.6418 61.2492 28.9151 60.0166 29.0607 58.2639C29.1422 57.7271 29.3034 57.2056 29.5392 56.7166C29.916 55.771 30.1898 54.7875 30.3558 53.7832C30.5259 53.0103 30.509 52.2079 30.3063 51.4428C30.0853 50.7692 29.6354 50.2335 29.2505 49.664C28.7293 48.8898 28.318 48.047 28.0283 47.1598C27.9233 46.8975 27.8832 46.6139 27.9113 46.3328C27.9952 46.0013 28.1763 45.7024 28.4314 45.4746C29.378 44.4839 30.3922 43.4515 31.6508 43.1654C32.2522 43.0652 32.8638 43.0416 33.4711 43.0952C34.5314 43.1289 35.5928 43.0837 36.6464 42.96C37.5149 42.8585 38.9868 42.8715 39.7201 42.3046C40.4041 41.7845 40.7915 41.1214 41.6367 40.7885C42.4993 40.4728 43.4262 40.3736 44.336 40.4999V40.4999Z" fill="black"/>
<path opacity="0.1" d="M47.6932 102.849C47.6932 102.849 51.1883 109.733 50.1299 111.852Z" fill="black"/>
<path opacity="0.1" d="M54.0306 121.261L48.9129 114.76V114.874C48.9129 114.874 48.6164 112.773 49.5916 113.48C51.7266 115.025 55.1437 117.558 55.2165 117.995C55.2893 118.432 54.5247 120.184 54.0306 121.261Z" fill="black"/>
<g opacity="0.1">
<path opacity="0.1" d="M46.7883 60.0036C46.7883 60.0036 47.22 61.7927 45.8235 62.6873C47.9741 62.318 48.0677 60.6459 48.0027 59.9178C47.6013 59.9828 47.1948 60.0115 46.7883 60.0036V60.0036Z" fill="black"/>
<path opacity="0.1" d="M6.54555 85.2154C6.54555 85.2154 26.0337 74.413 28.8942 68.9051C30.946 64.9524 35.8895 62.5833 38.516 61.5587C36.5995 62.201 30.1503 64.6637 27.7266 69.329C24.866 74.8368 5.37793 85.6393 5.37793 85.6393L6.54555 85.2154Z" fill="black"/>
<path opacity="0.1" d="M50.5799 59.1637C53.8955 58.1235 57.0655 55.5569 57.0655 55.5569L46.8976 48.3535L47.129 47.3653L46.1564 46.9752L45.7325 48.7748L55.9005 55.9781C54.2688 57.2608 52.481 58.3312 50.5799 59.1637V59.1637Z" fill="black"/>
<path opacity="0.1" d="M50.6448 83.572C51.944 83.1285 53.2773 82.7919 54.6313 82.5656L54.6495 82.3602C53.2853 82.6598 51.9463 83.065 50.6448 83.572V83.572Z" fill="black"/>
<path opacity="0.1" d="M38.3211 94.6683H38.2275C38.192 94.6881 38.1512 94.696 38.1109 94.6908C38.0707 94.6857 38.0331 94.6678 38.0038 94.6397C38.0766 94.6601 38.1519 94.6697 38.2275 94.6683C38.5759 94.4655 39.0986 92.8844 38.0038 83.7307C36.8336 73.958 32.2411 74.7251 29.7264 75.8486C32.2957 75.1412 35.8324 75.7523 36.8388 84.1545C37.9336 93.3083 37.4109 94.892 37.0624 95.0922C37.5141 95.0754 37.9513 94.9282 38.3211 94.6683Z" fill="black"/>
<path opacity="0.1" d="M37.0616 95.0947C36.9864 95.096 36.9113 95.0864 36.8389 95.0662C36.8681 95.0941 36.9055 95.1119 36.9455 95.1171C36.9856 95.1222 37.0263 95.1143 37.0616 95.0947V95.0947Z" fill="black"/>
</g>
<path d="M44.336 40.2947C46.0107 40.4845 47.6048 41.2049 49.2536 41.5949C49.6655 41.7241 50.1045 41.7412 50.5252 41.6443C51.1649 41.4467 51.685 40.7758 52.3455 40.7966C52.7538 40.7966 53.1257 41.0878 53.4534 41.3557C53.9962 41.7675 54.5065 42.2205 54.9799 42.7106C56.1163 43.9458 56.8236 45.6101 57.8612 46.952C58.8988 48.2938 60.5345 49.3392 62.009 48.7229C61.0078 52.6236 57.7208 55.6064 54.1685 55.8483C52.7512 55.9445 51.308 55.6506 49.9271 56.0667C49.5849 56.2062 49.2238 56.2939 48.8557 56.3267C48.0755 56.3267 47.4306 55.6012 46.9365 54.8965C45.7819 53.2374 44.8561 51.3546 43.5559 49.8437C43.1268 49.3444 42.6197 48.8685 42.0138 48.7775C41.4079 48.6865 40.8488 48.9751 40.3079 49.256C39.4159 49.7189 38.5031 50.1974 37.8114 50.9879C37.1196 51.7785 36.6828 52.9617 36.9688 54.0331C37.1222 54.6104 37.4759 55.1305 37.4889 55.7364C37.4889 56.6986 36.6516 57.4034 36.4825 58.3369C36.4453 58.731 36.4314 59.127 36.4409 59.5228C36.3655 60.8074 35.5281 61.8632 34.6492 62.6668C34.3085 62.9814 33.9288 63.3169 33.83 63.8032C33.7624 64.1334 33.83 64.4845 33.7858 64.82C33.6584 65.6547 32.8262 66.076 32.0903 66.1852C31.2308 66.3112 30.3532 66.2071 29.547 65.8836C30.5872 65.3973 31.2087 64.0112 30.9695 62.763C30.6418 61.044 28.9151 59.8114 29.0607 58.0587C29.1422 57.5219 29.3034 57.0004 29.5392 56.5114C29.916 55.5658 30.1898 54.5823 30.3558 53.578C30.5259 52.8051 30.509 52.0027 30.3063 51.2376C30.0853 50.5641 29.6354 50.0283 29.2505 49.4588C28.7293 48.6846 28.318 47.8418 28.0283 46.9546C27.9233 46.6923 27.8832 46.4087 27.9113 46.1276C27.9952 45.7961 28.1763 45.4972 28.4314 45.2694C29.378 44.2786 30.3922 43.2463 31.6508 42.9602C32.2522 42.86 32.8638 42.8364 33.4711 42.89C34.5314 42.9237 35.5928 42.8785 36.6464 42.7548C37.5149 42.6533 38.9868 42.6663 39.7201 42.0994C40.4041 41.5793 40.7915 40.9162 41.6367 40.5833C42.4993 40.2676 43.4262 40.1684 44.336 40.2947V40.2947Z" fill="#A66477"/>
<path d="M216.757 26.7406C216.757 26.7068 216.757 26.6756 216.757 26.6444C216.757 26.6132 216.757 26.5768 216.741 26.5456H216.699C216.699 26.4753 216.699 26.4051 216.699 26.3297C216.595 23.9191 213.262 18.7883 211.925 20.2862C210.755 21.602 212.52 24.9306 213.42 26.4285L213.501 26.5638L213.457 26.5352C213.457 26.5352 209.735 37.6341 209.296 38.0658C208.856 38.4974 205.793 47.2247 201.754 48.2077C200.956 48.3975 200.293 48.5692 199.736 48.7278L199.781 48.5796C200.041 47.7292 200.36 46.9256 200.49 45.9791C200.621 45.0325 200.491 43.8857 200.012 43.4254C199.778 43.1965 199.492 43.1653 199.299 42.8013C199.175 42.4819 199.108 42.1429 199.102 41.8001L198.759 37.5925L198.998 37.5196C200.444 37.0568 201.845 35.9594 202.009 34.4823C201.959 34.5014 201.908 34.5179 201.856 34.5317C201.875 34.4458 201.89 34.359 201.9 34.2716C200.686 34.7501 199.56 33.4915 198.389 32.9272C196.462 31.9832 194.26 32.8726 192.27 33.0884C190.016 33.3355 187.875 32.3993 185.571 32.5683C184.318 32.6645 182.924 33.5149 182.992 34.7501C183.031 35.4288 183.512 36.0036 183.71 36.6537C184.209 38.227 183.098 39.8055 182.126 41.1473C181.486 42.0289 180.872 43.1029 180.763 44.1379C178.524 41.7975 176.103 39.0929 175.822 38.0762L169.344 26.9772C169.344 26.9772 169.191 27.1411 168.944 27.3829C168.905 27.2633 168.858 27.1229 168.806 26.9824C167.979 24.6654 165.639 19.0509 162.671 20.0807C159.704 21.1105 163.902 26.8654 165.727 29.1591L165.987 29.4763C165.834 29.5139 165.673 29.5067 165.524 29.4555L172.748 41.8469C172.748 41.8469 174.062 44.2185 175.266 44.8634C175.266 44.8634 184.24 56.1782 184.349 58.4406C184.458 60.7031 188.385 66.7388 188.385 66.7388C188.385 66.7388 189.698 76.5453 187.4 78.2694H187.428H187.446H187.475H187.501H187.553H187.587H187.621H187.665H187.701H187.753H187.779C187.67 78.376 187.558 78.4931 187.444 78.6205C185.74 80.5084 183.564 84.5548 186.539 91.4357C190.915 101.578 191.573 105.551 191.573 105.551C191.573 105.551 183.252 105.983 181.614 106.305C180.162 106.591 174.522 106.792 173.232 106.825C172.772 106.29 171.412 105.104 169.576 106.825C167.277 108.981 165.636 116.187 165.636 116.187C165.636 116.187 164.76 122.007 167.716 120.496C167.716 120.496 171.219 115.646 172.202 115.431C172.691 115.324 173.209 114.604 173.604 113.909L173.625 113.922C173.648 113.922 173.744 113.87 173.9 113.808C174.629 113.519 176.634 112.825 178.215 113.171C179.081 113.361 182.794 113.405 186.687 113.394C185.808 115.501 184.232 120.936 184.232 120.936C184.232 120.936 183.574 126.004 185.759 125.796C187.319 125.643 189.711 121.656 190.96 119.381C191.865 118.718 194.457 116.341 196.374 116.52L209.288 111.564C209.288 111.564 212.351 109.839 210.71 104.129C209.41 99.5883 205.71 90.2941 204.248 86.6716L204.204 86.578C203.85 85.7016 203.637 85.1815 203.637 85.1815C203.037 83.5278 202.643 81.8062 202.464 80.056C202.451 79.9181 202.441 79.7777 202.43 79.6399C202.611 79.564 202.782 79.4652 202.938 79.346C202.938 79.346 201.734 67.1705 202.938 65.8755L202.958 65.852V65.8364L202.979 65.8104L203.026 65.7506L203.083 65.6778C203.148 65.592 203.226 65.4854 203.315 65.3554C204.004 64.3464 205.288 62.0423 204.919 59.3222C204.904 59.2043 204.884 59.0856 204.862 58.9659C204.72 58.2283 204.468 57.5163 204.113 56.8543C204.061 56.5787 204.029 56.2998 204.017 56.0196C204.017 55.8609 204.017 55.6867 204.017 55.4995V55.4683C204.017 55.418 204.017 55.3677 204.017 55.3174V55.281C204.017 55.1588 204.038 55.021 204.056 54.9066V54.8598C204.056 54.8129 204.064 54.7653 204.079 54.7167V54.6569C204.079 54.6101 204.1 54.5633 204.11 54.5165V54.4671C204.126 54.4047 204.142 54.3423 204.162 54.2798V54.2486C204.178 54.1966 204.195 54.1455 204.214 54.0952L204.238 54.0354L204.29 53.9106L204.316 53.8482C204.337 53.8014 204.36 53.7545 204.383 53.7077L204.402 53.6687C204.433 53.6115 204.466 53.5552 204.5 53.4997L204.529 53.4555L204.615 53.3333L204.656 53.2787L204.748 53.1694L204.789 53.1226C204.836 53.0732 204.883 53.0238 204.935 52.977C206.357 51.6767 212.705 42.0939 212.705 42.0939C212.705 42.0939 214.237 39.9381 214.237 38.539C214.323 38.5078 217.03 29.4841 216.757 26.7406ZM199.716 107.291C199.56 105.814 199.403 103.983 199.26 102.09L201.736 105.949C201.736 105.949 201.502 107.125 199.716 107.291Z" fill="url(#paint3_linear_1_745)"/>
<path d="M173.903 106.475C173.903 106.475 172.421 104.134 170.195 106.264C167.969 108.394 166.382 115.478 166.382 115.478C166.382 115.478 165.535 121.199 168.395 119.714C168.395 119.714 171.776 114.947 172.738 114.736C173.7 114.526 174.751 111.876 174.751 111.876L173.903 106.475Z" fill="#493545"/>
<path d="M189.79 112.193C189.79 112.193 187.777 111.239 187.142 111.982C186.508 112.726 184.388 120.138 184.388 120.138C184.388 120.138 183.754 125.011 185.871 124.798C187.987 124.584 191.696 116.955 191.696 116.955L189.79 112.193Z" fill="#493545"/>
<path opacity="0.05" d="M189.79 112.193C189.79 112.193 187.777 111.239 187.142 111.982C186.508 112.726 184.388 120.138 184.388 120.138C184.388 120.138 183.754 125.011 185.871 124.798C187.987 124.584 191.696 116.955 191.696 116.955L189.79 112.193Z" fill="black"/>
<path d="M196.78 97.789L201.333 104.886C201.333 104.886 201.016 106.475 198.262 106.157L188.835 112.089C188.835 112.089 188.016 119.311 190.635 118.655C191.059 118.549 194.015 115.478 196.143 115.691L208.643 110.817C208.643 110.817 211.608 109.122 210.019 103.51C208.43 97.8982 203.177 84.8853 203.177 84.8853L194.874 89.5298L196.78 97.789Z" fill="#3E3D77"/>
<path opacity="0.05" d="M196.78 97.789L201.333 104.886C201.333 104.886 201.016 106.475 198.262 106.157L188.835 112.089C188.835 112.089 188.016 119.311 190.635 118.655C191.059 118.549 194.015 115.478 196.143 115.691L208.643 110.817C208.643 110.817 211.608 109.122 210.019 103.51C208.43 97.8982 203.177 84.8853 203.177 84.8853L194.874 89.5298L196.78 97.789Z" fill="black"/>
<path d="M199.64 108.274C200.275 112.3 196.676 112.617 196.676 112.617C196.676 112.617 180.469 112.934 178.563 112.51C176.657 112.086 174.114 113.251 174.114 113.251C170.829 111.239 173.479 106.261 173.479 106.261C173.479 106.261 180.259 106.051 181.848 105.741C183.436 105.432 191.485 104.992 191.485 104.992C191.485 104.992 190.85 101.073 186.612 91.1186C183.733 84.3574 185.832 80.3786 187.488 78.5244C187.911 78.0324 188.4 77.6018 188.942 77.245L201.97 77.8795C201.956 78.5366 201.981 79.1939 202.043 79.8481C202.266 82.0941 202.85 84.2895 203.772 86.3493C203.031 86.3493 198.264 90.7988 198.264 90.7988C198.264 90.7988 199.003 104.251 199.64 108.274Z" fill="#3E3D77"/>
<path opacity="0.1" d="M174.431 106.685C174.431 106.685 181.21 106.475 182.799 106.165C184.388 105.856 192.437 105.424 192.437 105.424C192.437 105.424 191.802 101.505 187.563 91.5503C184.685 84.789 186.783 80.8102 188.44 78.9561C188.863 78.4641 189.352 78.0334 189.893 77.6766L201.965 78.2643C201.965 78.1395 201.965 78.0043 201.965 77.8873L188.936 77.2527C188.395 77.6096 187.906 78.0402 187.483 78.5322C185.834 80.3889 183.728 84.3651 186.606 91.1264C190.856 101.073 191.485 104.992 191.485 104.992C191.485 104.992 183.423 105.416 181.848 105.733C180.272 106.051 173.479 106.253 173.479 106.253C173.479 106.253 170.832 111.233 174.114 113.254C174.114 113.254 174.212 113.207 174.374 113.14C172.192 110.895 174.431 106.685 174.431 106.685Z" fill="black"/>
<path d="M193.812 38.3703H187.246V54.9979H193.812V38.3703Z" fill="#493545"/>
<path opacity="0.1" d="M193.812 38.3703H187.246V54.9979H193.812V38.3703Z" fill="black"/>
<path d="M197.568 35.9308C197.794 35.9932 198.049 36.001 198.202 36.3131C198.297 36.5625 198.349 36.8264 198.356 37.0932L198.769 42.2318C198.775 42.5683 198.84 42.901 198.962 43.2148C199.136 43.5633 199.424 43.6049 199.651 43.8285C200.106 44.281 200.238 45.4148 200.114 46.338C199.989 47.2612 199.674 48.0517 199.427 48.8865C199.073 50.0827 198.839 51.4272 198.343 52.4362C197.846 53.4452 196.944 53.9965 196.361 53.1487C195.779 52.301 195.857 50.5898 195.747 49.1882C195.565 46.8477 194.653 44.8297 194.59 42.4737C194.538 40.5675 195.05 38.7888 195.37 36.9814C195.599 35.741 195.612 34.2353 195.945 33.1197C196.223 34.4459 196.754 35.7072 197.568 35.9308Z" fill="#493545"/>
<path opacity="0.1" d="M197.568 35.9308C197.794 35.9932 198.049 36.001 198.202 36.3131C198.297 36.5625 198.349 36.8264 198.356 37.0932L198.769 42.2318C198.775 42.5683 198.84 42.901 198.962 43.2148C199.136 43.5633 199.424 43.6049 199.651 43.8285C200.106 44.281 200.238 45.4148 200.114 46.338C199.989 47.2612 199.674 48.0517 199.427 48.8865C199.073 50.0827 198.839 51.4272 198.343 52.4362C197.846 53.4452 196.944 53.9965 196.361 53.1487C195.779 52.301 195.857 50.5898 195.747 49.1882C195.565 46.8477 194.653 44.8297 194.59 42.4737C194.538 40.5675 195.05 38.7888 195.37 36.9814C195.599 35.741 195.612 34.2353 195.945 33.1197C196.223 34.4459 196.754 35.7072 197.568 35.9308Z" fill="black"/>
<path d="M169.771 28.6261L167.23 30.7455C167.23 30.7455 166.928 30.3918 166.479 29.8197C164.713 27.5651 160.653 21.909 163.522 20.8974C166.39 19.8858 168.658 25.4015 169.459 27.6795C169.662 28.2568 169.771 28.6261 169.771 28.6261Z" fill="#C77485"/>
<path d="M215.633 27.885C214.575 29.4739 213.093 27.885 213.093 27.885C213.093 27.885 212.903 27.6015 212.635 27.1438C211.764 25.6693 210.055 22.4005 211.186 21.1055C212.487 19.6258 215.709 24.676 215.807 27.045C215.838 27.3363 215.777 27.6299 215.633 27.885V27.885Z" fill="#C77485"/>
<path d="M189.576 45.0431C189.576 45.0431 191.696 51.8226 191.059 53.8328C190.421 55.843 195.615 58.1834 195.615 58.1834H201.546C201.546 58.1834 203.666 53.8406 203.135 52.569C202.605 51.2973 198.051 50.3455 198.051 50.3455C198.051 50.3455 195.404 50.3455 195.511 43.2488L189.576 45.0431Z" fill="#C77485"/>
<path opacity="0.1" d="M169.771 28.6261L167.23 30.7455C167.23 30.7455 166.929 30.3918 166.479 29.8197C167.402 29.6559 168.835 28.3088 169.462 27.6795C169.662 28.2568 169.771 28.6261 169.771 28.6261Z" fill="black"/>
<path opacity="0.1" d="M215.633 27.8851C214.575 29.474 213.093 27.8851 213.093 27.8851C213.093 27.8851 212.903 27.6016 212.635 27.1439L212.669 27.0373C213.355 27.5288 215.49 27.1101 215.807 27.0373C215.84 27.3312 215.779 27.6277 215.633 27.8851V27.8851Z" fill="black"/>
<path opacity="0.1" d="M202.038 79.8455C198.761 81.3408 188.115 78.6779 187.475 78.5193C187.898 78.0273 188.387 77.5966 188.929 77.2398L201.957 77.8743C201.946 78.5324 201.973 79.1906 202.038 79.8455V79.8455Z" fill="black"/>
<path d="M190.955 50.8681C190.955 50.8681 188.414 51.7159 184.812 48.4315C184.812 48.4315 176.751 40.487 176.231 38.5808L169.989 27.6587C169.989 27.6587 167.342 30.5193 166.281 30.0954L173.271 42.2761C173.271 42.2761 174.543 44.6166 175.708 45.2407C175.708 45.2407 184.393 56.363 184.497 58.5864C184.601 60.8098 188.411 66.765 188.411 66.765C188.411 66.765 189.683 76.4024 187.457 78.0979C187.457 78.0979 199.848 81.2757 202.496 79.1563C202.496 79.1563 201.33 67.1941 202.496 65.9172C202.496 65.9172 206.097 61.681 203.661 57.0209C203.661 57.0209 203.14 54.4802 204.508 53.2086C205.876 51.9369 212.029 42.5102 212.029 42.5102C212.029 42.5102 213.511 40.3907 213.511 39.0151C213.511 39.0151 216.265 29.6949 215.852 27.2582C215.852 27.2582 213.415 27.7783 212.674 27.2582C212.674 27.2582 209.072 38.1803 208.648 38.5912C208.224 39.0021 205.268 47.5941 201.341 48.5485C197.414 49.5029 196.787 49.9242 196.787 49.9242C196.787 49.9242 204.412 54.6909 200.706 56.8077C197.001 58.9245 190.955 50.8681 190.955 50.8681Z" fill="#FFAAC4"/>
<path opacity="0.1" d="M195.768 46.6734C195.642 45.6757 195.591 44.67 195.615 43.6647L189.683 45.4642C189.839 45.8594 189.963 46.2663 190.055 46.6812C190.733 46.9803 191.649 47.6876 192.437 47.6876C193.629 47.7266 194.8 47.37 195.768 46.6734V46.6734Z" fill="black"/>
<path d="M192.33 47.3731C195.372 47.3731 197.838 44.9072 197.838 41.8653C197.838 38.8234 195.372 36.3574 192.33 36.3574C189.288 36.3574 186.822 38.8234 186.822 41.8653C186.822 44.9072 189.288 47.3731 192.33 47.3731Z" fill="#C77485"/>
<path opacity="0.1" d="M185.777 33.3798C184.565 33.4734 183.213 34.3108 183.28 35.5252C183.317 36.1935 183.775 36.7579 183.975 37.3976C184.456 38.9449 183.385 40.4974 182.443 41.8184C181.502 43.1395 180.623 44.8896 181.429 46.2887C181.659 46.6255 181.907 46.9493 182.173 47.2587C183.169 48.6031 183.156 50.4183 183.598 52.0332C184.162 54.0992 185.497 55.8704 187.327 56.9829C189.157 58.0953 191.344 58.4644 193.438 58.0143C192.65 57.0081 192.257 55.7484 192.333 54.4724C192.393 53.5467 192.692 52.5793 192.333 51.7237C191.87 50.6237 190.512 50.1894 189.813 49.2272C189.113 48.265 189.16 46.931 189.498 45.7842C189.836 44.6374 190.421 43.5738 190.702 42.4035C190.772 42.0621 190.858 41.7245 190.962 41.3919C191.451 40.0033 192.913 39.1971 194.343 38.8513C195.773 38.5054 197.276 38.4846 198.673 38.0295C200.069 37.5744 201.427 36.5082 201.588 35.0441C200.413 35.5148 199.323 34.2874 198.189 33.7231C196.322 32.7973 194.192 33.6685 192.268 33.8817C190.076 34.1262 187.995 33.2186 185.777 33.3798Z" fill="black"/>
<path d="M185.67 33.1691C184.459 33.2627 183.106 34.1001 183.174 35.3145C183.21 35.9829 183.668 36.5472 183.868 37.1869C184.349 38.7342 183.278 40.2867 182.337 41.6077C181.395 42.9288 180.516 44.6789 181.322 46.078C181.552 46.4148 181.8 46.7386 182.066 47.048C183.062 48.3924 183.049 50.2076 183.491 51.8225C184.056 53.8885 185.39 55.6597 187.221 56.7722C189.051 57.8846 191.238 58.2537 193.331 57.8036C192.543 56.7974 192.15 55.5377 192.226 54.2617C192.286 53.336 192.585 52.3686 192.226 51.513C191.763 50.413 190.406 49.9787 189.706 49.0165C189.007 48.0544 189.054 46.7203 189.392 45.5735C189.73 44.4267 190.315 43.3631 190.596 42.1928C190.665 41.8514 190.752 41.5138 190.856 41.1812C191.345 39.7926 192.806 38.9864 194.236 38.6406C195.667 38.2947 197.17 38.2739 198.566 37.8188C199.963 37.3637 201.32 36.2975 201.481 34.8334C200.306 35.3041 199.216 34.0767 198.083 33.5124C196.215 32.5866 194.086 33.4578 192.161 33.671C189.974 33.9129 187.902 32.9949 185.67 33.1691Z" fill="#493545"/>
<path opacity="0.1" d="M197.786 54.1006C197.786 54.1006 199.991 56.0692 200.426 56.9377Z" fill="black"/>
<path opacity="0.1" d="M202.558 65.8575C202.558 65.8575 199.804 65.8575 198.532 66.1747C197.261 66.492 194.19 66.1747 194.19 66.1747" fill="black"/>
<g opacity="0.1">
<path opacity="0.1" d="M200.699 56.7998C200.461 56.9356 200.204 57.0339 199.937 57.091C200.627 57.2442 201.35 57.1406 201.97 56.7998C205.679 54.6804 198.051 49.9163 198.051 49.9163H196.78C196.78 49.9163 204.407 54.683 200.699 56.7998Z" fill="black"/>
<path opacity="0.1" d="M215.87 27.4428C215.87 27.3752 215.854 27.3102 215.844 27.2504C215.408 27.3406 214.968 27.4075 214.526 27.4506C214.972 27.4998 215.424 27.4971 215.87 27.4428V27.4428Z" fill="black"/>
<path opacity="0.1" d="M188.731 78.0902C190.955 76.3946 189.686 66.7572 189.686 66.7572C189.686 66.7572 185.873 60.8255 185.767 58.6021C185.66 56.3786 176.977 45.2563 176.977 45.2563C175.812 44.6218 174.54 42.2917 174.54 42.2917C174.54 42.2917 167.337 30.5349 166.278 30.111L173.269 42.2917C173.269 42.2917 174.54 44.6322 175.705 45.2563C175.705 45.2563 184.391 56.3786 184.495 58.6021C184.599 60.8255 188.411 66.765 188.411 66.765C188.411 66.765 189.683 76.4024 187.457 78.098C187.457 78.098 195.074 80.0509 199.64 79.8741C195.063 79.7129 188.731 78.0902 188.731 78.0902Z" fill="black"/>
<path opacity="0.1" d="M191.017 50.9514L190.955 50.8708C190.882 50.8922 190.808 50.9087 190.734 50.9202C190.832 50.9332 190.926 50.9436 191.017 50.9514Z" fill="black"/>
</g>
<g opacity="0.1">
<path opacity="0.1" d="M215.844 27.2373L215.779 27.2503C215.667 30.5035 213.41 38.1464 213.41 38.1464C213.41 39.5221 211.928 41.6415 211.928 41.6415C211.928 41.6415 205.785 51.0682 204.407 52.3399C203.029 53.6115 203.559 56.1522 203.559 56.1522L203.572 56.1782C203.531 55.3227 203.635 53.9964 204.511 53.1851C205.887 51.9134 212.032 42.4866 212.032 42.4866C212.032 42.4866 213.514 40.3672 213.514 38.9915C213.514 39.0072 216.268 29.687 215.844 27.2373Z" fill="black"/>
<path opacity="0.1" d="M202.394 65.0617C202.553 65.9614 202.446 65.0096 202.501 65.9094C202.501 65.9094 205.101 62.859 204.391 59.0883C204.605 62.4586 202.394 65.0617 202.394 65.0617Z" fill="black"/>
</g>
<path d="M122.174 172.283C183.597 172.283 233.389 167.5 233.389 161.6C233.389 155.7 183.597 150.917 122.174 150.917C60.7514 150.917 10.9586 155.7 10.9586 161.6C10.9586 167.5 60.7514 172.283 122.174 172.283Z" fill="#E1EBFF"/>
<path d="M79.063 150.761C79.063 150.761 75.2767 137.902 79.773 128.438C81.6853 124.481 82.262 120.009 81.4165 115.696C80.9989 113.651 80.3948 111.649 79.6117 109.715" stroke="#535461" stroke-width="2" stroke-miterlimit="10"/>
<path d="M82.415 103.739C82.415 105.315 79.5545 109.884 79.5545 109.884C79.5545 109.884 76.694 105.315 76.694 103.739C76.6649 103.346 76.7171 102.952 76.8473 102.581C76.9775 102.21 77.1829 101.869 77.4507 101.581C77.7184 101.293 78.0427 101.063 78.4034 100.905C78.764 100.748 79.1533 100.667 79.5467 100.667C79.9401 100.667 80.3294 100.748 80.69 100.905C81.0507 101.063 81.375 101.293 81.6427 101.581C81.9105 101.869 82.1159 102.21 82.2461 102.581C82.3763 102.952 82.4285 103.346 82.3994 103.739H82.415Z" fill="#345494"/>
<path d="M87.1245 112.466C86.2689 113.79 81.3904 116.073 81.3904 116.073C81.3904 116.073 81.4788 110.687 82.3344 109.364C82.5241 109.02 82.7826 108.719 83.0937 108.48C83.4047 108.24 83.7618 108.067 84.1425 107.972C84.5233 107.876 84.9196 107.86 85.3069 107.925C85.6941 107.989 86.064 108.132 86.3935 108.346C86.7229 108.559 87.005 108.838 87.222 109.165C87.439 109.492 87.5864 109.86 87.655 110.247C87.7236 110.633 87.7119 111.03 87.6206 111.412C87.5293 111.793 87.3604 112.152 87.1245 112.466V112.466Z" fill="#345494"/>
<path d="M86.9191 127.385C85.5123 128.095 80.1578 127.604 80.1578 127.604C80.1578 127.604 82.9534 122.998 84.3602 122.288C84.6975 122.086 85.0729 121.955 85.463 121.904C85.853 121.853 86.2494 121.883 86.6273 121.993C87.0052 122.102 87.3565 122.288 87.6592 122.539C87.962 122.79 88.2097 123.101 88.3868 123.452C88.564 123.804 88.6667 124.188 88.6888 124.58C88.7108 124.973 88.6516 125.366 88.5148 125.735C88.378 126.104 88.1667 126.441 87.8939 126.724C87.6211 127.007 87.2928 127.232 86.9295 127.382L86.9191 127.385Z" fill="#345494"/>
<path d="M84.2224 138.635C82.956 139.571 77.5834 139.995 77.5834 139.995C77.5834 139.995 79.5597 134.984 80.8288 134.045C81.4395 133.674 82.167 133.545 82.8681 133.683C83.5692 133.822 84.1931 134.217 84.617 134.793C85.041 135.368 85.2342 136.081 85.1588 136.792C85.0834 137.502 84.7447 138.159 84.2094 138.632L84.2224 138.635Z" fill="#345494"/>
<path d="M75.3936 116.38C76.5248 117.477 81.7908 118.616 81.7908 118.616C81.7908 118.616 80.4906 113.387 79.3698 112.287C79.1083 111.994 78.7891 111.757 78.4323 111.593C78.0755 111.429 77.6887 111.339 77.2959 111.331C76.9031 111.323 76.5129 111.395 76.1494 111.544C75.7859 111.694 75.4571 111.916 75.1834 112.198C74.9096 112.48 74.6969 112.815 74.5583 113.182C74.4198 113.55 74.3585 113.942 74.3782 114.335C74.398 114.727 74.4983 115.111 74.673 115.463C74.8477 115.815 75.093 116.127 75.3936 116.38Z" fill="#345494"/>
<path d="M72.4109 129.58C73.8178 130.29 79.1722 129.798 79.1722 129.798C79.1722 129.798 76.3871 125.193 74.9802 124.496C74.3131 124.219 73.566 124.205 72.8888 124.456C72.2116 124.707 71.6545 125.205 71.3293 125.85C71.004 126.495 70.9348 127.239 71.1354 127.932C71.336 128.626 71.7917 129.219 72.4109 129.59V129.58Z" fill="#345494"/>
<path d="M71.2667 142.806C72.5332 143.742 77.9058 144.166 77.9058 144.166C77.9058 144.166 75.9294 139.155 74.6604 138.216C74.3629 137.953 74.014 137.755 73.6357 137.634C73.2574 137.513 72.8581 137.472 72.4633 137.514C72.0684 137.556 71.6865 137.68 71.3421 137.878C70.9976 138.075 70.698 138.342 70.4624 138.662C70.2269 138.982 70.0604 139.347 69.9737 139.734C69.887 140.122 69.8819 140.523 69.9588 140.913C70.0357 141.302 70.1928 141.672 70.4202 141.997C70.6477 142.323 70.9404 142.597 71.2797 142.804L71.2667 142.806Z" fill="#345494"/>
<path d="M155.684 150.946C155.684 150.946 151.898 138.086 156.394 128.623C158.306 124.665 158.883 120.194 158.037 115.881C157.62 113.836 157.016 111.834 156.233 109.899" stroke="#535461" stroke-width="2" stroke-miterlimit="10"/>
<path d="M159.031 103.921C159.031 105.497 156.17 110.066 156.17 110.066C156.17 110.066 153.31 105.497 153.31 103.921C153.363 103.201 153.687 102.527 154.216 102.036C154.745 101.545 155.44 101.272 156.163 101.272C156.885 101.272 157.58 101.545 158.109 102.036C158.638 102.527 158.962 103.201 159.015 103.921H159.031Z" fill="#345494"/>
<path d="M163.748 112.648C162.893 113.972 158.014 116.255 158.014 116.255C158.014 116.255 158.103 110.87 158.958 109.546C159.148 109.202 159.406 108.901 159.717 108.662C160.029 108.422 160.386 108.25 160.766 108.154C161.147 108.059 161.543 108.043 161.931 108.107C162.318 108.171 162.688 108.314 163.017 108.528C163.347 108.741 163.629 109.02 163.846 109.347C164.063 109.674 164.21 110.043 164.279 110.429C164.347 110.816 164.336 111.212 164.244 111.594C164.153 111.976 163.984 112.335 163.748 112.648V112.648Z" fill="#345494"/>
<path d="M163.55 127.567C162.144 128.277 156.789 127.786 156.789 127.786C156.789 127.786 159.585 123.18 160.992 122.47C161.329 122.266 161.706 122.134 162.097 122.082C162.488 122.03 162.886 122.059 163.265 122.169C163.644 122.278 163.997 122.465 164.3 122.717C164.604 122.969 164.852 123.281 165.029 123.634C165.206 123.987 165.308 124.372 165.329 124.766C165.35 125.16 165.289 125.555 165.15 125.924C165.011 126.293 164.798 126.63 164.522 126.913C164.247 127.196 163.916 127.418 163.55 127.567V127.567Z" fill="#345494"/>
<path d="M160.843 138.817C159.577 139.753 154.204 140.177 154.204 140.177C154.204 140.177 156.181 135.166 157.45 134.227C158.06 133.856 158.788 133.727 159.489 133.865C160.19 134.004 160.814 134.399 161.238 134.975C161.662 135.55 161.855 136.263 161.78 136.974C161.704 137.684 161.366 138.341 160.83 138.814L160.843 138.817Z" fill="#345494"/>
<path d="M152.02 116.562C153.151 117.659 158.417 118.798 158.417 118.798C158.417 118.798 157.117 113.569 155.996 112.469C155.735 112.175 155.415 111.939 155.059 111.775C154.702 111.61 154.315 111.521 153.922 111.513C153.529 111.505 153.139 111.577 152.776 111.726C152.412 111.876 152.083 112.098 151.81 112.38C151.536 112.662 151.323 112.997 151.185 113.364C151.046 113.732 150.985 114.124 151.005 114.517C151.024 114.909 151.125 115.293 151.299 115.645C151.474 115.997 151.719 116.309 152.02 116.562V116.562Z" fill="#345494"/>
<path d="M149.032 129.762C150.439 130.472 155.793 129.98 155.793 129.98C155.793 129.98 152.998 125.375 151.591 124.665C150.924 124.388 150.177 124.374 149.5 124.625C148.822 124.876 148.265 125.374 147.94 126.019C147.615 126.664 147.545 127.408 147.746 128.102C147.947 128.795 148.402 129.388 149.022 129.759L149.032 129.762Z" fill="#345494"/>
<path d="M147.89 142.988C149.157 143.924 154.529 144.348 154.529 144.348C154.529 144.348 152.553 139.337 151.284 138.398C150.673 138.027 149.946 137.898 149.245 138.036C148.544 138.175 147.92 138.57 147.496 139.146C147.072 139.721 146.879 140.434 146.954 141.145C147.029 141.855 147.368 142.512 147.903 142.985L147.89 142.988Z" fill="#345494"/>
<path opacity="0.5" d="M174.213 4.23599H172.579C172.734 4.24337 172.889 4.21927 173.034 4.16517C173.179 4.11106 173.311 4.02807 173.424 3.92121C173.536 3.81436 173.625 3.68586 173.686 3.54351C173.747 3.40117 173.778 3.24792 173.778 3.09307C173.778 2.93822 173.747 2.78498 173.686 2.64263C173.625 2.50028 173.536 2.37179 173.424 2.26493C173.311 2.15807 173.179 2.07508 173.034 2.02097C172.889 1.96687 172.734 1.94277 172.579 1.95015H159.338C159.044 1.96417 158.767 2.0907 158.564 2.3035C158.361 2.5163 158.248 2.79905 158.248 3.09307C158.248 3.38709 158.361 3.66984 158.564 3.88264C158.767 4.09544 159.044 4.22198 159.338 4.23599H160.971C160.677 4.25 160.4 4.37654 160.197 4.58934C159.994 4.80214 159.881 5.08488 159.881 5.37891C159.881 5.67293 159.994 5.95567 160.197 6.16847C160.4 6.38128 160.677 6.50781 160.971 6.52182H158.685C158.53 6.51444 158.376 6.53854 158.231 6.59264C158.086 6.64675 157.953 6.72974 157.841 6.8366C157.729 6.94346 157.64 7.07195 157.579 7.2143C157.518 7.35665 157.486 7.50989 157.486 7.66474C157.486 7.81959 157.518 7.97283 157.579 8.11518C157.64 8.25753 157.729 8.38602 157.841 8.49288C157.953 8.59974 158.086 8.68273 158.231 8.73684C158.376 8.79095 158.53 8.81504 158.685 8.80766H171.916C172.071 8.81504 172.226 8.79095 172.371 8.73684C172.516 8.68273 172.648 8.59974 172.76 8.49288C172.872 8.38602 172.962 8.25753 173.023 8.11518C173.084 7.97283 173.115 7.81959 173.115 7.66474C173.115 7.50989 173.084 7.35665 173.023 7.2143C172.962 7.07195 172.872 6.94346 172.76 6.8366C172.648 6.72974 172.516 6.64675 172.371 6.59264C172.226 6.53854 172.071 6.51444 171.916 6.52182H174.213C174.506 6.50781 174.783 6.38128 174.986 6.16847C175.189 5.95567 175.302 5.67293 175.302 5.37891C175.302 5.08488 175.189 4.80214 174.986 4.58934C174.783 4.37654 174.506 4.25 174.213 4.23599Z" fill="#DEE3F3"/>
<path opacity="0.5" d="M97.7007 10.9037H96.4577C96.5759 10.9102 96.6942 10.8925 96.8054 10.8517C96.9166 10.8109 97.0182 10.7478 97.1042 10.6664C97.1902 10.585 97.2587 10.4869 97.3055 10.3782C97.3523 10.2694 97.3764 10.1522 97.3764 10.0338C97.3764 9.91542 97.3523 9.79825 97.3055 9.68948C97.2587 9.58072 97.1902 9.48263 97.1042 9.40122C97.0182 9.31981 96.9166 9.25678 96.8054 9.21599C96.6942 9.17519 96.5759 9.15749 96.4577 9.16396H86.3886C86.1661 9.17613 85.9567 9.27308 85.8036 9.43488C85.6504 9.59667 85.565 9.81101 85.565 10.0338C85.565 10.2566 85.6504 10.471 85.8036 10.6328C85.9567 10.7946 86.1661 10.8915 86.3886 10.9037H87.6316C87.5134 10.8972 87.3951 10.9149 87.2839 10.9557C87.1728 10.9965 87.0711 11.0595 86.9851 11.141C86.8991 11.2224 86.8306 11.3204 86.7838 11.4292C86.737 11.538 86.7129 11.6551 86.7129 11.7736C86.7129 11.892 86.737 12.0091 86.7838 12.1179C86.8306 12.2267 86.8991 12.3248 86.9851 12.4062C87.0711 12.4876 87.1728 12.5506 87.2839 12.5914C87.3951 12.6322 87.5134 12.6499 87.6316 12.6434H85.8919C85.7737 12.637 85.6553 12.6547 85.5442 12.6955C85.433 12.7362 85.3313 12.7993 85.2454 12.8807C85.1594 12.9621 85.0909 13.0602 85.0441 13.1689C84.9973 13.2777 84.9731 13.3949 84.9731 13.5133C84.9731 13.6317 84.9973 13.7489 85.0441 13.8576C85.0909 13.9664 85.1594 14.0645 85.2454 14.1459C85.3313 14.2273 85.433 14.2903 85.5442 14.3311C85.6553 14.3719 85.7737 14.3896 85.8919 14.3832H95.961C96.0792 14.3896 96.1976 14.3719 96.3087 14.3311C96.4199 14.2903 96.5216 14.2273 96.6075 14.1459C96.6935 14.0645 96.762 13.9664 96.8088 13.8576C96.8556 13.7489 96.8798 13.6317 96.8798 13.5133C96.8798 13.3949 96.8556 13.2777 96.8088 13.1689C96.762 13.0602 96.6935 12.9621 96.6075 12.8807C96.5216 12.7993 96.4199 12.7362 96.3087 12.6955C96.1976 12.6547 96.0792 12.637 95.961 12.6434H97.7007C97.9232 12.6313 98.1326 12.5343 98.2858 12.3725C98.439 12.2107 98.5243 11.9964 98.5243 11.7736C98.5243 11.5507 98.439 11.3364 98.2858 11.1746C98.1326 11.0128 97.9232 10.9159 97.7007 10.9037V10.9037Z" fill="#DEE3F3"/>
<path d="M32.3243 160.942C32.3243 160.942 25.7242 159.621 23.9611 157.86C22.1979 156.1 14.282 153.021 13.4005 155.221C12.5189 157.421 1.5188 164.903 9.00042 166.224C16.482 167.545 26.6032 167.984 28.8032 167.103C31.0032 166.221 32.3243 160.942 32.3243 160.942Z" fill="#A8A8A8"/>
<path opacity="0.2" d="M9.00033 165.404C16.482 166.725 26.6031 167.165 28.8031 166.283C30.4778 165.612 31.6428 162.383 32.1031 160.895L32.3242 160.942C32.3242 160.942 31.0031 166.224 28.8031 167.103C26.6031 167.982 16.482 167.542 9.00033 166.224C6.84192 165.841 6.223 164.947 6.45705 163.816C6.63908 164.544 7.39322 165.121 9.00033 165.404Z" fill="black"/>
<path d="M232.706 136.141C232.706 136.141 234.885 139.002 231.699 143.292C228.514 147.583 225.887 151.227 226.951 153.91C226.951 153.91 231.756 145.919 235.667 145.807C239.579 145.695 237.009 140.944 232.706 136.141Z" fill="#345494"/>
<path opacity="0.1" d="M232.706 136.141C232.895 136.417 233.045 136.718 233.15 137.036C236.968 141.519 238.999 145.703 235.332 145.81C231.915 145.909 227.817 152.017 226.834 153.562C226.866 153.681 226.905 153.798 226.951 153.913C226.951 153.913 231.756 145.922 235.667 145.81C239.579 145.698 237.009 140.944 232.706 136.141Z" fill="black"/>
<path d="M236.757 139.771C236.757 140.775 236.645 141.592 236.497 141.592C236.349 141.592 236.237 140.778 236.237 139.771C236.237 138.765 236.377 139.251 236.515 139.251C236.653 139.251 236.757 138.77 236.757 139.771Z" fill="#FFD037"/>
<path d="M238.148 140.97C237.267 141.451 236.5 141.75 236.435 141.618C236.37 141.485 237.027 141.007 237.909 140.528C238.791 140.05 238.442 140.398 238.51 140.528C238.577 140.658 239.027 140.489 238.148 140.97Z" fill="#FFD037"/>
<path d="M221.196 136.141C221.196 136.141 219.016 139.002 222.202 143.292C225.388 147.583 228.014 151.227 226.951 153.91C226.951 153.91 222.145 145.919 218.234 145.807C214.323 145.695 216.892 140.944 221.196 136.141Z" fill="#345494"/>
<path d="M23.6821 143.287C23.6821 143.287 25.8613 146.148 22.6757 150.439C19.4901 154.729 16.8636 158.373 17.9272 161.056C17.9272 161.056 22.7329 153.065 26.644 152.953C30.5552 152.842 27.9859 148.09 23.6821 143.287Z" fill="#345494"/>
<path d="M12.1722 143.287C12.1722 143.287 9.99303 146.148 13.1786 150.439C16.3642 154.729 18.9908 158.373 17.9271 161.056C17.9271 161.056 13.1214 153.065 9.2103 152.953C5.29915 152.842 7.86843 148.09 12.1722 143.287Z" fill="#345494"/>
<path opacity="0.1" d="M221.196 136.141C221.006 136.417 220.856 136.718 220.751 137.036C216.933 141.519 214.902 145.703 218.569 145.81C221.986 145.909 226.085 152.017 227.068 153.562C227.035 153.681 226.996 153.798 226.951 153.913C226.951 153.913 222.145 145.922 218.234 145.81C214.323 145.698 216.892 140.944 221.196 136.141Z" fill="black"/>
<path d="M217.144 139.771C217.144 140.775 217.256 141.592 217.404 141.592C217.552 141.592 217.664 140.778 217.664 139.771C217.664 138.765 217.524 139.251 217.386 139.251C217.248 139.251 217.144 138.77 217.144 139.771Z" fill="#FFD037"/>
<path d="M215.753 140.97C216.634 141.451 217.402 141.75 217.467 141.618C217.532 141.485 216.874 141.007 215.992 140.528C215.111 140.05 215.459 140.398 215.391 140.528C215.324 140.658 214.871 140.489 215.753 140.97Z" fill="#FFD037"/>
<path d="M217.839 153.536C217.839 153.536 223.931 153.348 225.767 152.04C227.603 150.732 235.129 149.18 235.595 151.26C236.06 153.341 244.751 161.691 237.873 161.745C230.994 161.8 221.89 160.674 220.057 159.558C218.223 158.443 217.839 153.536 217.839 153.536Z" fill="#A8A8A8"/>
<path opacity="0.2" d="M237.995 161.025C231.117 161.08 222.012 159.954 220.179 158.838C218.782 157.988 218.226 154.937 218.041 153.531H217.839C217.839 153.531 218.223 158.446 220.057 159.561C221.89 160.677 230.994 161.805 237.873 161.748C239.86 161.733 240.543 161.025 240.507 159.98C240.231 160.617 239.485 161.012 237.995 161.025Z" fill="black"/>
<path opacity="0.5" d="M46.2526 19.6648H44.6195C44.7742 19.6721 44.9287 19.648 45.0738 19.5939C45.2189 19.5398 45.3515 19.4568 45.4636 19.35C45.5757 19.2431 45.6649 19.1146 45.7258 18.9723C45.7868 18.8299 45.8182 18.6767 45.8182 18.5218C45.8182 18.367 45.7868 18.2137 45.7258 18.0714C45.6649 17.9291 45.5757 17.8006 45.4636 17.6937C45.3515 17.5868 45.2189 17.5039 45.0738 17.4497C44.9287 17.3956 44.7742 17.3715 44.6195 17.3789H31.3882C31.0945 17.3929 30.8174 17.5195 30.6146 17.7323C30.4117 17.9451 30.2985 18.2278 30.2985 18.5218C30.2985 18.8159 30.4117 19.0986 30.6146 19.3114C30.8174 19.5242 31.0945 19.6507 31.3882 19.6648H33.0213C32.7276 19.6788 32.4506 19.8053 32.2477 20.0181C32.0448 20.2309 31.9316 20.5137 31.9316 20.8077C31.9316 21.1017 32.0448 21.3844 32.2477 21.5972C32.4506 21.81 32.7276 21.9366 33.0213 21.9506H30.7354C30.4417 21.9646 30.1647 22.0911 29.9618 22.3039C29.7589 22.5167 29.6458 22.7995 29.6458 23.0935C29.6458 23.3875 29.7589 23.6703 29.9618 23.8831C30.1647 24.0959 30.4417 24.2224 30.7354 24.2364H43.9668C44.1214 24.2438 44.276 24.2197 44.4211 24.1656C44.5662 24.1115 44.6988 24.0285 44.8109 23.9217C44.9229 23.8148 45.0122 23.6863 45.0731 23.544C45.1341 23.4016 45.1655 23.2484 45.1655 23.0935C45.1655 22.9387 45.1341 22.7854 45.0731 22.6431C45.0122 22.5007 44.9229 22.3722 44.8109 22.2654C44.6988 22.1585 44.5662 22.0755 44.4211 22.0214C44.276 21.9673 44.1214 21.9432 43.9668 21.9506H46.2526C46.5463 21.9366 46.8233 21.81 47.0262 21.5972C47.2291 21.3844 47.3423 21.1017 47.3423 20.8077C47.3423 20.5137 47.2291 20.2309 47.0262 20.0181C46.8233 19.8053 46.5463 19.6788 46.2526 19.6648V19.6648Z" fill="#DEE3F3"/>
<path d="M24.312 24.1794C30.989 24.1794 36.4017 18.7667 36.4017 12.0897C36.4017 5.41274 30.989 0 24.312 0C17.635 0 12.2223 5.41274 12.2223 12.0897C12.2223 18.7667 17.635 24.1794 24.312 24.1794Z" fill="#345494"/>
<defs>
<linearGradient id="paint0_linear_1_745" x1="119.758" y1="141.659" x2="119.758" y2="33.9988" gradientUnits="userSpaceOnUse">
<stop stop-color="#808080" stop-opacity="0.25"/>
<stop offset="0.54" stop-color="#808080" stop-opacity="0.12"/>
<stop offset="1" stop-color="#808080" stop-opacity="0.1"/>
</linearGradient>
<linearGradient id="paint1_linear_1_745" x1="99.3164" y1="123.239" x2="99.3164" y2="123.226" gradientUnits="userSpaceOnUse">
<stop stop-color="#808080" stop-opacity="0.25"/>
<stop offset="0.54" stop-color="#808080" stop-opacity="0.12"/>
<stop offset="1" stop-color="#808080" stop-opacity="0.1"/>
</linearGradient>
<linearGradient id="paint2_linear_1_745" x1="16746" y1="52582" x2="16746" y2="23575.2" gradientUnits="userSpaceOnUse">
<stop stop-color="#808080" stop-opacity="0.25"/>
<stop offset="0.54" stop-color="#808080" stop-opacity="0.12"/>
<stop offset="1" stop-color="#808080" stop-opacity="0.1"/>
</linearGradient>
<linearGradient id="paint3_linear_1_745" x1="47173.5" y1="63739.5" x2="47173.5" y2="20660" gradientUnits="userSpaceOnUse">
<stop stop-color="#808080" stop-opacity="0.25"/>
<stop offset="0.54" stop-color="#808080" stop-opacity="0.12"/>
<stop offset="1" stop-color="#808080" stop-opacity="0.1"/>
</linearGradient>
</defs>
</svg>
