<svg width="230" height="173" viewBox="0 0 230 173" fill="none" xmlns="http://www.w3.org/2000/svg">
<rect width="230" height="173" fill="#F5F5F5"/>
<g clip-path="url(#clip0_0_1)">
<rect width="1440" height="4537" transform="translate(-938 -1624)" fill="white"/>
<g filter="url(#filter0_d_0_1)">
<rect x="-108" y="-171" width="445" height="600" fill="white"/>
</g>
<path d="M205.727 17.7713C207.229 18.3699 208.77 19.1382 209.596 20.4851C210.47 21.9079 210.365 23.6746 210.203 25.3208C208.784 39.5978 205.048 54.7817 211.5 67.7141C214.632 73.9882 219.871 79.016 224.038 84.7139C228.204 90.4118 231.35 97.5257 229.416 104.229C227.053 112.419 218.236 116.96 212.293 123.263C208.403 127.384 205.675 132.392 202.046 136.727C198.416 141.063 193.442 144.882 187.648 145.137C179.314 145.505 172.534 138.592 164.363 136.991C155.993 135.351 147.564 139.524 140.776 144.518C133.989 149.512 127.816 155.563 119.908 158.681C111.174 162.128 101.329 161.6 92.1355 163.671C83.7647 165.558 76.059 169.572 67.7487 171.712C59.4384 173.852 49.6981 173.722 43.2596 168.256C34.868 161.109 35.5283 148.378 30.1687 138.923C25.1905 130.138 15.4455 124.894 8.8861 117.128C-2.91665 103.15 -2.53067 81.7857 7.49097 66.5839C17.5126 51.3822 35.6655 42.1776 54.2276 39.781C62.5984 38.7021 71.2179 38.8496 79.2655 36.3949C100.806 29.8281 113.625 6.29961 135.617 1.4036C149.596 -1.70331 163.191 3.67738 175.099 10.2999C185.434 16.0492 194.97 13.485 205.727 17.7713Z" fill="#E1EBFF"/>
<path d="M93.2776 102.276C94.753 102.466 96.2842 102.587 97.6973 102.126C97.9199 102.057 98.1647 101.902 98.1424 101.678C98.1265 101.597 98.0923 101.52 98.0423 101.454C97.5096 100.65 97.0621 99.7923 96.707 98.8946C96.6929 98.8477 96.664 98.8069 96.6247 98.7781C96.5787 98.7614 96.5283 98.7614 96.4822 98.7781C95.8302 98.9506 95.2671 99.3738 94.6195 99.5552C94.2893 99.6463 93.9447 99.6722 93.6047 99.6313C93.3109 99.5977 92.9104 99.3536 92.6433 99.385C92.7946 100.364 93.1641 101.277 93.2776 102.276Z" fill="#6C63FF"/>
<path d="M121.183 99.7973C122.155 99.1255 123.163 98.4201 123.738 97.3833C123.779 97.3213 123.802 97.2494 123.807 97.175C123.797 97.1018 123.768 97.0324 123.724 96.9735C123.177 96.0986 122.473 95.3338 121.648 94.7184C121.217 95.0245 120.828 95.3859 120.491 95.7933C120.246 96.0531 119.569 96.4651 119.563 96.8615C119.563 97.0854 119.821 97.3452 119.941 97.5333C120.103 97.7752 120.257 98.0215 120.404 98.2723C120.488 98.3955 121.261 99.748 121.183 99.7973Z" fill="#6C63FF"/>
<path d="M99.0615 105.275C99.0788 105.506 99.0159 105.735 98.8834 105.924C98.7796 106.03 98.6509 106.107 98.5096 106.148C96.4466 106.892 94.0586 105.965 92.0001 106.697C91.5772 106.847 91.1767 107.064 90.7516 107.208C90.2448 107.361 89.722 107.454 89.1938 107.485C88.466 107.555 87.7339 107.599 87.0039 107.62C86.4493 107.659 85.892 107.61 85.3526 107.474C85.0829 107.405 84.8308 107.279 84.6126 107.105C84.3944 106.931 84.2151 106.712 84.0863 106.464C83.9744 106.241 83.9521 105.984 84.024 105.745C84.0563 105.663 84.1022 105.588 84.1598 105.521C84.2993 105.364 84.4631 105.23 84.6449 105.125L85.4038 104.632C85.7597 104.379 86.1463 104.173 86.5544 104.019C86.8548 103.92 87.173 103.878 87.4779 103.795C88.5439 103.481 89.3585 102.63 90.1151 101.813L91.1477 100.704C91.2443 100.583 91.3667 100.484 91.506 100.416C91.6492 100.368 91.8015 100.353 91.9511 100.373C92.9542 100.445 93.9227 100.772 94.7663 101.323C94.9819 101.485 95.2148 101.623 95.4607 101.735C96.066 101.972 96.8427 101.793 97.4013 101.493C97.6661 101.349 97.6083 101.269 97.7195 101.014C97.8308 100.758 98.1023 100.595 98.3382 100.828C98.4094 100.908 98.4598 101.005 98.4851 101.11C98.7076 101.849 98.6231 102.644 98.6231 103.419C98.6165 103.54 98.6316 103.661 98.6676 103.777C98.7244 103.894 98.7922 104.005 98.8701 104.108C98.8859 104.136 98.9001 104.164 98.9124 104.193C99.0485 104.536 99.0997 104.908 99.0615 105.275V105.275Z" fill="#514E7F"/>
<path d="M99.0615 105.275C99.0789 105.505 99.0159 105.735 98.8834 105.924C98.7796 106.029 98.651 106.106 98.5096 106.148C96.4466 106.891 94.0586 105.964 92.0001 106.697C91.5772 106.847 91.1767 107.064 90.7516 107.207C90.2448 107.361 89.722 107.454 89.1938 107.485C88.466 107.554 87.7339 107.599 87.0039 107.619C86.4493 107.659 85.892 107.61 85.3526 107.474C85.0829 107.404 84.8308 107.278 84.6126 107.104C84.3944 106.93 84.2151 106.712 84.0863 106.464C83.9744 106.241 83.9521 105.984 84.024 105.745C84.0563 105.663 84.1022 105.587 84.1598 105.521C84.28 105.774 84.3667 106.11 84.4424 106.231C84.5446 106.41 84.6837 106.565 84.8502 106.686C85.0168 106.807 85.207 106.891 85.4083 106.932C85.7095 106.95 86.0115 106.912 86.2984 106.818C88.1678 106.352 90.1552 106.345 91.9511 105.64C92.5676 105.396 93.1551 105.071 93.8027 104.923C94.4503 104.775 95.138 104.816 95.8056 104.76C96.8605 104.675 97.882 104.354 98.9213 104.186C99.0555 104.532 99.1036 104.906 99.0615 105.275V105.275Z" fill="#464353"/>
<path d="M125.907 99.6605C125.81 100.449 125.313 101.127 124.768 101.703C124.223 102.278 123.606 102.796 123.172 103.458C122.638 104.28 122.398 105.299 121.704 105.993C121.437 106.246 121.138 106.461 120.813 106.632C120.45 106.847 120.066 107.025 119.667 107.162C118.63 107.496 117.513 107.42 116.429 107.339C116.077 107.336 115.729 107.268 115.401 107.14C115.252 107.064 115.109 106.975 114.974 106.876C114.702 106.707 114.473 106.477 114.306 106.204C114.224 106.055 114.201 105.881 114.242 105.716C114.303 105.534 114.41 105.371 114.551 105.241C114.795 104.986 115.057 104.749 115.334 104.531C115.715 104.284 116.059 103.982 116.354 103.635C116.534 103.361 116.668 103.059 116.747 102.74C116.905 102.181 117.001 101.606 117.035 101.027C117.033 100.641 117.073 100.257 117.152 99.88C117.317 99.2888 117.753 98.7603 117.704 98.149C117.685 98.0614 117.692 97.9698 117.727 97.887C117.778 97.8222 117.851 97.7772 117.931 97.7593C118.271 97.6229 118.63 97.5391 118.995 97.5108C119.178 97.498 119.362 97.5264 119.533 97.5938C119.704 97.6612 119.857 97.7659 119.983 97.9004C120.135 98.084 120.235 98.3483 120.457 98.4199C120.568 98.4502 120.683 98.4548 120.796 98.4334C121.343 98.3774 121.922 98.308 122.353 97.9519C122.553 97.7718 122.713 97.5521 122.824 97.3066C122.935 97.0611 122.995 96.7952 122.999 96.5255C122.999 96.3217 122.908 96.1089 123.221 96.0776C123.457 96.0462 123.644 96.3015 123.764 96.4583C124.198 97.0427 124.643 97.6541 124.806 98.3662C124.869 98.3415 124.936 98.3286 125.004 98.3281C125.143 98.3269 125.28 98.3594 125.403 98.423C125.527 98.4865 125.634 98.5792 125.714 98.6931C125.891 98.982 125.96 99.3251 125.907 99.6605Z" fill="#514E7F"/>
<path d="M125.907 99.6605C125.81 100.449 125.313 101.127 124.768 101.703C124.223 102.278 123.606 102.796 123.172 103.458C122.638 104.28 122.398 105.299 121.704 105.993C121.437 106.246 121.138 106.46 120.813 106.632C120.45 106.847 120.066 107.025 119.667 107.162C118.63 107.496 117.513 107.42 116.429 107.339C116.077 107.336 115.729 107.268 115.401 107.14C115.252 107.064 115.109 106.975 114.974 106.876C114.702 106.707 114.473 106.477 114.306 106.204C114.515 106.103 114.742 106.048 114.974 106.043C115.454 106.069 115.806 106.526 116.267 106.667C116.923 106.867 117.578 106.401 118.243 106.242C118.677 106.139 119.133 106.166 119.563 106.018C119.921 105.879 120.251 105.677 120.54 105.422C120.935 105.138 121.286 104.797 121.583 104.41C121.83 104.023 122.035 103.611 122.195 103.181C122.547 102.356 122.96 101.559 123.433 100.798C123.503 100.678 123.587 100.566 123.684 100.467C123.789 100.37 123.907 100.303 124.025 100.218C124.47 99.88 124.655 99.3224 124.81 98.776C124.853 98.6099 124.911 98.4486 124.986 98.2945C125.125 98.2933 125.262 98.3259 125.386 98.3894C125.509 98.453 125.616 98.5456 125.696 98.6595C125.888 98.9552 125.963 99.312 125.907 99.6605V99.6605Z" fill="#464353"/>
<path d="M89.628 63.8222C89.9218 64.9419 89.4967 66.1198 89.1495 67.2282C88.6268 68.8979 88.2705 70.6157 88.0858 72.3563C88.0631 72.7993 87.9746 73.2363 87.8232 73.6529C87.6585 74.0269 87.3781 74.3426 87.1867 74.6987C86.6615 75.6347 86.6748 76.7768 86.7883 77.8472C86.864 78.5526 86.9775 79.2557 87.1177 79.9499C87.289 80.7986 87.5005 81.6854 87.2534 82.5139C87.6674 82.4221 87.9478 82.9618 87.9211 83.385C87.8944 83.8083 87.7586 84.2808 87.9611 84.6458C88.473 84.8339 88.4774 85.5415 88.4619 86.0902C88.4704 87.0415 88.5899 87.9885 88.8179 88.9117C89.5924 92.6589 90.4143 96.3956 91.2838 100.122C93.1643 100.709 95.3608 101.32 97.1545 100.507C97.4884 100.357 97.8222 100.117 97.8978 99.7546C97.9174 99.5591 97.893 99.3616 97.8266 99.1768L96.9765 96.0641C96.7695 95.3117 96.5626 94.5347 96.6716 93.7621C96.7539 93.1866 97.0032 92.5663 96.7228 92.058C96.6271 91.8833 96.4758 91.7467 96.3645 91.581C95.9194 90.9249 96.1531 90.0471 96.1887 89.2521C96.2026 89.0736 96.1906 88.8941 96.1531 88.7191C96.0921 88.5148 96.0069 88.3185 95.8994 88.1347C95.1968 86.7622 94.8594 85.23 94.9202 83.6874C94.9467 83.4905 94.9198 83.2901 94.8423 83.1074C94.7883 83.0319 94.7399 82.9526 94.6976 82.87C94.6644 82.7262 94.6809 82.5754 94.7444 82.4423C94.4893 82.2475 94.2591 82.0219 94.0589 81.7705C94.1823 81.6933 94.2867 81.5888 94.3642 81.4651C94.4416 81.3413 94.4901 81.2015 94.506 81.0561C94.5218 80.9107 94.5047 80.7636 94.4557 80.6259C94.4068 80.4882 94.3274 80.3635 94.2236 80.2612C94.3144 80.2428 94.3983 80.1994 94.466 80.1359C94.5338 80.0724 94.5827 79.9913 94.6074 79.9015C94.632 79.8117 94.6315 79.7168 94.6058 79.6273C94.5801 79.5378 94.5302 79.4572 94.4617 79.3945C94.3527 79.3184 94.208 79.2848 94.1301 79.1706C94.01 79.0049 94.1079 78.7742 94.2058 78.5973L94.7243 77.6546C95.1116 76.9537 95.1983 76.087 95.6145 75.4152C96.2109 74.4367 96.6004 73.3461 96.9854 72.2667L98.4831 68.1083L99.4913 68.9884C99.8271 69.2465 100.108 69.5692 100.319 69.9378C100.462 70.3021 100.553 70.6852 100.588 71.0754C100.958 73.3327 102.369 75.2898 102.892 77.5135C103.008 78.0084 103.085 78.5279 103.368 78.9512C103.469 79.0811 103.56 79.2189 103.64 79.3632C103.713 79.5833 103.752 79.8139 103.753 80.0462C103.8 80.501 103.943 80.9404 104.174 81.3345C104.404 81.7287 104.716 82.0683 105.088 82.3303C105.585 82.6729 106.201 82.9081 106.47 83.45C106.524 83.6178 106.599 83.7781 106.693 83.927C106.933 84.2181 107.452 84.2517 107.554 84.6167C107.612 84.8205 107.505 85.0645 107.619 85.2437C107.683 85.3266 107.768 85.3907 107.866 85.4296L109.314 86.1573C110.935 86.9725 111.762 88.8445 112.958 90.2083C113.37 90.6525 113.736 91.1388 114.048 91.6594C114.564 92.5887 114.802 93.7554 115.675 94.3466C115.909 94.4689 116.123 94.6285 116.307 94.8191C116.581 95.1818 116.48 95.6902 116.505 96.147C116.529 96.6038 116.877 97.148 117.308 97.0092C117.157 97.5624 117.157 98.1466 117.308 98.6998C119.204 98.6019 121.011 97.8652 122.44 96.6083C122.863 96.2366 123.27 95.7618 123.275 95.1975C123.281 95.1001 123.26 95.0029 123.212 94.9176C123.127 94.8074 123.014 94.7217 122.885 94.669C121.53 93.9301 121.123 92.217 120.437 90.8263C119.839 89.5992 118.953 88.5422 118.212 87.4024C116.601 84.9503 115.501 81.9832 113.064 80.3642C112.528 80.0081 111.905 79.6924 111.636 79.1034C111.487 78.7743 111.469 78.398 111.351 78.0577C111.233 77.7173 110.95 77.3859 110.59 77.3859C110.79 76.8932 110.75 76.2931 110.763 75.7601C110.777 75.5236 110.75 75.2864 110.683 75.0592C110.591 74.8147 110.47 74.5818 110.325 74.365C109.689 73.2818 109.371 72.0395 109.408 70.7821C109.426 70.1349 109.539 69.4676 109.346 68.8495C109.248 68.5382 109.076 68.2539 108.958 67.9538C108.781 67.4101 108.687 66.8421 108.68 66.2698L108.547 64.1178C108.527 63.4011 108.434 62.6883 108.271 61.9904C107.826 60.3199 107.381 53.322 105.856 52.5337C104.332 51.7455 101.712 57.1311 99.9964 57.2363C99.2374 57.2681 98.4873 57.4138 97.771 57.6685C96.6293 58.0985 95.6724 58.9002 94.7399 59.6839L91.5842 62.351C90.9166 62.9041 90.3646 63.4326 89.628 63.8222Z" fill="#464353"/>
<path d="M139.412 69.6602V66.879C139.411 64.8316 138.602 62.8682 137.163 61.4207C135.724 59.9731 133.773 59.16 131.738 59.16H22.5813C20.5466 59.16 18.5952 59.9731 17.1562 61.4207C15.7172 62.8682 14.9085 64.8316 14.9079 66.879V72.007L139.412 69.6602Z" fill="#464646"/>
<path d="M52.9479 55.8992C52.9479 55.8992 52.6363 75.35 56.0635 81.75C59.4907 88.1501 60.9595 115.992 60.9595 115.992C60.9595 115.992 96.8875 119.731 121.924 111.513C146.96 103.295 200.234 99.9334 200.234 99.9334L191.256 39.0482C191.256 39.0482 146.905 36.1863 121.675 48.2944C96.4446 60.4025 52.9479 55.8992 52.9479 55.8992Z" fill="#8DD070"/>
<path opacity="0.01" d="M52.9479 55.8992C52.9479 55.8992 52.6363 75.35 56.0635 81.75C59.4907 88.1501 60.9595 115.992 60.9595 115.992C60.9595 115.992 96.8875 119.731 121.924 111.513C146.96 103.295 200.234 99.9334 200.234 99.9334L191.256 39.0482C191.256 39.0482 146.905 36.1863 121.675 48.2944C96.4446 60.4025 52.9479 55.8992 52.9479 55.8992Z" fill="black"/>
<path d="M60.8994 63.0048C60.8994 63.0048 59.7756 79.0541 62.5952 84.1822C65.4149 89.3103 65.5462 112.203 65.5462 112.203C65.5462 112.203 97.88 113.712 120.88 105.834C143.88 97.9563 192.213 92.8462 192.213 92.8462L186.721 43.0546C186.721 43.0546 146.729 42.6403 123.388 53.7295C100.048 64.8187 60.8994 63.0048 60.8994 63.0048Z" fill="#BDEEA8"/>
<path opacity="0.1" d="M123.033 96.718C127.634 96.1414 130.367 87.6253 129.138 77.6967C127.909 67.7681 123.183 60.1868 118.582 60.7634C113.982 61.34 111.249 69.8561 112.478 79.7847C113.707 89.7133 118.432 97.2946 123.033 96.718Z" fill="black"/>
<path opacity="0.2" d="M166.941 9.38818C166.941 9.38818 123.853 20.3609 103.535 39.6752C83.2164 58.9895 40.4429 68.1349 40.4429 68.1349C40.4429 68.1349 46.0778 86.7415 51.2898 91.7756C56.5019 96.8096 66.3874 122.858 66.3874 122.858C66.3874 122.858 101.721 115.32 123.041 99.761C144.361 84.2021 194.049 64.552 194.049 64.552L166.941 9.38818Z" fill="black"/>
<path d="M39.7954 65.3495C39.7954 65.3495 45.428 83.9583 50.6356 88.9924C55.8432 94.0264 65.7332 120.072 65.7332 120.072C65.7332 120.072 101.071 112.537 122.394 96.9778C143.716 81.4189 193.399 61.7755 193.399 61.7755L166.291 6.60498C166.291 6.60498 123.206 17.5777 102.887 36.892C82.5688 56.2063 39.7954 65.3495 39.7954 65.3495Z" fill="#8DD070"/>
<path opacity="0.01" d="M39.7954 65.3495C39.7954 65.3495 45.428 83.9583 50.6356 88.9924C55.8432 94.0264 65.7332 120.072 65.7332 120.072C65.7332 120.072 101.071 112.537 122.394 96.9778C143.716 81.4189 193.399 61.7755 193.399 61.7755L166.291 6.60498C166.291 6.60498 123.206 17.5777 102.887 36.892C82.5688 56.2063 39.7954 65.3495 39.7954 65.3495Z" fill="black"/>
<path d="M49.5227 69.6577C49.5227 69.6577 53.3483 85.2816 57.5967 89.29C61.8451 93.2984 68.9466 115.042 68.9466 115.042C68.9466 115.042 100.179 106.493 119.667 91.8921C139.156 77.2916 183.603 57.525 183.603 57.525L163.193 11.8157C163.193 11.8157 125.006 23.7671 106.172 41.5295C87.3379 59.2919 49.5227 69.6577 49.5227 69.6577Z" fill="#BDEEA8"/>
<path opacity="0.1" d="M118.947 82.5585C123.15 80.5892 123.154 71.64 118.956 62.5699C114.759 53.4998 107.949 47.7434 103.746 49.7128C99.5435 51.6821 99.5392 60.6313 103.737 69.7014C107.934 78.7715 114.744 84.5278 118.947 82.5585Z" fill="black"/>
<path opacity="0.1" d="M142.358 72.39V149.647C142.358 150.524 142.186 151.393 141.852 152.204C141.519 153.014 141.029 153.751 140.413 154.371C139.796 154.992 139.064 155.484 138.258 155.819C137.453 156.155 136.589 156.327 135.717 156.327H21.5508C19.7905 156.326 18.1025 155.622 16.858 154.37C15.6135 153.117 14.9144 151.418 14.9144 149.647V64.6016C18.1859 65.8242 18.1859 65.8242 21.5508 65.7212H135.717C137.476 65.7212 139.163 66.4234 140.408 67.6736C141.653 68.9239 142.354 70.6201 142.358 72.39V72.39Z" fill="black"/>
<path d="M142.358 73.3733V150.63C142.357 152.402 141.657 154.101 140.412 155.354C139.167 156.607 137.478 157.31 135.717 157.31H21.5508C19.7905 157.31 18.1025 156.606 16.858 155.353C15.6135 154.1 14.9144 152.402 14.9144 150.63V65.5826C18.1859 66.8031 18.1859 66.8031 21.5508 66.7023H135.717C137.476 66.7023 139.164 67.4048 140.409 68.6555C141.654 69.9062 142.355 71.603 142.358 73.3733V73.3733Z" fill="#6F6F72"/>
<path opacity="0.1" d="M142.033 101.936V126.642H118.221C114.993 126.598 111.913 125.278 109.646 122.966C107.379 120.654 106.108 117.537 106.108 114.289C106.108 111.041 107.379 107.924 109.646 105.612C111.913 103.3 114.993 101.979 118.221 101.936H142.033Z" fill="black"/>
<path d="M142.358 101.277V125.988H118.545C115.318 125.945 112.238 124.624 109.971 122.312C107.704 120 106.433 116.883 106.433 113.635C106.433 110.387 107.704 107.27 109.971 104.958C112.238 102.646 115.318 101.326 118.545 101.282L142.358 101.277Z" fill="#464646"/>
<path opacity="0.1" d="M119.687 119.107C122.331 119.107 124.474 116.951 124.474 114.29C124.474 111.63 122.331 109.474 119.687 109.474C117.043 109.474 114.9 111.63 114.9 114.29C114.9 116.951 117.043 119.107 119.687 119.107Z" fill="black"/>
<path d="M120.012 118.453C122.656 118.453 124.799 116.297 124.799 113.636C124.799 110.976 122.656 108.819 120.012 108.819C117.368 108.819 115.225 110.976 115.225 113.636C115.225 116.297 117.368 118.453 120.012 118.453Z" fill="#F0EFFF"/>
</g>
<defs>
<filter id="filter0_d_0_1" x="-128" y="-191" width="485" height="640" filterUnits="userSpaceOnUse" color-interpolation-filters="sRGB">
<feFlood flood-opacity="0" result="BackgroundImageFix"/>
<feColorMatrix in="SourceAlpha" type="matrix" values="0 0 0 0 0 0 0 0 0 0 0 0 0 0 0 0 0 0 127 0" result="hardAlpha"/>
<feOffset/>
<feGaussianBlur stdDeviation="10"/>
<feColorMatrix type="matrix" values="0 0 0 0 0.917647 0 0 0 0 0.952941 0 0 0 0 0.996078 0 0 0 1 0"/>
<feBlend mode="normal" in2="BackgroundImageFix" result="effect1_dropShadow_0_1"/>
<feBlend mode="normal" in="SourceGraphic" in2="effect1_dropShadow_0_1" result="shape"/>
</filter>
<clipPath id="clip0_0_1">
<rect width="1440" height="4537" fill="white" transform="translate(-938 -1624)"/>
</clipPath>
</defs>
</svg>
