<svg width="251" height="174" viewBox="0 0 251 174" fill="none" xmlns="http://www.w3.org/2000/svg">
<path d="M77.501 8.74141C86.0166 1.07089 99.3852 -0.491024 111.552 0.119403C149.77 2.03758 184.269 20.6676 214.111 41.7414C224.914 49.3707 235.549 57.5995 242.568 68.0984C256.845 89.4851 252.609 119.114 232.76 136.731C226.006 142.727 217.819 147.321 209.414 151.397C194.471 158.639 178.35 164.452 161.386 166.108C149.29 167.287 137.056 166.325 125.021 164.683C91.4257 160.082 58.4496 149.911 30.8088 132.502C18.6806 124.868 7.2541 115.377 2.25772 103.021C-2.73866 90.6646 0.459027 75.0216 12.837 67.7117C17.9572 64.6878 24.0767 63.3236 30.0702 62.0397C38.892 60.1542 47.8529 58.2925 55.8146 54.4561C64.0369 50.4938 73.7711 42.8297 72.144 34.0578C70.3975 24.6538 68.9963 16.388 77.501 8.74141Z" fill="#E1EBFF"/>
<path d="M55.7646 97.2795C55.7646 97.2795 58.0174 95.6655 60.3483 96.6626C60.3483 96.6626 59.6966 98.0485 56.7922 98.0312L55.7646 97.2795Z" fill="#6C63FF"/>
<path d="M55.4844 97.373C55.4844 97.373 54.8827 100.078 56.7161 101.833C56.7161 101.833 57.7328 100.688 56.5771 98.0247L55.4844 97.373Z" fill="#6C63FF"/>
<path d="M52.5061 94.9116C52.5061 94.9116 52.5887 92.6285 57.7588 93.1868C57.7588 93.1868 57.8392 94.6553 56.0622 95.42C54.2852 96.1846 53.4337 95.635 52.5061 94.9116Z" fill="#6C63FF"/>
<path d="M52.1867 94.907C52.1867 94.907 50.0383 95.6891 52.1628 100.438C52.1628 100.438 53.5835 100.062 53.7638 98.1351C53.9441 96.2083 53.1577 95.5718 52.1867 94.907Z" fill="#6C63FF"/>
<path d="M49.152 91.79C49.152 91.79 48.7176 88.0535 53.9833 88.236C53.9833 88.236 54.4851 91.614 50.1144 92.6546L49.152 91.79Z" fill="#6C63FF"/>
<path d="M45.5177 87.6929C45.5177 87.6929 46.076 83.42 51.383 84.4822C51.383 84.4822 51.5438 88.1535 46.4214 88.6727L45.5177 87.6929Z" fill="#6C63FF"/>
<path d="M42.8131 83.4155C42.8131 83.4155 43.8602 79.225 49.1129 80.2721C49.1129 80.2721 48.0267 84.0411 43.1889 84.1671L42.8131 83.4155Z" fill="#6C63FF"/>
<path d="M40.2389 79.238C40.2389 79.238 41.2534 74.8934 46.3214 75.9969C46.3214 75.9969 44.8008 80.1396 40.593 79.9571L40.2389 79.238Z" fill="#6C63FF"/>
<path d="M38.5293 75.2411C38.5293 75.2411 39.2353 69.9558 43.9601 70.9377C43.9601 70.9377 42.7827 75.7668 38.8986 75.9905L38.5293 75.2411Z" fill="#6C63FF"/>
<path d="M36.8848 70.3945C36.8848 70.3945 37.7689 65.0614 42.5654 66.4191C42.5654 66.4191 40.8971 71.4915 37.2432 71.1135L36.8848 70.3945Z" fill="#6C63FF"/>
<path d="M35.8073 65.8739C35.8073 65.8739 37.3279 60.5169 41.0035 60.519C41.0035 60.519 39.4503 66.1671 36.1548 66.9231L35.8073 65.8739Z" fill="#6C63FF"/>
<path d="M35.0645 61.438C35.0645 61.438 36.7002 54.9948 39.7024 55.3728C39.7024 55.3728 38.588 60.291 35.2078 62.4264L35.0645 61.438Z" fill="#6C63FF"/>
<path d="M34.5365 56.1333C34.5365 56.1333 36.0941 50.7589 39.0311 50.433C39.0311 50.433 38.0318 55.701 34.6538 57.5105L34.5365 56.1333Z" fill="#6C63FF"/>
<path d="M33.989 51.1975C33.989 51.1975 35.9832 45.7993 37.9253 45.6038C37.9253 45.6038 37.1715 50.8717 34.2171 52.0621L33.989 51.1975Z" fill="#6C63FF"/>
<path d="M33.5698 46.5965C33.5698 46.5965 34.6994 40.7724 36.6241 40.2206C36.6241 40.2206 36.5394 44.9498 33.7805 47.0201L33.5698 46.5965Z" fill="#6C63FF"/>
<path d="M32.6074 40.5924C32.6074 40.5924 33.8522 35.9392 35.3989 35.1768C35.3989 35.1768 35.2946 40.6076 33.0093 41.6938L32.6074 40.5924Z" fill="#6C63FF"/>
<path d="M31.8471 36.6515L31.2498 28.553C31.2498 28.553 34.4214 34.5617 32.1187 38.0743L31.8471 36.6515Z" fill="#6C63FF"/>
<path d="M29.262 28.6793C29.262 28.6793 26.9181 22.8379 26.3967 22.5272C26.3967 22.5272 30.698 26.2202 30.4807 31.1688L29.262 28.6793Z" fill="#6C63FF"/>
<path d="M49.0086 91.768C49.0086 91.768 45.2613 91.4226 45.5763 96.684C45.5763 96.684 48.9651 97.1033 49.8971 92.7065L49.0086 91.768Z" fill="#6C63FF"/>
<path d="M45.3374 87.5581C45.3374 87.5581 41.0318 87.708 41.5879 93.0845C41.5879 93.0845 45.2266 93.5929 46.228 88.5422L45.3374 87.5581Z" fill="#6C63FF"/>
<path d="M42.7849 83.7674C42.7849 83.7674 38.8052 82.0839 36.4851 86.9108C36.4851 86.9108 40.1542 88.2989 43.1585 84.5212L42.7849 83.7674Z" fill="#6C63FF"/>
<path d="M40.152 79.2815C40.152 79.2815 36.0767 77.4829 33.9022 82.1968C33.9022 82.1968 38.1274 83.472 40.5105 79.9984L40.152 79.2815Z" fill="#6C63FF"/>
<path d="M38.5835 75.3518C38.5835 75.3518 34.5908 71.8195 31.6603 75.6602C31.6603 75.6602 35.7117 78.5364 38.7921 76.1642L38.5835 75.3518Z" fill="#6C63FF"/>
<path d="M37.0977 70.2598C37.0977 70.2598 33.0789 66.6451 30.1788 70.6943C30.1788 70.6943 34.6473 73.6161 37.2672 71.0397L37.0977 70.2598Z" fill="#6C63FF"/>
<path d="M36.1983 65.7022C36.1983 65.7022 33.0332 61.1186 29.5575 62.3003C29.5575 62.3003 32.8464 67.1577 36.207 66.8079L36.1983 65.7022Z" fill="#6C63FF"/>
<path d="M35.1535 61.4055C35.1535 61.4055 31.9145 55.6011 29.1122 56.7372C29.1122 56.7372 31.454 61.2035 35.2664 62.3961L35.1535 61.4055Z" fill="#6C63FF"/>
<path d="M34.7298 55.8225C34.7298 55.8225 31.4582 51.2823 28.5842 51.9622C28.5842 51.9622 31.2931 56.5893 35.0817 57.1606L34.7298 55.8225Z" fill="#6C63FF"/>
<path d="M34.3128 51.0801C34.3128 51.0801 31.7169 45.9447 29.7661 45.973C29.7661 45.973 31.1151 51.1214 34.1846 51.9643L34.3128 51.0801Z" fill="#6C63FF"/>
<path d="M33.661 46.4794C33.661 46.4794 30.7935 41.2876 28.7906 41.3527C28.7906 41.3527 30.3287 45.8277 33.5893 46.9487L33.661 46.4794Z" fill="#6C63FF"/>
<path d="M33.0463 40.8919C33.0463 40.8919 30.8848 36.5863 29.2164 36.1541C29.2164 36.1541 30.4177 41.4546 32.8703 42.0628L33.0463 40.8919Z" fill="#6C63FF"/>
<path d="M31.6039 36.5081L26.8921 29.8955C26.8921 29.8955 28.2889 36.5472 32.3034 37.7768L31.6039 36.5081Z" fill="#6C63FF"/>
<path d="M28.2649 29.2633C28.2649 29.2633 22.9622 25.8897 22.745 25.3184C22.745 25.3184 25.569 30.2235 30.4916 30.9186L28.2649 29.2633Z" fill="#6C63FF"/>
<path d="M27.8935 27.669C27.8935 27.669 21.7327 22.1838 20.2164 22.249C20.2164 22.249 25.1259 22.2837 28.0368 27.3605L27.8935 27.669Z" fill="#6C63FF"/>
<path d="M33.0202 41.7609L32.8029 41.7978C31.3518 33.0976 29.5249 27.9948 27.661 27.4256L27.724 27.2084C29.6965 27.8079 31.5343 32.8369 33.0202 41.7609Z" fill="#444053"/>
<path d="M35.4641 62.5893L35.1383 62.6284C35.0383 61.8159 34.9515 60.9818 34.8841 60.1519C34.2954 52.9289 33.5568 46.3033 32.7313 41.346L32.9116 41.1049C33.7393 46.0708 34.6213 52.892 35.2121 60.1259C35.2795 60.9513 35.3642 61.779 35.4641 62.5893Z" fill="#444053"/>
<path d="M62.0275 101.207C61.9688 101.183 56.1122 98.8325 49.8993 92.9281C46.2609 89.4722 43.1932 85.4616 40.8102 81.0454C37.832 75.5255 35.8834 68.674 35.0601 61.9788L35.4076 62.1265C37.2541 77.1548 44.5141 87.1997 50.1795 92.5979C56.3316 98.4502 62.1274 100.777 62.1817 100.799L62.0275 101.207Z" fill="#444053"/>
<g opacity="0.7">
<path opacity="0.7" d="M64.8536 83.5155C64.8536 83.5155 67.4843 82.6466 69.4155 84.2911C69.4155 84.2911 68.3793 85.4207 65.6118 84.5387L64.8536 83.5155Z" fill="#6C63FF"/>
<path opacity="0.7" d="M64.5582 83.52C64.5582 83.52 63.181 85.9248 64.4083 88.1428C64.4083 88.1428 65.7117 87.3542 65.4098 84.4672L64.5582 83.52Z" fill="#6C63FF"/>
<path opacity="0.7" d="M62.4446 80.2854C62.4446 80.2854 63.2049 78.1305 67.9732 80.2007C67.9732 80.2007 67.6147 81.6279 65.6879 81.8278C63.761 82.0276 63.118 81.2478 62.4446 80.2854Z" fill="#6C63FF"/>
<path opacity="0.7" d="M62.1426 80.1877C62.1426 80.1877 59.8616 80.2964 60.4742 85.46C60.4742 85.46 61.9449 85.5252 62.69 83.7373C63.4351 81.9495 62.8725 81.1088 62.1426 80.1877Z" fill="#6C63FF"/>
<path opacity="0.7" d="M60.1744 76.3012C60.1744 76.3012 60.8674 72.6082 65.8421 74.3461C65.8421 74.3461 65.3185 77.7197 60.8348 77.4134L60.1744 76.3012Z" fill="#6C63FF"/>
<path opacity="0.7" d="M57.924 71.305C57.924 71.305 59.727 67.3948 64.4714 69.9842C64.4714 69.9842 63.5329 73.536 58.4866 72.5085L57.924 71.305Z" fill="#6C63FF"/>
<path opacity="0.7" d="M56.6118 66.4281C56.6118 66.4281 58.8602 62.7351 63.5633 65.3006C63.5633 65.3006 61.391 68.5722 56.7487 67.2558L56.6118 66.4281Z" fill="#6C63FF"/>
<path opacity="0.7" d="M55.3975 61.6727C55.3975 61.6727 57.6567 57.832 62.173 60.3889C62.173 60.3889 59.4901 63.8907 55.5278 62.4656L55.3975 61.6727Z" fill="#6C63FF"/>
<path opacity="0.7" d="M54.9543 57.3477C54.9543 57.3477 57.2005 52.512 61.4236 54.8582C61.4236 54.8582 58.8624 59.1159 55.089 58.1753L54.9543 57.3477Z" fill="#6C63FF"/>
<path opacity="0.7" d="M54.8282 52.2319C54.8282 52.2319 57.2591 47.4027 61.4322 50.1269C61.4322 50.1269 58.3322 54.4715 54.9564 53.0248L54.8282 52.2319Z" fill="#6C63FF"/>
<path opacity="0.7" d="M55.1476 47.5895C55.1476 47.5895 58.1889 42.9276 61.6994 44.0225C61.6994 44.0225 58.5343 48.9602 55.165 48.6952L55.1476 47.5895Z" fill="#6C63FF"/>
<path opacity="0.7" d="M55.7646 43.1383C55.7646 43.1383 59.2403 37.475 61.997 38.7284C61.997 38.7284 59.4684 43.0926 55.6082 44.1245L55.7646 43.1383Z" fill="#6C63FF"/>
<path opacity="0.7" d="M56.8268 37.9182C56.8268 37.9182 59.9159 33.2499 62.8138 33.8125C62.8138 33.8125 60.2939 38.546 56.5314 39.2672L56.8268 37.9182Z" fill="#6C63FF"/>
<path opacity="0.7" d="M57.7763 33.0413C57.7763 33.0413 61.2846 28.4794 63.1962 28.8748C63.1962 28.8748 60.9088 33.68 57.735 33.9341L57.7763 33.0413Z" fill="#6C63FF"/>
<path opacity="0.7" d="M58.7429 28.5249C58.7429 28.5249 61.5539 23.3112 63.5568 23.346C63.5568 23.346 62.0666 27.8362 58.819 28.9941L58.7429 28.5249Z" fill="#6C63FF"/>
<path opacity="0.7" d="M59.6096 22.5054C59.6096 22.5054 62.1838 18.4345 63.887 18.1608C63.887 18.1608 62.1708 23.3179 59.6683 23.6807L59.6096 22.5054Z" fill="#6C63FF"/>
<path opacity="0.7" d="M60.0572 18.517L61.8972 10.6053C61.8972 10.6053 63.1376 17.2853 59.8921 19.9464L60.0572 18.517Z" fill="#6C63FF"/>
<path opacity="0.7" d="M59.9659 10.1385C59.9659 10.1385 59.4641 3.86477 59.0601 3.40424C59.0601 3.40424 62.0709 8.20076 60.3895 12.8713L59.9659 10.1385Z" fill="#6C63FF"/>
<path opacity="0.7" d="M60.0419 76.2426C60.0419 76.2426 56.5662 74.8002 55.3041 79.9182C55.3041 79.9182 58.4127 81.3259 60.6111 77.4048L60.0419 76.2426Z" fill="#6C63FF"/>
<path opacity="0.7" d="M57.7892 71.1312C57.7892 71.1312 53.6335 69.9951 52.5647 75.2934C52.5647 75.2934 55.8884 76.8618 58.3475 72.3369L57.7892 71.1312Z" fill="#6C63FF"/>
<path opacity="0.7" d="M56.4815 66.7538C56.4815 66.7538 53.1839 63.9623 49.53 67.8812C49.53 67.8812 52.6191 70.2991 56.614 67.5815L56.4815 66.7538Z" fill="#6C63FF"/>
<path opacity="0.7" d="M55.304 61.688C55.304 61.688 51.9456 58.7596 48.4698 62.6112C48.4698 62.6112 52.1237 65.0877 55.4322 62.4809L55.304 61.688Z" fill="#6C63FF"/>
<path opacity="0.7" d="M54.9761 57.4716C54.9761 57.4716 52.2128 52.9096 48.2722 55.7033C48.2722 55.7033 51.2853 59.6569 54.9326 58.3101L54.9761 57.4716Z" fill="#6C63FF"/>
<path opacity="0.7" d="M55.0717 52.1667C55.0717 52.1667 52.3084 47.5201 48.3374 50.5266C48.3374 50.5266 51.7349 54.654 55 52.9661L55.0717 52.1667Z" fill="#6C63FF"/>
<path opacity="0.7" d="M55.5669 47.5462C55.5669 47.5462 53.9094 42.2305 50.2404 42.3326C50.2404 42.3326 51.9348 47.9503 55.2476 48.615L55.5669 47.5462Z" fill="#6C63FF"/>
<path opacity="0.7" d="M55.8471 43.1339C55.8471 43.1339 54.4829 36.6277 51.4698 36.8797C51.4698 36.8797 52.3779 41.8413 55.6625 44.1158L55.8471 43.1339Z" fill="#6C63FF"/>
<path opacity="0.7" d="M57.1071 37.6793C57.1071 37.6793 55.3345 32.3701 52.3866 32.1638C52.3866 32.1638 53.5966 37.3882 57.0441 39.0609L57.1071 37.6793Z" fill="#6C63FF"/>
<path opacity="0.7" d="M58.1193 33.0263C58.1193 33.0263 57.1678 27.3522 55.2953 26.7982C55.2953 26.7982 55.0542 32.1139 57.7327 33.8344L58.1193 33.0263Z" fill="#6C63FF"/>
<path opacity="0.7" d="M58.8645 28.4403C58.8645 28.4403 57.6719 22.6293 55.7407 22.097C55.7407 22.097 55.8776 26.8262 58.6582 28.8661L58.8645 28.4403Z" fill="#6C63FF"/>
<path opacity="0.7" d="M59.9377 22.9314C59.9377 22.9314 59.1556 18.1783 57.6915 17.2681C57.6915 17.2681 57.257 22.6859 59.4293 24.0024L59.9377 22.9314Z" fill="#6C63FF"/>
<path opacity="0.7" d="M59.8682 18.2997L57.3352 10.5836C57.3352 10.5836 56.6835 17.3482 60.1593 19.7182L59.8682 18.2997Z" fill="#6C63FF"/>
<path opacity="0.7" d="M58.8363 10.3989C58.8363 10.3989 54.7675 5.59589 54.7371 4.98981C54.7371 4.98981 55.9818 10.5141 60.4655 12.6408L58.8363 10.3989Z" fill="#6C63FF"/>
<path opacity="0.7" d="M58.9558 8.76765C58.9558 8.76765 54.7045 1.69668 53.2382 1.30566C53.2382 1.30566 57.913 2.80241 59.173 8.50914L58.9558 8.76765Z" fill="#6C63FF"/>
<path opacity="0.7" d="M59.6595 23.7306L59.4423 23.7002C60.6436 14.9652 60.4199 9.54742 58.808 8.45039L58.9318 8.27008C60.6414 9.43663 60.8913 14.7828 59.6595 23.7306Z" fill="#444053"/>
<path opacity="0.7" d="M55.7928 44.368L55.4691 44.3094C55.6168 43.5034 55.7819 42.6823 55.9644 41.8677C57.5524 34.7967 58.8189 28.2536 59.5031 23.2746L59.7486 23.0965C59.0622 28.0929 57.8739 34.8597 56.2859 41.9415C56.1034 42.7388 55.9383 43.5556 55.7928 44.368Z" fill="#444053"/>
<path opacity="0.7" d="M69.6675 89.1291C69.6197 89.0899 64.7276 85.1037 60.5437 77.6157C58.0986 73.234 56.3638 68.4922 55.404 63.5671C54.2027 57.4107 54.3786 50.2898 55.5864 43.6533L55.8732 43.8966C53.1686 58.7945 57.1114 70.5469 60.9217 77.3876C65.0491 84.8039 69.8891 88.7489 69.9391 88.788L69.6675 89.1291Z" fill="#444053"/>
</g>
<path d="M220.352 163.818C220.352 163.818 211.167 163.264 212.251 169.701C212.251 169.701 212.034 170.837 213.066 171.354C213.066 171.354 213.083 170.876 214.009 171.039C214.338 171.094 214.673 171.11 215.006 171.087C215.456 171.055 215.885 170.878 216.227 170.583V170.583C216.227 170.583 218.807 169.516 219.811 165.297C219.811 165.297 220.554 164.376 220.526 164.14L218.975 164.791C218.975 164.791 219.505 165.91 219.087 166.838C219.087 166.838 219.038 164.832 218.74 164.882C218.679 164.893 217.934 165.271 217.934 165.271C217.934 165.271 218.846 167.226 218.151 168.634C218.151 168.634 218.412 166.234 217.643 165.41L216.557 166.049C216.557 166.049 217.621 168.061 216.9 169.701C216.9 169.701 217.085 167.183 216.326 166.203L215.338 166.974C215.338 166.974 216.339 168.958 215.729 170.318C215.729 170.318 215.649 167.387 215.125 167.166C215.125 167.166 214.256 167.928 214.128 168.252C214.128 168.252 214.812 169.69 214.389 170.45C214.389 170.45 214.128 168.495 213.913 168.495C213.913 168.495 213.044 169.788 212.962 170.667C212.962 170.667 212.998 169.349 213.704 168.365C213.208 168.458 212.749 168.695 212.386 169.047C212.386 169.047 212.521 168.132 213.906 168.052C213.906 168.052 214.619 167.072 214.81 167.011C214.81 167.011 213.418 166.896 212.575 167.27C212.575 167.27 213.318 166.401 215.064 166.798L216.04 166.001C216.04 166.001 214.208 165.751 213.433 166.027C213.433 166.027 214.326 165.265 216.303 165.821L217.365 165.187C217.365 165.187 215.805 164.85 214.875 164.969C214.875 164.969 215.857 164.439 217.678 165.013L218.438 164.672C218.438 164.672 217.293 164.454 216.959 164.411C216.624 164.368 216.607 164.283 216.607 164.283C217.33 164.162 218.074 164.245 218.753 164.522C218.753 164.522 220.38 163.92 220.352 163.818Z" fill="#345494"/>
<path opacity="0.1" d="M214.026 173.013C217.616 173.013 220.526 172.521 220.526 171.914C220.526 171.307 217.616 170.815 214.026 170.815C210.436 170.815 207.526 171.307 207.526 171.914C207.526 172.521 210.436 173.013 214.026 173.013Z" fill="#6C63FF"/>
<path d="M237.969 146.859C237.969 146.859 232.793 146.548 233.408 150.176C233.376 150.36 233.403 150.549 233.485 150.716C233.568 150.883 233.701 151.02 233.866 151.108C233.866 151.108 233.877 150.838 234.398 150.929C234.584 150.962 234.773 150.971 234.961 150.958C235.215 150.941 235.456 150.841 235.647 150.673V150.673C235.647 150.673 237.103 150.071 237.67 147.693C237.67 147.693 238.089 147.174 238.072 147.041L237.203 147.415C237.203 147.415 237.5 148.045 237.266 148.568C237.266 148.568 237.237 147.436 237.07 147.465C237.035 147.465 236.616 147.682 236.616 147.682C236.616 147.682 237.129 148.781 236.742 149.578C236.742 149.578 236.89 148.225 236.455 147.762L235.841 148.121C235.841 148.121 236.44 149.255 236.034 150.18C236.034 150.18 236.138 148.761 235.71 148.208L235.154 148.642C235.154 148.642 235.717 149.761 235.371 150.528C235.371 150.528 235.326 148.877 235.03 148.751C234.819 148.93 234.63 149.133 234.468 149.357C234.468 149.357 234.854 150.169 234.615 150.597C234.615 150.597 234.468 149.496 234.348 149.491C234.348 149.491 233.862 150.221 233.812 150.721C233.835 150.257 233.98 149.808 234.231 149.418C233.95 149.47 233.691 149.604 233.486 149.802C233.486 149.802 233.562 149.287 234.355 149.242C234.355 149.242 234.757 148.688 234.863 148.655C234.863 148.655 234.079 148.59 233.603 148.801C233.603 148.801 234.022 148.314 235.006 148.533L235.558 148.086C235.558 148.086 234.524 147.945 234.087 148.101C234.087 148.101 234.591 147.667 235.706 147.984L236.305 147.625C235.844 147.524 235.372 147.484 234.9 147.504C234.9 147.504 235.454 147.206 236.479 147.53L236.914 147.336C236.914 147.336 236.262 147.21 236.08 147.191C235.897 147.171 235.88 147.117 235.88 147.117C236.288 147.049 236.708 147.096 237.092 147.252C237.092 147.252 237.985 146.917 237.969 146.859Z" fill="#345494"/>
<path opacity="0.1" d="M234.405 152.044C236.429 152.044 238.069 151.767 238.069 151.425C238.069 151.083 236.429 150.806 234.405 150.806C232.381 150.806 230.74 151.083 230.74 151.425C230.74 151.767 232.381 152.044 234.405 152.044Z" fill="#6C63FF"/>
<path d="M207.407 150.009C207.407 150.009 201.155 149.631 201.893 154.012C201.855 154.234 201.888 154.463 201.988 154.665C202.087 154.867 202.248 155.033 202.447 155.138C202.447 155.138 202.447 154.814 203.088 154.92C203.313 154.958 203.541 154.969 203.768 154.955C204.074 154.933 204.365 154.812 204.598 154.612V154.612C204.598 154.612 206.355 153.886 207.04 151.012C207.04 151.012 207.546 150.387 207.524 150.226L206.471 150.676C206.471 150.676 206.831 151.438 206.547 152.07C206.547 152.07 206.514 150.704 206.31 150.736C206.269 150.736 205.762 150.999 205.762 150.999C205.762 150.999 206.381 152.327 205.914 153.289C205.914 153.289 206.093 151.655 205.569 151.095L204.826 151.529C204.826 151.529 205.549 152.898 205.059 154.017C205.059 154.017 205.185 152.303 204.67 151.627L203.996 152.151C203.996 152.151 204.678 153.5 204.263 154.427C204.263 154.427 204.209 152.433 203.851 152.281C203.851 152.281 203.262 152.8 203.173 153.013C203.173 153.013 203.638 153.993 203.349 154.51C203.349 154.51 203.173 153.182 203.027 153.176C203.027 153.176 202.441 154.056 202.376 154.66C202.405 154.102 202.579 153.561 202.882 153.091C202.544 153.155 202.232 153.317 201.985 153.556C201.985 153.556 202.076 152.933 203.027 152.878C203.027 152.878 203.512 152.211 203.642 152.17C203.642 152.17 202.695 152.092 202.121 152.346C202.121 152.346 202.625 151.757 203.814 152.025L204.478 151.484C204.478 151.484 203.234 151.312 202.704 151.501C202.704 151.501 203.312 150.982 204.659 151.36L205.382 150.925C205.382 150.925 204.32 150.695 203.686 150.778C203.686 150.778 204.355 150.419 205.593 150.808L206.112 150.595C206.112 150.595 205.334 150.443 205.106 150.419C204.878 150.395 204.867 150.332 204.867 150.332C205.36 150.25 205.866 150.307 206.329 150.495C206.329 150.495 207.426 150.078 207.407 150.009Z" fill="#345494"/>
<path opacity="0.1" d="M203.101 156.267C205.545 156.267 207.526 155.933 207.526 155.52C207.526 155.107 205.545 154.773 203.101 154.773C200.657 154.773 198.676 155.107 198.676 155.52C198.676 155.933 200.657 156.267 203.101 156.267Z" fill="#6C63FF"/>
<path opacity="0.1" d="M155.121 152.281L133.33 160.712L101.479 173.022C100.278 170.791 98.5054 167.739 96.3113 164.116C88.769 151.614 76.2867 132.169 65.1774 115.082C52.656 95.8281 41.8812 79.5703 41.8812 79.5703L49.6821 77.3089L113.401 58.8289L155.121 152.281Z" fill="black"/>
<path d="M155.555 150.76L133.765 159.191L101.914 171.502C100.712 169.271 98.9398 166.218 96.7458 162.595C89.2034 150.093 76.7212 130.649 65.6118 113.561C53.0905 94.3075 42.3157 78.0497 42.3157 78.0497L50.1165 75.7883L113.836 57.3082L155.555 150.76Z" fill="white"/>
<path opacity="0.1" d="M155.555 150.76L133.765 159.191C121.594 161.726 109.174 162.868 96.7457 162.595C89.2033 150.093 76.7211 130.649 65.6117 113.561L50.1165 75.7883L113.835 57.3082L155.555 150.76Z" fill="black"/>
<path d="M171.767 145.516C171.767 145.516 137.914 165.541 87.3721 161.022L47.0752 62.7913L66.3851 59.4741L133.137 48.0107L171.011 143.617L171.767 145.516Z" fill="#345494"/>
<path opacity="0.1" d="M171.011 143.617C163.039 144.008 153.82 143.972 144.539 142.866C134.499 141.688 124.41 139.251 115.743 134.789C108.505 131.059 102.316 127.008 96.9173 122.144C82.8819 109.518 74.1947 91.4575 66.3938 59.4741L133.145 48.0107L171.011 143.617Z" fill="black"/>
<path d="M195.843 138.126C195.843 138.126 170.879 143.018 145.493 140.005C135.452 138.821 125.353 136.39 116.696 131.928C109.458 128.198 103.269 124.147 97.871 119.283C80.4923 103.642 71.3229 79.6987 61.8645 31.3229C61.8645 31.3229 103.356 41.3352 144.35 19.4033C144.35 19.4033 158.177 105.704 195.843 138.126Z" fill="white"/>
<path opacity="0.1" d="M145.493 140.005C135.452 138.821 125.353 136.39 116.696 131.928C109.458 128.198 103.269 124.147 97.871 119.283C112.662 118.082 114.789 109.994 114.789 109.994C125.755 127.399 145.493 140.005 145.493 140.005Z" fill="black"/>
<path d="M83.3207 49.0838C83.3207 49.0838 105.609 51.6276 126.47 39.9056L127.899 44.4958C127.899 44.4958 107.942 54.4473 83.3207 54.4473V49.0838Z" fill="#E1EBFF"/>
<path opacity="0.3" d="M83.3207 71.7392C83.3207 71.7392 105.479 69.9513 130.145 58.0295L130.98 59.9369C130.98 59.9369 121.901 71.3612 83.3207 74.346V71.7392Z" fill="black"/>
<path opacity="0.3" d="M85.947 80.5764C85.947 80.5764 108.105 78.7885 132.772 66.8689L133.606 68.7762C133.606 68.7762 124.53 80.2114 85.947 83.1984V80.5764Z" fill="black"/>
<path opacity="0.3" d="M88.3496 90.1019C88.3496 90.1019 110.507 88.314 135.174 76.3944L136.009 78.3017C136.009 78.3017 126.919 89.7304 88.3496 92.7239V90.1019Z" fill="black"/>
<path opacity="0.3" d="M91.2019 98.2655C91.2019 98.2655 113.36 96.4777 138.027 84.558L138.861 86.4654C138.861 86.4654 129.785 97.8962 91.2019 100.89V98.2655Z" fill="black"/>
<path opacity="0.1" d="M93.8304 107.112C93.8304 107.112 115.988 105.324 140.655 93.4041L141.489 95.3114C141.489 95.3114 132.411 106.742 93.8304 109.734V107.112Z" fill="black"/>
<path d="M140.006 52.0809L133.806 54.1916L135.916 60.3918L142.116 58.2811L140.006 52.0809Z" fill="#E1EBFF"/>
<path d="M143.533 61.3048L137.333 63.4155L139.443 69.6156L145.644 67.5049L143.533 61.3048Z" fill="#E1EBFF"/>
<path d="M149.187 79.0526L142.987 81.1633L145.098 87.3634L151.298 85.2527L149.187 79.0526Z" fill="#E1EBFF"/>
<path d="M152.432 88.5784L146.232 90.6891L148.342 96.8893L154.543 94.7786L152.432 88.5784Z" fill="#E1EBFF"/>
<path d="M146.409 70.8872L140.209 72.9979L142.319 79.198L148.52 77.0873L146.409 70.8872Z" fill="#E1EBFF"/>
<path d="M211.239 97.6617L211.006 97.4444C211.606 97.3228 212.171 97.2685 212.171 97.2685C212.171 97.2685 210.114 89.826 206.644 87.343C204.928 86.1157 203.499 84.0715 202.489 82.3184C200.647 79.1484 198.579 76.1159 196.3 73.2446L195.674 72.456L195.405 72.1128C195.781 71.5436 196.241 71.0027 196.189 70.3423C196.188 70.338 196.188 70.3336 196.189 70.3293C196.191 70.2946 196.191 70.2597 196.189 70.225C196.183 70.1434 196.168 70.0626 196.145 69.9839L196.122 70.0208C195.828 69.1693 194.701 68.7935 193.864 68.3242C191.909 67.2229 191.073 64.8159 190.656 62.5784C190.33 60.8405 190.061 58.8854 188.701 57.7667C187.832 57.0476 186.65 56.8108 185.775 56.0961C184.945 55.4184 184.482 54.3908 183.961 53.4459C183.092 51.8709 181.945 50.4046 180.431 49.464C178.917 48.5234 176.994 48.1606 175.332 48.7906C174.696 49.0339 174.118 49.4118 173.488 49.6747C171.924 50.3264 170.132 50.2395 168.583 50.9281C166.676 51.7754 165.435 53.6479 164.301 55.4249C163.715 56.3438 162.794 57.6885 162.27 59.0418C162.27 58.994 162.27 58.9484 162.27 58.9006C162.019 59.4969 161.882 60.135 161.866 60.7819C161.856 61.057 161.886 61.3322 161.955 61.5987C162.19 62.4676 162.889 62.9477 163.719 63.2822C163.767 63.5586 163.831 63.8321 163.91 64.1012C164.286 65.3372 164.954 66.4645 165.857 67.3876C166.761 68.3107 167.874 69.0023 169.102 69.4039C169.174 69.4299 169.248 69.4473 169.319 69.469C169.38 69.641 169.467 69.8023 169.578 69.947C170.271 70.8159 171.661 70.5683 172.565 69.9361C172.602 69.9122 172.636 69.8818 172.671 69.8557C172.677 69.9787 172.69 70.1013 172.71 70.2228C172.73 70.3271 172.745 70.4401 172.767 70.5335C173.581 74.9238 175.667 77.2938 175.667 77.2938C175.667 77.2938 175.86 77.5849 176.175 78.0672C176.01 80.4893 177.116 82.6964 178.393 84.4017C177.292 85.0382 174.917 86.2851 173.449 86.1809C173.449 86.1809 168.053 86.8782 167.427 86.5284C167.34 86.4806 167.258 86.5458 167.179 86.6935C165.694 85.7877 160.943 83.1765 160.536 86.5284C160.169 89.5697 164.499 89.9585 166.56 89.9738C166.467 90.8644 166.415 91.5769 166.415 91.5769L175.28 90.9709L179.896 90.2909C179.386 90.9665 178.81 91.5683 178.248 91.8615C178.248 91.8615 174.074 95.2395 173.353 95.2699C173.251 95.2699 173.219 95.372 173.234 95.5349C171.479 95.5349 166.019 95.7891 167.534 98.8304C168.909 101.587 172.78 99.6798 174.531 98.6262C174.943 99.4278 175.295 100.056 175.295 100.056L182.449 94.9614L183.998 93.658C184.523 93.6328 185.041 93.5325 185.538 93.3604C185.538 93.38 185.553 93.3995 185.56 93.4169C185.615 93.5767 185.656 93.7409 185.683 93.9079C186.118 96.4039 184.658 102.226 184.658 102.226C184.658 102.226 181.447 110.413 182.99 111.53C184.532 112.646 183.392 117.358 183.392 117.358C183.661 117.811 183.971 118.239 184.317 118.636V118.636C184.48 118.824 184.662 118.997 184.858 119.15C184.786 119.346 184.727 119.545 184.68 119.748C184.444 120.752 184.533 121.804 184.934 122.754C185.994 125.326 185.349 129.054 185.349 129.054L183.268 143.113C182.269 142.961 180.978 142.835 180.498 143.113C179.762 143.528 180.003 145.62 181.712 146.52C181.193 146.917 180.592 147.194 179.953 147.33C178.432 147.678 177.363 147.899 176.66 148.034C176.614 148.034 173.01 147.239 172.085 147.764C171.159 148.29 171.605 151.205 174.237 151.92C176.814 152.617 186.422 153.641 189.19 153.224L189.366 153.193C191.718 152.728 189.652 149.637 189.392 149.261C189.374 149.135 189.359 149.003 189.342 148.859C189.305 148.538 189.272 148.169 189.248 147.773C191.872 148.014 194.462 148.132 195.65 147.953C195.707 147.953 195.759 147.936 195.807 147.925C197.89 147.512 196.065 144.78 195.83 144.449C195.82 144.365 195.809 144.276 195.798 144.182V144.158C195.798 144.095 195.783 144.028 195.776 143.963C195.77 143.898 195.776 143.852 195.759 143.793C195.741 143.735 195.759 143.689 195.744 143.635C195.735 143.528 195.726 143.417 195.718 143.302C195.718 143.257 195.718 143.209 195.718 143.161C195.718 143.074 195.707 142.988 195.702 142.898C195.702 142.851 195.702 142.803 195.702 142.753C195.702 142.623 195.702 142.488 195.689 142.353C195.689 142.316 195.689 142.279 195.689 142.242C195.689 142.134 195.689 142.025 195.689 141.912C195.689 141.86 195.689 141.808 195.689 141.754C195.689 141.638 195.689 141.523 195.689 141.406C195.689 141.367 195.689 141.33 195.689 141.291C195.689 141.145 195.702 140.995 195.711 140.846L195.724 140.685C195.724 140.574 195.741 140.468 195.752 140.355C195.752 140.3 195.752 140.246 195.77 140.192C195.787 140.04 195.807 139.888 195.828 139.733C195.828 139.688 195.843 139.642 195.85 139.596C195.87 139.481 195.889 139.364 195.911 139.247C195.911 139.19 195.933 139.132 195.946 139.073C195.972 138.947 196 138.821 196.03 138.695C196.03 138.66 196.046 138.625 196.054 138.591C196.093 138.439 196.137 138.289 196.182 138.139C196.198 138.087 196.215 138.035 196.232 137.982C196.269 137.869 196.308 137.765 196.35 137.648L196.402 137.509C196.46 137.361 196.523 137.216 196.589 137.074C196.606 137.037 196.626 137.001 196.645 136.964C196.699 136.851 196.758 136.746 196.819 136.629L196.893 136.501C196.975 136.362 197.06 136.223 197.153 136.09C199.543 132.684 200.173 126.115 200.114 124.686C200.056 123.256 200.399 120.291 200.827 119.852C201.114 119.559 202.782 117.245 203.779 115.486C203.959 115.164 204.116 114.862 204.24 114.593C204.948 114.347 205.417 114.158 205.417 114.158C205.167 113.246 205.047 112.304 205.061 111.358C205.078 109.51 205.586 107.074 207.685 105.098C210.783 102.178 211.215 99.2844 211.256 98.1722C211.256 98.094 211.256 98.0244 211.256 97.9658C211.25 97.7616 211.239 97.6617 211.239 97.6617Z" fill="url(#paint0_linear_1_268)"/>
<path d="M202.984 115.881C202.143 117.383 201.2 118.826 200.16 120.198C199.752 120.632 199.424 123.567 199.48 124.977C199.536 126.387 198.939 132.886 196.656 136.253C194.373 139.621 195.546 145.44 195.546 145.44L191.903 146.718H187.526L184.51 145.816L183.715 143.622C183.715 143.622 184.775 143.459 187.408 142.833C188.139 142.685 188.8 142.301 189.292 141.742C189.785 141.182 190.08 140.477 190.135 139.734L191.983 126.823C191.983 126.823 192.529 123.565 191.629 121.31C191.376 120.675 191.271 119.991 191.322 119.31C191.373 118.628 191.579 117.968 191.925 117.378L191.983 117.287C191.983 117.287 194.836 115.034 197.742 113.624C200.316 112.382 202.927 111.791 203.668 113.996C203.764 114.28 203.451 115.012 202.984 115.881Z" fill="#A5636D"/>
<path opacity="0.05" d="M202.984 115.881C202.143 117.383 201.2 118.826 200.16 120.198C199.752 120.632 199.424 123.567 199.48 124.977C199.536 126.387 198.939 132.886 196.656 136.253C195.048 138.628 195.155 142.216 195.353 144.13C195.437 144.932 195.542 145.434 195.542 145.434L191.899 146.711H187.526L184.51 145.816L183.715 143.622C183.715 143.622 183.98 143.581 184.584 143.463C185.188 143.346 186.105 143.146 187.421 142.833C188.149 142.682 188.808 142.298 189.298 141.738C189.787 141.179 190.081 140.475 190.135 139.734L191.983 126.823C191.983 126.823 192.529 123.565 191.629 121.31C191.376 120.675 191.271 119.991 191.322 119.31C191.373 118.628 191.579 117.968 191.925 117.378L191.983 117.287C191.983 117.287 194.836 115.034 197.742 113.624C200.316 112.382 202.927 111.791 203.668 113.996C203.764 114.28 203.451 115.012 202.984 115.881Z" fill="black"/>
<path opacity="0.1" d="M195.546 145.442L191.903 146.72H187.526L184.51 145.816L183.715 143.622C183.715 143.622 183.98 143.581 184.584 143.463C184.542 143.862 184.646 144.263 184.879 144.589C185.112 144.916 185.456 145.146 185.846 145.236L187.558 145.295C187.799 145.295 188.043 145.308 188.282 145.308C190.689 145.309 193.081 144.912 195.359 144.133C195.446 144.934 195.546 145.442 195.546 145.442Z" fill="black"/>
<path d="M187.556 145.664L185.842 145.605C185.842 145.605 184.243 145.266 184.634 143.452C184.634 143.452 181.549 142.753 180.761 143.216C179.972 143.678 180.353 146.231 182.581 146.857C184.754 147.467 192.891 148.364 195.231 147.997L195.381 147.971C197.501 147.536 195.381 144.495 195.381 144.495C192.865 145.356 190.214 145.752 187.556 145.664Z" fill="#BEBED0"/>
<path d="M198.111 116.381C197.996 116.611 197.872 116.85 197.731 117.1C196.656 119.055 194.931 121.516 194.629 121.835C194.169 122.326 193.801 125.637 193.86 127.236C193.919 128.835 193.25 136.16 190.673 139.961C189.355 141.917 189.057 144.578 189.079 146.72C189.085 147.445 189.128 148.17 189.207 148.892C189.303 149.776 189.424 150.328 189.424 150.328L185.314 151.768H180.368L176.964 150.756L176.073 148.271C176.073 148.271 176.371 148.223 177.04 148.09C177.709 147.958 178.751 147.736 180.242 147.384C181.064 147.214 181.808 146.781 182.362 146.15C182.916 145.519 183.249 144.724 183.311 143.887L185.394 129.317C185.394 129.317 186.009 125.635 184.997 123.093C184.615 122.15 184.53 121.112 184.754 120.119C184.875 119.562 185.096 119.03 185.405 118.551C185.405 118.551 186.2 117.925 187.4 117.098C187.93 116.733 188.544 116.329 189.205 115.92C192.107 114.124 195.924 112.29 197.753 113.626C198.156 113.931 198.452 114.356 198.596 114.84C198.67 115.092 198.463 115.664 198.111 116.381Z" fill="#A5636D"/>
<path opacity="0.1" d="M189.413 150.33L185.303 151.77H180.368L176.964 150.758L176.073 148.273C176.073 148.273 176.371 148.225 177.04 148.093C176.997 148.387 177.027 148.687 177.128 148.967C177.229 149.247 177.397 149.498 177.618 149.698C177.96 149.989 178.393 150.152 178.843 150.158L180.4 150.208C180.672 150.208 180.946 150.224 181.217 150.224C183.935 150.223 186.635 149.774 189.207 148.894C189.303 149.778 189.413 150.33 189.413 150.33Z" fill="black"/>
<path d="M180.398 150.578L178.843 150.526C178.393 150.518 177.959 150.355 177.615 150.065C177.22 149.713 176.879 149.105 177.101 148.082C177.101 148.082 173.625 147.293 172.728 147.815C171.83 148.336 172.269 151.219 174.783 151.925C177.244 152.613 186.42 153.626 189.061 153.213L189.229 153.182C191.618 152.692 189.229 149.255 189.229 149.255C186.39 150.23 183.398 150.678 180.398 150.578V150.578Z" fill="#BEBED0"/>
<path opacity="0.1" d="M202.984 115.881C201.496 116.4 199.311 117.089 198.111 117.117C197.987 117.122 197.863 117.116 197.74 117.1V117.1C196.901 116.985 194.31 117.169 191.933 117.382C190.98 117.467 190.063 117.556 189.305 117.634C188.175 117.752 187.397 117.836 187.397 117.836V117.1C187.928 116.735 188.542 116.331 189.203 115.922C192.105 114.126 195.922 112.292 197.751 113.628C200.325 112.386 202.936 111.795 203.677 114C203.764 114.28 203.451 115.012 202.984 115.881Z" fill="black"/>
<path d="M210.125 98.7478C210.083 99.8492 209.67 102.708 206.712 105.597C202.941 109.279 204.539 114.567 204.539 114.567C204.539 114.567 200.043 116.333 198.103 116.381C197.979 116.385 197.854 116.38 197.731 116.363C196.567 116.2 191.944 116.628 189.287 116.898C188.158 117.015 187.38 117.1 187.38 117.1V101.459L208.219 96.3995L210.107 98.2786C210.123 98.4345 210.129 98.5912 210.125 98.7478Z" fill="#5C5C8E"/>
<g opacity="0.1">
<path opacity="0.1" d="M187.732 116.906L187.389 116.943V117.108C187.389 117.108 188.166 117.024 189.296 116.906C191.203 116.713 194.117 116.441 196.043 116.361C194.71 116.239 190.304 116.646 187.732 116.906Z" fill="black"/>
<path opacity="0.1" d="M210.116 98.2873L208.228 96.406L206.97 96.721L208.552 98.2959C208.562 98.4529 208.562 98.6104 208.552 98.7673C208.51 99.8665 208.098 102.728 205.139 105.617C201.368 109.297 202.967 114.586 202.967 114.586C202.967 114.586 199.245 116.046 197.114 116.348C197.318 116.347 197.521 116.358 197.723 116.381C197.846 116.398 197.97 116.404 198.094 116.4C200.034 116.352 204.531 114.586 204.531 114.586C204.531 114.586 202.923 109.297 206.703 105.617C209.662 102.728 210.075 99.8665 210.116 98.7673C210.127 98.6075 210.127 98.4471 210.116 98.2873Z" fill="black"/>
</g>
<path d="M168.481 87.6994C168.481 87.6994 162.181 83.3286 161.718 87.2649C161.256 91.2012 168.481 90.6386 168.481 90.6386V87.6994Z" fill="#A5636D"/>
<path d="M179.342 84.8014C179.342 84.8014 175.934 87.0563 174.048 86.9172C174.048 86.9172 168.896 87.608 168.296 87.2626C167.696 86.9172 167.332 92.259 167.332 92.259L175.804 91.6616L181.235 90.8318C181.235 90.8318 183.95 89.1765 183.95 87.7493C183.95 86.322 179.342 84.8014 179.342 84.8014Z" fill="#F7CDDD"/>
<path opacity="0.05" d="M179.342 84.8014C179.342 84.8014 175.934 87.0563 174.048 86.9172C174.048 86.9172 168.896 87.608 168.296 87.2626C167.696 86.9172 167.332 92.259 167.332 92.259L175.804 91.6616L181.235 90.8318C181.235 90.8318 183.95 89.1765 183.95 87.7493C183.95 86.322 179.342 84.8014 179.342 84.8014Z" fill="black"/>
<path d="M174.344 96.1757C174.344 96.1757 166.682 95.8585 168.398 99.4342C170.114 103.01 175.921 98.6695 175.921 98.6695L174.344 96.1757Z" fill="#A5636D"/>
<path d="M182.051 88.575C182.051 88.575 175.841 83.9284 176.716 78.2694C177.591 72.6105 182.051 82.6011 182.051 82.6011V88.575Z" fill="#5C5C8E"/>
<path d="M180.335 62.9194C180.333 64.9552 179.541 66.9107 178.126 68.3742C177.782 68.7338 177.402 69.0577 176.992 69.3409C176.21 69.8862 175.338 70.2892 174.416 70.5313C174.049 70.6228 173.677 70.6889 173.301 70.729C173.032 70.7551 172.76 70.7703 172.484 70.7703C171.603 70.7753 170.728 70.6283 169.897 70.3358C168.537 69.861 167.333 69.0209 166.419 67.9077C165.504 66.7945 164.913 65.451 164.711 64.0244C164.509 62.5977 164.704 61.1431 165.273 59.8196C165.843 58.4962 166.766 57.355 167.941 56.5211C169.116 55.6872 170.498 55.1928 171.935 55.0919C173.372 54.9911 174.81 55.2877 176.089 55.9494C177.369 56.611 178.443 57.6121 179.191 58.8431C179.94 60.074 180.336 61.4873 180.335 62.9281V62.9194Z" fill="#A5636D"/>
<path opacity="0.1" d="M210.125 98.7478C209.421 98.8782 208.552 99.1128 208.552 99.4777C208.552 100.093 198.737 103.405 198.737 103.405C198.737 103.405 199.104 104.261 198.125 105.734C197.145 107.207 189.168 115.67 189.168 115.67L189.194 115.922L189.296 116.898L189.783 121.56C189.783 121.56 186.715 120.456 185.733 120.578C185.416 120.619 185.082 120.415 184.754 120.121C184.875 119.564 185.096 119.032 185.405 118.553C185.405 118.553 186.201 117.927 187.4 117.1V101.459L208.239 96.3995L210.127 98.2786C210.137 98.4349 210.136 98.5917 210.125 98.7478V98.7478Z" fill="black"/>
<path d="M211.006 97.8831C211.006 97.8831 208.552 98.1264 208.552 98.7412C208.552 99.3559 198.737 102.669 198.737 102.669C198.737 102.669 199.104 103.525 198.124 104.997C197.145 106.47 189.168 114.936 189.168 114.936L189.783 120.823C189.783 120.823 186.715 119.719 185.733 119.841C185.299 119.895 184.81 119.491 184.408 119.02C184.076 118.627 183.78 118.204 183.524 117.758C183.524 117.758 184.63 113.094 183.157 111.99C181.684 110.887 184.751 102.79 184.751 102.79C184.751 102.79 186.137 97.0337 185.729 94.5638C185.704 94.3985 185.664 94.2357 185.612 94.0771C185.612 94.0598 185.601 94.0402 185.594 94.0228C184.725 91.6637 175.306 71.865 175.306 71.865C175.312 71.3034 175.351 70.7427 175.423 70.1858C175.443 70.0315 175.469 69.8708 175.497 69.7079C175.545 69.4149 175.609 69.1248 175.688 68.8389C175.738 68.6556 175.798 68.4751 175.867 68.298C176.158 67.5507 176.603 66.9751 177.268 66.962C177.268 66.962 178.004 66.1474 179.731 65.9258C180.996 65.7607 182.801 65.9258 185.245 66.962C191.008 69.4124 192.359 69.5384 192.359 69.5384L195.255 73.34L195.85 74.1199C198.032 76.9656 200.007 79.9638 201.761 83.0916C202.725 84.8295 204.092 86.8476 205.73 88.0619C209.043 90.5232 211.006 97.8831 211.006 97.8831Z" fill="#F7CDDD"/>
<path opacity="0.1" d="M189.505 83.6981C189.505 83.6981 197.694 85.7227 200.868 90.8277L189.505 83.6981Z" fill="black"/>
<path opacity="0.1" d="M192.035 92.6677C192.035 92.6677 193.584 103.067 193.154 103.849C192.724 104.631 192.035 92.6677 192.035 92.6677Z" fill="black"/>
<path opacity="0.1" d="M191.481 98.0048C190.886 98.7846 188.468 104.813 188.468 104.813L189.166 114.936L189.781 120.823C189.781 120.823 186.715 119.719 185.733 119.841C185.299 119.895 184.808 119.491 184.408 119.02C185.045 115.572 186.407 108.358 186.652 108.219C186.976 108.034 188.634 102.239 188.72 100.616C188.807 98.9932 191.11 95.3762 191.11 95.3762C191.11 95.3762 192.081 97.2249 191.481 98.0048Z" fill="black"/>
<path opacity="0.1" d="M189.168 88.0687C189.016 88.5271 188.781 91.1969 188.781 91.1969C188.612 93.5474 186.826 94.3164 185.729 94.564C185.704 94.3988 185.664 94.236 185.612 94.0774C184.875 91.9941 175.306 71.8739 175.306 71.8739C175.316 70.8532 175.445 69.837 175.688 68.8457C177.772 68.2331 181.069 69.1759 181.069 69.1759C182.023 69.0499 185.134 75.2346 185.134 75.2346C185.134 75.2346 187.206 79.9702 187.434 80.6154C187.662 81.2606 187.434 82.3185 187.526 82.6878C187.617 83.0571 188.586 83.3743 188.723 83.8826C188.859 84.391 188.77 85.4033 188.862 85.5836C188.953 85.7639 189.322 87.6082 189.168 88.0687Z" fill="black"/>
<path d="M188.432 87.6993C188.279 88.1599 188.045 90.8275 188.045 90.8275C187.906 92.7826 186.646 93.6515 185.594 94.023C185.121 94.1924 184.624 94.2912 184.122 94.3163L182.642 95.6023L175.81 100.631C175.81 100.631 173.264 95.9238 173.955 95.8977C174.646 95.8717 178.63 92.5263 178.63 92.5263C179.849 91.8746 181.069 89.7022 181.636 88.5856C181.604 88.4525 181.579 88.3176 181.563 88.1816C181.317 86.0983 176.164 78.1215 176.164 78.1215C176.164 78.1215 174.172 75.7775 173.397 71.435C173.375 71.3351 173.36 71.233 173.34 71.1287C173.318 70.9936 173.305 70.8572 173.301 70.7203C173.208 69.0498 174.424 68.4415 175.867 68.2982C176.62 68.2384 177.378 68.2617 178.126 68.3677C178.871 68.4616 179.61 68.6067 180.335 68.8021C180.952 68.7196 182.473 71.2851 183.47 73.1034C184.006 74.0896 184.393 74.8586 184.393 74.8586C184.393 74.8586 186.466 79.5965 186.694 80.2395C186.922 80.8825 186.694 81.9448 186.785 82.3119C186.876 82.679 187.845 83.0005 187.982 83.5089C188.119 84.0172 188.03 85.0295 188.121 85.2098C188.212 85.3901 188.586 87.2388 188.432 87.6993Z" fill="#F7CDDD"/>
<path opacity="0.1" d="M196.356 77.0853C195.053 78.4169 192.948 78.4213 191.258 77.737C189.568 77.0527 188.136 75.8275 186.57 74.8738C185.553 74.2526 184.476 73.7442 183.474 73.1034C183.326 73.0078 183.183 72.9122 183.04 72.8123C181.884 71.9955 180.883 70.9463 179.686 70.2055C178.885 69.673 177.953 69.3723 176.992 69.3366C176.55 69.3326 176.112 69.4245 175.708 69.6059C175.633 69.6363 175.561 69.6719 175.491 69.7124C175.097 69.9383 174.732 70.2119 174.405 70.527C174.066 70.8311 173.742 71.1548 173.386 71.4394C173.364 71.3394 173.349 71.2373 173.329 71.1331C173.307 70.9979 173.294 70.8615 173.29 70.7247C173.021 70.7507 172.749 70.7659 172.473 70.7659C171.592 70.771 170.717 70.624 169.886 70.3315C169.886 70.2989 169.886 70.2663 169.867 70.2337C169.573 68.687 169.043 67.0491 167.799 66.1801C167.077 65.6762 165.926 65.4698 164.927 65.094C164.58 63.8886 164.528 62.6177 164.774 61.3879C165.02 60.1581 165.556 59.005 166.339 58.0252C167.122 57.0455 168.129 56.2676 169.274 55.7566C170.419 55.2456 171.67 55.0165 172.922 55.0884C174.175 55.1603 175.391 55.5311 176.471 56.1698C177.55 56.8085 178.46 57.6965 179.126 58.7594C179.792 59.8223 180.193 61.0293 180.297 62.2792C180.4 63.529 180.202 64.7855 179.72 65.9434C180.985 65.7783 182.79 65.9434 185.234 66.9796C190.997 69.43 192.348 69.556 192.348 69.556L195.244 73.3576C194.931 73.8355 194.577 74.3069 194.544 74.8652C194.49 75.8883 195.487 76.603 196.356 77.0853Z" fill="black"/>
<path d="M167.807 65.4394C169.052 66.3083 169.582 67.9441 169.877 69.4886C169.969 69.9709 170.056 70.4792 170.351 70.8615C171.003 71.7174 172.341 71.4763 173.203 70.8615C174.066 70.2468 174.746 69.3148 175.708 68.8804C176.985 68.3025 178.489 68.724 179.686 69.4734C180.883 70.2229 181.884 71.2721 183.04 72.0802C184.158 72.8688 185.405 73.4314 186.57 74.1418C188.136 75.0954 189.568 76.3271 191.258 77.0049C192.948 77.6827 195.059 77.6805 196.354 76.3532C195.485 75.8709 194.488 75.1584 194.555 74.1244C194.623 73.0904 195.826 72.3192 195.746 71.2591C195.665 70.199 194.418 69.7841 193.523 69.2627C191.655 68.1765 190.858 65.7869 190.458 63.582C190.148 61.8572 189.891 59.9303 188.603 58.8224C187.771 58.1099 186.648 57.8775 185.809 57.1715C185.017 56.5002 184.576 55.4857 184.072 54.5494C183.24 52.9919 182.147 51.5429 180.702 50.611C179.258 49.6791 177.42 49.3076 175.834 49.9463C175.226 50.1874 174.672 50.561 174.072 50.8152C172.578 51.4669 170.868 51.3735 169.389 52.0534C167.566 52.8919 166.382 54.7428 165.298 56.5002C164.381 58.0056 162.563 60.6602 163.078 62.6153C163.591 64.603 166.456 64.4966 167.807 65.4394Z" fill="#4C3E42"/>
<g opacity="0.1">
<path opacity="0.1" d="M195.744 71.1397C195.737 71.059 195.723 70.979 195.702 70.9008C195.372 71.4199 194.962 71.9239 194.922 72.5322C194.914 72.6729 194.926 72.8141 194.957 72.9514C195.324 72.3671 195.796 71.8175 195.744 71.1397Z" fill="black"/>
<path opacity="0.1" d="M191.625 75.4192C189.935 74.7414 188.505 73.5097 186.939 72.556C185.773 71.8457 184.526 71.283 183.407 70.4945C182.251 69.6777 181.25 68.6284 180.053 67.8877C178.856 67.1469 177.355 66.7168 176.075 67.2924C175.113 67.7269 174.435 68.6502 173.571 69.2758C172.706 69.9014 171.381 70.1447 170.718 69.2758C170.423 68.8935 170.336 68.3851 170.245 67.9029C169.951 66.3583 169.419 64.7226 168.177 63.8536C166.823 62.9087 163.958 63.0151 163.439 61.0296C163.352 60.6744 163.329 60.3066 163.371 59.9434C163.039 60.8297 162.867 61.7204 163.07 62.4959C163.591 64.4901 166.456 64.3837 167.807 65.32C169.052 66.1889 169.582 67.8268 169.878 69.3714C169.969 69.8536 170.056 70.362 170.349 70.7443C171.001 71.6002 172.339 71.3591 173.203 70.7334C174.068 70.1078 174.744 69.1867 175.708 68.7522C176.986 68.1766 178.489 68.598 179.686 69.3475C180.883 70.0969 181.884 71.1462 183.04 71.9543C184.159 72.745 185.405 73.3055 186.57 74.0158C188.136 74.9717 189.568 76.2034 191.258 76.8811C192.948 77.5589 195.059 77.5546 196.354 76.2294C196.019 76.0495 195.701 75.8394 195.405 75.6016C194.227 76.0339 192.822 75.8992 191.625 75.4192Z" fill="black"/>
</g>
<path d="M153.177 90.278L170.555 83.7871C170.759 83.7108 170.975 83.6754 171.192 83.6829C171.409 83.6903 171.622 83.7405 171.82 83.8304C172.017 83.9204 172.195 84.0485 172.343 84.2073C172.491 84.3661 172.606 84.5525 172.682 84.7559V84.7559C172.758 84.9593 172.793 85.1757 172.785 85.3926C172.778 85.6096 172.727 85.8229 172.637 86.0204C172.547 86.2179 172.419 86.3957 172.26 86.5436C172.101 86.6915 171.914 86.8068 171.711 86.8826L154.332 93.3758L150.609 93.0021L153.177 90.278Z" fill="#5C5C8E"/>
<path opacity="0.1" d="M172.154 84.2344C172.307 84.6455 172.291 85.1007 172.109 85.4999C171.927 85.899 171.594 86.2096 171.183 86.3633L153.804 92.8543L151.006 92.574L150.604 93.0085L154.328 93.3822L171.707 86.889C171.91 86.8132 172.096 86.698 172.255 86.55C172.414 86.4021 172.542 86.2243 172.633 86.0268C172.723 85.8293 172.773 85.616 172.781 85.399C172.789 85.1821 172.754 84.9657 172.678 84.7623V84.7623C172.55 84.4198 172.313 84.1294 172.002 83.9368C172.062 84.0311 172.113 84.1307 172.154 84.2344Z" fill="white"/>
<path d="M153.177 90.278L154.334 93.3757L151.278 93.0694L150.609 93.0021L151.523 92.0332L153.177 90.278Z" fill="#EFC8C4"/>
<path d="M151.521 92.0331C151.593 92.0856 151.654 92.1521 151.699 92.2286C151.728 92.2737 151.744 92.3261 151.744 92.3796C151.744 92.4331 151.728 92.4855 151.699 92.5305C151.649 92.5788 151.592 92.6191 151.53 92.65C151.46 92.6964 151.401 92.7583 151.358 92.831C151.315 92.9036 151.289 92.9852 151.282 93.0693L150.613 93.0019L151.521 92.0331Z" fill="#727A9C"/>
<path d="M138.007 56.7131L135.077 55.2837C135.035 55.2633 134.997 55.2349 134.967 55.2C134.936 55.1652 134.912 55.1246 134.897 55.0806C134.882 55.0367 134.876 54.9901 134.878 54.9437C134.881 54.8973 134.893 54.8519 134.914 54.8101L135.224 54.1714C135.245 54.1294 135.273 54.0919 135.308 54.0609C135.342 54.0299 135.383 54.0062 135.427 53.991C135.471 53.9759 135.518 53.9696 135.564 53.9726C135.611 53.9756 135.656 53.9878 135.698 54.0085L137.673 54.9709L139.734 50.7435C139.775 50.6591 139.848 50.5944 139.937 50.5635C140.026 50.5326 140.123 50.5379 140.208 50.5784L140.846 50.8912C140.888 50.9114 140.926 50.9397 140.957 50.9745C140.988 51.0093 141.012 51.0499 141.027 51.094C141.042 51.138 141.048 51.1846 141.045 51.2311C141.042 51.2776 141.03 51.323 141.009 51.3648L138.481 56.5502C138.46 56.5919 138.432 56.6293 138.397 56.6601C138.362 56.6909 138.322 56.7146 138.278 56.7297C138.234 56.7448 138.187 56.7512 138.141 56.7483C138.094 56.7455 138.049 56.7335 138.007 56.7131V56.7131Z" fill="#3ACC6C"/>
<path d="M144.409 74.9976L141.479 73.5682C141.437 73.5478 141.399 73.5194 141.369 73.4846C141.338 73.4497 141.314 73.4092 141.299 73.3652C141.284 73.3212 141.278 73.2747 141.28 73.2283C141.283 73.1819 141.295 73.1365 141.316 73.0947L141.626 72.456C141.668 72.3714 141.741 72.3068 141.831 72.2763C141.92 72.2457 142.017 72.2518 142.102 72.2931L144.075 73.2554L146.134 69.0237C146.175 68.9393 146.248 68.8746 146.337 68.8437C146.425 68.8128 146.523 68.8181 146.607 68.8586L147.244 69.1714C147.286 69.1916 147.324 69.2199 147.355 69.2547C147.386 69.2894 147.409 69.33 147.425 69.3739C147.44 69.4179 147.447 69.4645 147.444 69.511C147.441 69.5575 147.429 69.6031 147.409 69.645L144.88 74.8304C144.838 74.9145 144.765 74.9788 144.676 75.0093C144.587 75.0397 144.49 75.034 144.405 74.9933L144.409 74.9976Z" fill="#3ACC6C"/>
<path d="M141.535 65.9846L138.605 64.5551C138.52 64.5139 138.456 64.441 138.425 64.3523C138.394 64.2637 138.399 64.1663 138.44 64.0816L138.752 63.4429C138.773 63.4009 138.801 63.3633 138.836 63.3324C138.87 63.3014 138.911 63.2777 138.955 63.2625C138.999 63.2473 139.046 63.2411 139.092 63.2441C139.139 63.2471 139.184 63.2593 139.226 63.28L141.201 64.2423L143.262 60.0084C143.283 59.9667 143.311 59.9293 143.346 59.8985C143.381 59.8677 143.421 59.844 143.465 59.8289C143.509 59.8138 143.556 59.8074 143.602 59.8103C143.649 59.8132 143.694 59.8251 143.736 59.8455L144.374 60.1562C144.459 60.1982 144.523 60.2717 144.553 60.3607C144.584 60.4497 144.578 60.5471 144.537 60.6319L142.007 65.8216C141.986 65.8634 141.958 65.9008 141.923 65.9316C141.888 65.9624 141.847 65.986 141.803 66.0012C141.76 66.0163 141.713 66.0226 141.667 66.0198C141.62 66.0169 141.575 66.005 141.533 65.9846H141.535Z" fill="#3ACC6C"/>
<path d="M147.19 83.2526L144.259 81.8232C144.217 81.8028 144.18 81.7743 144.149 81.7395C144.118 81.7047 144.095 81.6641 144.08 81.6201C144.064 81.5762 144.058 81.5296 144.061 81.4832C144.064 81.4368 144.076 81.3914 144.096 81.3496L144.407 80.7109C144.427 80.6691 144.456 80.6318 144.491 80.601C144.525 80.5702 144.566 80.5465 144.61 80.5314C144.654 80.5162 144.7 80.5099 144.747 80.5128C144.793 80.5156 144.839 80.5276 144.88 80.548L146.855 81.5104L148.917 77.283C148.958 77.1984 149.032 77.1337 149.121 77.1028C149.21 77.0719 149.307 77.0773 149.392 77.1179L150.029 77.4307C150.071 77.4509 150.108 77.4792 150.139 77.514C150.17 77.5488 150.194 77.5894 150.209 77.6334C150.224 77.6775 150.231 77.7241 150.228 77.7706C150.225 77.8171 150.212 77.8625 150.192 77.9043L147.665 83.0896C147.623 83.1738 147.55 83.2381 147.461 83.2685C147.372 83.299 147.274 83.2933 147.19 83.2526V83.2526Z" fill="#3ACC6C"/>
<path d="M37.6299 139.377C37.6299 139.377 38.9225 141.067 37.0347 143.618C35.1469 146.168 33.5872 148.323 34.2107 149.917C34.2107 149.917 37.0608 145.18 39.3787 145.114C41.6965 145.049 40.1802 142.227 37.6299 139.377Z" fill="#3ACC6C"/>
<path opacity="0.1" d="M37.6299 139.377C37.743 139.54 37.8323 139.719 37.8949 139.907C40.1563 142.566 41.3706 145.047 39.1874 145.121C37.1606 145.177 34.7298 148.801 34.1498 149.715C34.1673 149.789 34.1898 149.862 34.2171 149.933C34.2171 149.933 37.0672 145.195 39.3851 145.13C41.703 145.064 40.1802 142.227 37.6299 139.377Z" fill="black"/>
<path d="M40.0326 141.532C40.0326 142.125 39.9653 142.618 39.8827 142.618C39.8002 142.618 39.735 142.136 39.735 141.532C39.735 140.928 39.8175 141.217 39.9001 141.217C39.9826 141.217 40.0326 140.937 40.0326 141.532Z" fill="#FFD037"/>
<path d="M40.8558 142.24C40.3344 142.525 39.8782 142.699 39.8391 142.625C39.8 142.551 40.191 142.264 40.7081 141.973C41.2251 141.682 41.023 141.895 41.0621 141.973C41.1013 142.051 41.3793 141.956 40.8558 142.24Z" fill="#FFD037"/>
<path d="M30.8044 139.377C30.8044 139.377 29.514 141.067 31.4018 143.618C33.2896 146.168 34.8471 148.323 34.2259 149.917C34.2259 149.917 31.3779 145.18 29.0579 145.114C26.7378 145.049 28.2541 142.227 30.8044 139.377Z" fill="#3ACC6C"/>
<path opacity="0.1" d="M30.8044 139.377C30.6926 139.541 30.6041 139.719 30.5416 139.907C28.278 142.566 27.0658 145.047 29.249 145.121C31.2737 145.177 33.7045 148.801 34.2867 149.715C34.2685 149.789 34.2452 149.862 34.2172 149.933C34.2172 149.933 31.3692 145.175 29.0448 145.11C26.7204 145.045 28.2541 142.227 30.8044 139.377Z" fill="black"/>
<path d="M28.4041 141.532C28.4041 142.125 28.4692 142.618 28.5518 142.618C28.6343 142.618 28.7017 142.136 28.7017 141.532C28.7017 140.928 28.6191 141.217 28.5366 141.217C28.454 141.217 28.4041 140.937 28.4041 141.532Z" fill="#FFD037"/>
<path d="M27.5784 142.24C28.102 142.525 28.556 142.699 28.5951 142.625C28.6342 142.551 28.2432 142.264 27.7262 141.973C27.2091 141.682 27.409 141.895 27.3699 141.973C27.3308 142.051 27.0571 141.956 27.5784 142.24Z" fill="#FFD037"/>
<path opacity="0.1" d="M34.2194 162.839C41.6806 162.839 47.7291 161.911 47.7291 160.766C47.7291 159.622 41.6806 158.694 34.2194 158.694C26.7581 158.694 20.7096 159.622 20.7096 160.766C20.7096 161.911 26.7581 162.839 34.2194 162.839Z" fill="#6C63FF"/>
<path d="M41.1709 147.636L41.1057 148.164L41.0166 148.909L40.9775 149.22L40.8885 149.965L40.8472 150.276L40.7581 151.021L39.7241 159.493C39.6307 160.249 38.3946 160.84 36.9001 160.84H31.5322C30.0398 160.84 28.8059 160.249 28.7082 159.493L27.6741 151.021L27.5829 150.276L27.546 149.965L27.4526 149.22L27.4156 148.909L27.3244 148.164L27.2592 147.636C27.2093 147.202 27.8762 146.846 28.7212 146.846H39.7111C40.5583 146.846 41.2252 147.208 41.1709 147.636Z" fill="#65617D"/>
<path d="M41.1079 148.164L41.0167 148.909H27.42L27.3309 148.164H41.1079Z" fill="#9D9CB5"/>
<path d="M40.9796 149.22L40.8884 149.965H27.5502L27.459 149.22H40.9796Z" fill="#9D9CB5"/>
<path d="M40.8493 150.276L40.758 151.021H27.6784L27.5872 150.276H40.8493Z" fill="#9D9CB5"/>
<defs>
<linearGradient id="paint0_linear_1_268" x1="186.353" y1="153.308" x2="186.353" y2="48.469" gradientUnits="userSpaceOnUse">
<stop stop-color="#808080" stop-opacity="0.25"/>
<stop offset="0.54" stop-color="#808080" stop-opacity="0.12"/>
<stop offset="1" stop-color="#808080" stop-opacity="0.1"/>
</linearGradient>
</defs>
</svg>
